<?xml version="1.0" encoding="utf-8"?>
<!-- Generator: Adobe Illustrator 19.2.0, SVG Export Plug-In . SVG Version: 6.00 Build 0)  -->
<svg version="1.1" xmlns="http://www.w3.org/2000/svg" xmlns:xlink="http://www.w3.org/1999/xlink" x="0px" y="0px"
	 viewBox="0 0 130.7 126.1" style="enable-background:new 0 0 130.7 126.1;" xml:space="preserve">
<style type="text/css">
	.st0{fill:#FFFFFF;}
	.st1{fill:#010101;}
	.st2{fill:#DCCC23;}
	.st3{fill:#F3EB4B;}
	.st4{fill:#FDF6AB;}
	.st5{fill:#CDCFDE;}
	.st6{fill:url(#SVGID_1_);}
	.st7{display:none;}
	.st8{display:inline;}
	.st9{display:inline;fill:url(#SVGID_2_);}
	.st10{fill:url(#SVGID_3_);}
	.st11{display:inline;fill:url(#SVGID_4_);}
</style>
<g id="Layer_1">
	<g>
		<path class="st0" d="M49.3,32.7c3.7,0,6.7,3,6.7,6.7c0,3.7-3,6.7-6.7,6.7c-2.9,0-5.4-1.9-6.3-4.5c0.7,1,1.8,1.7,3.2,1.7
			c2.1,0,3.8-1.7,3.8-3.8c0-2.1-1.7-3.8-3.8-3.8c-1.4,0-2.6,0.8-3.3,1.9C43.7,34.8,46.3,32.7,49.3,32.7z"/>
		<ellipse class="st0" cx="45" cy="39" rx="1.4" ry="1.4"/>
		<path class="st1" d="M42.9,37.6c-0.2,0.6-0.2,1.2-0.2,1.8c0,0.8,0.1,1.5,0.4,2.2c-0.4-0.6-0.7-1.3-0.7-2.1
			C42.4,38.8,42.5,38.2,42.9,37.6z"/>
		<path class="st2" d="M100.5,66.3c-1.9-0.5-3.8-0.9-5.7-1c0.2,1.5,0.4,3.2-1,4.2c-0.7,0.4-1.4,0.7-2.1,0.9
			C95.2,70.8,99.9,70.6,100.5,66.3z"/>
		<path class="st2" d="M88,70.5c-2.2-0.4-4.3-1.6-5.9-3.1c0.3,1.9,0.5,3.9-0.1,5.7c-0.7,2-1.9,3-3.2,3.1
			C80.9,76.9,85.8,77.7,88,70.5z"/>
		<path class="st2" d="M94.9,75.9c-17.5,21.6-34.1,6.7-34.1,6.7c-5.4-4-9.8-8.2-13-11.4C51.8,77.6,56.3,84,63,87.7
			c5.2,2.9,11.7,3.6,17.3,2.2c4-1,12-4.5,17-11.4c3.1-1.3,6.9,0,9.3,2.3c1.4,1.4,2.9,2.9,4.7,3.8C104.9,72,94.9,75.9,94.9,75.9z"/>
		<path class="st2" d="M59.7,51.8c-4.6,6.4-2.3,12.7-1.3,14.8c1.6,0.1,3.5-0.3,2.4-2.1C58.4,58,63.6,52.7,66,47.3
			c2.7-7.3-0.2-12.9-5.3-16.1C68.4,40.7,59.7,51.8,59.7,51.8z"/>
		<path class="st2" d="M64.9,31.1c0.3,0.2,0.5,0.5,0.8,0.7c6.4,6.3,3.5,15.7,1.3,18.9c-2.5,4-6.2,9.2-3.3,13.9
			c4.5-2.7,5.7-7.9,6.5-12.7c0.7-4.6,1.5-12.4,3.4-18c0.5-1.4,1-2.6,1.5-3.7C72.7,31.7,69.3,32.6,64.9,31.1z"/>
		<path class="st3" d="M84.1,16.3c-14.9,3.6-19.6,10.6-20.9,13.5c0.6,0.4,1.2,0.9,1.7,1.4c4.4,1.5,7.8,0.5,10.3-0.9
			c2.2-4.3,5.3-6.6,9.5-8.4c-2.4,0.3-4.9,1.4-7.2,1.5c1.3-1.8,4.2-2.2,6.3-3c5.5-1.1,19.5-8.2,23.2-15.9c0.4-0.8,0.2-2.1-0.9-2.1
			c-0.6-0.1-1.3,0.1-2,0.5C96.6,14.1,84.1,16.3,84.1,16.3z"/>
		<path class="st4" d="M63.2,29.8c1.3-2.9,6-9.9,20.9-13.5c0,0,12.5-2.2,19.9-13.3c-1.3,0.6-2.7,1.6-3.8,2.3
			c-2.8,1.8-5.7,4.2-10.7,6.2c-7.4,2.8-15.1,4.7-22.1,8.4c-3.3,1.6-6.4,4.4-6.8,8.1C60.6,28.1,61.8,28.8,63.2,29.8z"/>
		<path class="st3" d="M120,70.8c-4.3,1.4-11.4-1.5-15-3.2c-1.5-0.5-3-0.9-4.5-1.3c-0.6,4.3-5.3,4.5-8.8,4.1
			c-1.2,0.3-2.5,0.3-3.8,0.1c-2.1,7.3-7.1,6.5-9.2,5.8c-0.8,0.1-1.6-0.1-2.5-0.5C73.9,73.6,73.3,70,73,67c1.2,3.3,1.6,4.6,3.2,6.3
			c1.1,0.8,3,0.7,3.5-0.7c1.6-4.2-0.4-9.6-1.5-12.5c0.7-0.8,2.7,3.2,3.5,4.1c2.4,2.9,5.9,4.9,9.7,4.3c2-0.4,1.5-2.8,0.1-3.6
			c-4.2-2.4-7.6-6.5-9-11.1c2.6,2.4,7.9,4.3,9.8,4.8c2.4,0.6,4.9,1,7.3,1c2.1,0.1,5-0.6,5-3.1c0-1.6-1.6-2.8-3.2-2.8
			c-3.4-0.2-6.3-0.9-9.5-2.1c-1.6-0.6-5.8-3-6.2-4c5.9,1.2,11.6,2.2,18,1.1c10.1-2,9.4-4.7,8.1-5.2c-4.1-0.9-7.4-0.4-11.2-0.8
			c-3.8-0.3-9.5-1.3-11.5-2.6c8.7,0.3,17.5-1.8,25-6.4c2.1-1.3,4.4-2.9,5.1-5.4c0.6-2.4-2.6-0.5-4.6,0c-8.2,2.3-21.1,4.6-25.2,2.3
			c2.3,0.2,10.6-3.2,12.5-4.1c4.8-2.1,9.5-4.6,13.5-8c1.9-1.7,4.2-3.5,5.7-5.7c1.9-2.4,1.9-3.6,0.9-3.8
			c-3.1,7.6-31.8,16.8-31.8,16.8c-9.3,2.5-11.6,11.6-11.6,11.6c-1.6,5.3-2,10.2-3,13.7c-2.6,9.4-6.1,12.3-8,13.2
			c-2.7,3-6.8,4.5-10.5,3c-0.1-0.2-0.1-0.5-0.2-0.7c0.3,0.1,0.8,0.2,1.2,0.2c-1-2-3.3-8.4,1.3-14.8c0,0,8.7-11.2,1-20.6
			c-0.9-0.5-1.8-1-2.7-1.4c-2.5-0.9-4.9-1.6-7.5-1.9C41.2,29.1,34,41.7,32.8,43.8c3.6,2.9,6.7,1.1,10,5.3c0.6-0.4,1.1-1,1.6-1.4
			c-4.1,5.7,0.8,8.7,2.3,9.2c2,0.8,4.2,0.2,6.1-0.6c-3.3,3-6.6,2-7.7,1.7c-1.2,2.7-1.9,4.1-3.8,6.1c2.3,1.1,3.4,2.2,4.6,3.9
			c0.6,1.1,1.3,2.1,1.9,3.2c3.1,3.2,7.6,7.4,13,11.4c0,0,16.6,14.9,34.1-6.7c0,0,10-3.9,16.5,8.7c1.2,0.6,2.4,0.9,3.8,0.8
			c1.8-0.4,3.3-1.8,4.4-3.3c-4,1.3-8.8-1.6-10.1-5.4c2.3,1.5,4.3,3.9,7.3,3.7c2.5,0.4,4.8-1.5,5.1-3.9c-3.9,0.7-8.7-0.2-11.1-3.6
			c3.9,2.3,9.8,3.7,13.2-0.1c0.7-0.9,0.9-1.8,0.6-2.4C123.3,69.6,120,70.8,120,70.8z M49.3,47.1c-4.2,0-7.7-3.4-7.7-7.7
			c0-4.2,3.4-7.7,7.7-7.7c4.2,0,7.7,3.4,7.7,7.7C57,43.6,53.6,47.1,49.3,47.1z"/>
		<path class="st4" d="M75.9,50.9c1-3.5,1.3-8.4,3-13.7c0,0,2.3-9,11.6-11.6c0,0,28.7-9.2,31.8-16.8c-0.9-0.2-2.5,0.4-4.2,1.6
			c-9,4.6-18.3,7.8-27.5,11.1c-5.5,1.5-10.8,5-13.4,10.2c-5.2,9.7-2.4,21.8-8.3,31.2c-0.3,0.4-0.6,0.8-0.9,1.2
			C69.8,63.2,73.2,60.3,75.9,50.9z"/>
		<path class="st4" d="M119.7,69.7c-5,0.9-9.8-0.6-14.6-2c3.6,1.7,10.7,4.6,15,3.2c0,0,3.3-1.2,4.6-0.5
			C124.1,69.1,122.1,68.7,119.7,69.7z"/>
		<path class="st4" d="M50.5,27.9c-2.2-0.2-4.5-0.1-7.3,0.7C38,30.1,31.3,38.7,29.3,43.3c0.9,0.6,2,1,2.8,1.6
			C33.4,42.8,41.2,29.1,50.5,27.9z"/>
		<g id="XMLID_2_">
			<g>
				<path class="st5" d="M55.5,36.9c0-0.5,0-1-0.1-1.5c0.7,1.1,1.2,2.5,1.2,3.9c0,4-3.2,7.2-7.1,7.2c-3.4,0-6.3-2.5-6.9-5.7
					c1.3,2,3.4,3.2,5.9,3.2C52.4,44.1,55.5,40.9,55.5,36.9z"/>
			</g>
		</g>
		<path class="st1" d="M126.7,68.1c1.8,2.1,0.2,4.7-1.3,6.4c-0.4,5.6-3.7,6.2-5.1,9.6c-1.3,2.3-3.7,3.5-6.2,3.6
			c-7.4-0.2-8.4-8.9-14.7-8.1C83,99.7,66.2,92.4,61.2,89.5c-6.4-3.9-11.2-10.1-14.6-16.7c-1.4-2.7-6.3-6.6-6.3-6.6
			s-13.9-3.3-21.6-5.4S5.2,59.6,5.2,59.6s2-6.4,12.3-9.9c10.3-3.5,9.5-9,13.1-14.4s4.8-7.8,13.3-9.7c4.6-1,9.3-0.5,13.9,1.3
			c1.9-10.3,20.4-13.5,25.2-15.4C88.8,9.7,93.4,7.6,99.3,3c2.9-1.9,5.9-4,8.8-2.6c1.8,1.1,1.5,3.7,0.7,5.5c-2.7,6-8.9,9.1-14.3,12.3
			c8.6-3,16.5-6.7,24.6-11c1.2-0.5,3.1-1.2,4.5-0.5c2,0.7,2.1,3.3,1.3,5c-4.7,7.7-12.5,13-20.8,16.4c5-0.8,8.8-1.2,14.7-3.3
			c2.9-0.9,3.2,2.9,1.6,6c-4.2,7.2-13.2,8.4-20.7,10.1c3.3,0.2,6.4,0,9.8-0.1c2.1-0.2,5.1,0.4,5.5,2.9c0.3,2.7-2.6,4-4.6,5
			c-3.5,1.6-6.9,2.3-10.5,2.5c1.8,0.6,3.3,0.9,5,1.7c2,1,3.1,4.1,1.4,6.3c-4.1,4.4-13,2.9-18.6-0.2c2,1.6,3.7,4.2,6.5,4.1
			c8.1,0.5,15.4,5.6,23.6,4.4C120.7,66.6,124.5,65.5,126.7,68.1z M124,72.7c2.1-2.7-0.7-4.6-4.4-3c-8.6,1.5-16.4-3.7-24.8-4.4
			c0.2,1.5,0.4,3.2-1,4.2c-3.7,2.5-8.8,0.8-11.8-2.1c0.3,1.9,0.5,3.9-0.1,5.7c-1.1,3.2-3.5,3.8-5.6,2.6C73.9,73.6,73.3,70,73,67
			c1.2,3.3,1.6,4.6,3.2,6.3c1.1,0.8,3,0.7,3.5-0.7c1.6-4.2-0.4-9.6-1.5-12.5c0.7-0.8,2.7,3.2,3.5,4.1c2.4,2.9,5.9,4.9,9.7,4.3
			c2-0.4,1.5-2.8,0.1-3.6c-4.2-2.4-7.6-6.5-9-11.1c2.6,2.4,7.9,4.3,9.8,4.8c2.4,0.6,4.9,1,7.3,1c2.1,0.1,5-0.6,5-3.1
			c0-1.6-1.6-2.8-3.2-2.8c-3.4-0.2-6.3-0.9-9.5-2.1c-1.6-0.6-5.8-3-6.2-4c5.9,1.2,11.6,2.2,18,1.1c10.1-2,9.4-4.7,8.1-5.2
			c-4.1-0.9-7.4-0.4-11.2-0.8c-3.8-0.3-9.5-1.3-11.5-2.6c8.7,0.3,17.5-1.8,25-6.4c2.1-1.3,4.4-2.9,5.1-5.4c0.6-2.4-2.6-0.5-4.6,0
			c-8.2,2.3-21.1,4.6-25.2,2.3c2.3,0.2,10.6-3.2,12.5-4.1c4.8-2.1,9.5-4.6,13.5-8c1.9-1.7,4.2-3.5,5.7-5.7c3.5-4.5,0.5-4.8-3.3-2.3
			c-9,4.6-18.3,7.8-27.5,11.1c-5.5,1.5-10.8,5-13.4,10.2c-5.2,9.7-2.4,21.8-8.3,31.2c-2.6,3.8-7.2,5.9-11.4,4.2
			c-0.1-0.2-0.1-0.5-0.2-0.7c1.4,0.4,5,0.4,3.7-1.9C58.4,58,63.6,52.7,66,47.3c3.2-8.5-1.4-14.7-8.1-17.5c-4.7-1.6-8.7-2.8-14.8-1.2
			c-5.2,1.5-10.9,9.2-12.8,13.9c5,3.5,10.1,2,12.4,6.6c0.6-0.4,1.1-1,1.6-1.4c-4.1,5.7,0.8,8.7,2.3,9.2c2,0.8,4.2,0.2,6.1-0.6
			c-3.3,3-6.6,2-7.7,1.7c-1.2,2.7-1.9,4.1-3.8,6.1c2.3,1.1,3.4,2.2,4.6,3.9c4.4,7.5,9.3,15.4,17.1,19.7c5.2,2.9,11.7,3.6,17.3,2.2
			c4-1,12-4.5,17-11.4c3.1-1.3,6.9,0,9.3,2.3c2.2,2.4,5,4.9,8.5,4.6c1.8-0.4,3.3-1.8,4.4-3.3c-4,1.3-8.8-1.6-10.1-5.4
			c2.3,1.5,4.3,3.9,7.3,3.7c2.5,0.4,4.8-1.5,5.1-3.9c-3.9,0.7-8.7-0.2-11.1-3.6C114.8,75.1,120.6,76.6,124,72.7z M106.9,4.6
			c0.4-0.8,0.2-2.1-0.9-2.1c-1.7-0.2-4.1,1.6-5.8,2.8c-2.8,1.8-5.7,4.2-10.7,6.2c-7.4,2.8-15.1,4.7-22.1,8.4
			c-3.3,1.6-6.4,4.4-6.8,8.1c0,0.2,3.1,1.8,5.1,3.9c6.4,6.3,3.5,15.7,1.3,18.9c-2.5,4-6.2,9.2-3.3,13.9c4.5-2.7,5.7-7.9,6.5-12.7
			c0.7-4.6,1.5-12.4,3.4-18c2.2-6.8,5.7-9.8,11-12.1c-2.4,0.3-4.9,1.4-7.2,1.5c1.3-1.8,4.2-2.2,6.3-3
			C89.2,19.3,103.2,12.2,106.9,4.6z"/>
		<path class="st1" d="M46.2,35.7c2.1,0,3.8,1.7,3.8,3.8c0,2.1-1.7,3.8-3.8,3.8c-1.3,0-2.5-0.7-3.2-1.7c-0.3-0.7-0.4-1.5-0.4-2.2
			c0-0.6,0.1-1.2,0.2-1.8C43.5,36.5,44.8,35.7,46.2,35.7z M46.5,39c0-0.8-0.6-1.4-1.4-1.4c-0.8,0-1.4,0.6-1.4,1.4
			c0,0.8,0.7,1.4,1.4,1.4C45.8,40.4,46.5,39.8,46.5,39z"/>
		<path class="st1" d="M49.3,31.7c4.2,0,7.7,3.4,7.7,7.7c0,4.2-3.4,7.7-7.7,7.7c-4.2,0-7.7-3.4-7.7-7.7
			C41.7,35.2,45.1,31.7,49.3,31.7z M56,39.4c0-3.7-3-6.7-6.7-6.7c-3.1,0-5.7,2.1-6.5,4.9c-0.3,0.6-0.5,1.2-0.5,1.9
			c0,0.8,0.2,1.5,0.7,2.1c0.9,2.6,3.4,4.5,6.3,4.5C53,46.1,56,43.1,56,39.4z"/>
	</g>
	<path class="st1" d="M23.5,19.6"/>
	<radialGradient id="SVGID_1_" cx="26.0289" cy="53.6548" r="14.0823" gradientUnits="userSpaceOnUse">
		<stop  offset="0" style="stop-color:#FBAD18"/>
		<stop  offset="0.4438" style="stop-color:#FCB017"/>
		<stop  offset="0.9517" style="stop-color:#FDBA12"/>
		<stop  offset="1" style="stop-color:#FEBC12"/>
	</radialGradient>
	<path class="st6" d="M8.5,57.6c0,0,2.7-3.9,9.9-6.3c7.2-2.4,11-7,11-7s9.1,2.5,10.6,3.9c0.1,5.8,3.7,9.7,3.7,9.7L39.9,63
		c0,0-10.1-1.2-16.4-3.3S8.5,57.6,8.5,57.6z"/>
</g>
<g id="Layer_3" class="st7">
	<g class="st8">
		<ellipse transform="matrix(0.986 -0.1666 0.1666 0.986 -5.0863 7.579)" class="st0" cx="42.6" cy="34.1" rx="1.5" ry="1.5"/>
		<path class="st3" d="M118.6,71.2c0,0.4-0.1,0.7-0.1,1.1c0,0.2,0.1,0.4,0.2,0.5c1.5,1.1,3.9,0.9,5.1-0.3c0.2-0.2,0.2-0.5,0-0.7
			c-0.8-0.9-3.1-1.1-4.6-1.1C118.9,70.6,118.6,70.9,118.6,71.2z"/>
		<path class="st4" d="M124.3,69.7c-1.4-1.2-3.9-0.2-5.7-1c0,0.6,0,1.2,0,1.9c1.7,0,5.1,0.1,5.4,1.5
			C124.5,71.5,124.6,70.7,124.3,69.7z"/>
		<path class="st5" d="M53.3,31.7c-1.5,6.6-5.5,6.9-8,6.3c-0.3,0.1-0.6,0.2-0.8,0.2c-1.3,0.2-2.5-0.2-3.4-1.1c1.4,2.4,4.1,3.8,7,3.3
			c3.7-0.6,6.1-4.1,5.5-7.8C53.5,32.3,53.4,32,53.3,31.7z"/>
		<path class="st0" d="M53.3,31.7c-1-3.1-4.2-5-7.5-4.5c-3,0.5-5.3,3-5.6,5.9c0.5-1.2,1.6-2.2,2.9-2.4c2.1-0.4,4.1,1.1,4.4,3.1
			c0.3,1.8-0.7,3.5-2.3,4.2C47.8,38.5,51.8,38.2,53.3,31.7z"/>
		<path class="st4" d="M123.1,43c-0.5-0.3-1.1-0.6-1.7-0.9c-9.6-4.5-19.1-4.6-28.6-2c-6.3,1.4-13,4.3-17.7,8.8
			c2.8-1,5.8-1.3,8.9-1.1C89.6,44.6,106.4,36.7,123.1,43z"/>
		<path class="st3" d="M123.1,43c-16.7-6.4-33.5,1.6-39.1,4.8c7.9,0.5,15.7,4.2,18,6.5c5.1,3.7,7.8,9.7,10.2,15.4
			c0.5,1.5,2.8,4.8,4,2.4c0.8-3.8-0.9-7.4-2.8-11.2c-2-3.9-4.8-7.4-8-10.3c-2.5-2.3-8.7-6.8-8.9-7.1c6.3,1.2,11.9,4.2,16.8,8.6
			c1.9,1.7,3.3,3.1,5.1,5.4c1.3,1.6,3.2,5.2,4.6,4.8c2.1-0.8,0.8-3.8,0.3-5.3c-1.2-2.7-3.1-5.1-5-7.4c-1.3-1.6-4.2-4.1-8-6.3
			c6.6,0,10.1,3.6,15,5.7c1,0.5,3.1,0.9,3.1-0.7C128.5,46.7,126,44.7,123.1,43z"/>
		<path class="st2" d="M64.7,46.3c-1,2.9-1.6,5.9-0.4,8.6c1.8-1.1,3.2-2.2,3.6-2.6c2.1-1.7,4.9-4,7-5.8c0.1-0.1,0.2-0.1,0.3-0.2
			C69.5,48.1,66.2,47,64.7,46.3z"/>
		<path class="st3" d="M65.5,44.2c-0.3,0.7-0.5,1.4-0.8,2.1c1.5,0.8,4.8,1.8,10.4,0c2.8-2.4,6.2-4.2,9.8-5.7
			C78.4,39,68.4,42.9,65.5,44.2z"/>
		<path class="st4" d="M84.9,40.6c1.9-0.8,4-1.5,6-2c-7.3-3-17.1-1-23.9,1.8c-0.2,0.7-0.4,1.3-0.6,1.8c-0.3,0.6-0.5,1.3-0.8,2
			C68.4,42.9,78.4,39,84.9,40.6z"/>
		<path class="st2" d="M92.7,67.3c-1.8-0.7-3.3-2.1-4.6-3.6c0.3,1.9,0.2,3.9-1.6,4.8c-1,0.6-2.4,0.8-3.9,0.5
			C84.8,70.7,89,72.5,92.7,67.3z"/>
		<path class="st2" d="M112.6,74.2c-2.2-2.4-3.2-5.6-4.6-8.5c-1.4,0.4-2.7,0.4-4,0.1C105.1,67.8,108.4,73,112.6,74.2z"/>
		<path class="st2" d="M101.5,70.5c-9.6,10.1-21.8,11.3-21.8,11.3c-12,1.1-21.8-7.5-26-11.8c3.7,5.8,9.3,14.7,21.4,15.6
			c6.8,0.3,14.1-0.7,25.7-10.9c1.7-1.3,2.8-0.4,3.9,0.4c2.7,1.9,4.3,4.8,6.6,7.1C109.8,75.1,101.5,70.5,101.5,70.5z"/>
		<path class="st4" d="M47.4,22.2c-2.1,0.2-4.3,0.8-6.7,1.9c-4.9,2.4-10.7,9.3-11.8,14.3c1.4,0.7,4.3,1.2,5.5,1.9
			C35.1,37.9,39.3,25,47.4,22.2z"/>
		<path class="st2" d="M103,65.4c-1.7-0.6-3.2-1.7-4.3-2.9c0.6,2.3-1,5.1-3.5,5.2C97.1,68.5,100.2,68.8,103,65.4z"/>
		<path class="st2" d="M59.4,43.6c-3.3,7.9-1.1,11.9,0,13.3c1-0.2,1.9-0.6,2.7-1c-2.6-5.8,1.3-11.6,2.7-17.1
			c1.6-8.1-2.8-13.3-8.9-15.4C66.2,29.8,59.4,43.6,59.4,43.6z"/>
		<g>
			<path class="st2" d="M103.3,58.5c-2-2.3-4.7-4.1-7.5-5.5c-2.5-1.2-7.5-3.3-14.3-3.1c-3.1,0-6.2,0.7-9.1,1.8
				c-2.9,1.9-5.7,4.4-9,5.6C67.3,56,87.5,50.3,103.3,58.5z"/>
			<path class="st3" d="M122.9,75.2c-1.7,0.3-3.6,0.4-4.9-0.9c-1.2,1.2-3.3,1.7-4.7,0.5c-0.3-0.2-0.5-0.5-0.7-0.7
				c-4.2-1.2-7.5-6.4-8.6-8.5c-0.3-0.1-0.6-0.2-0.9-0.3c-2.8,3.4-5.9,3.1-7.8,2.3c0,0,0,0,0,0c-0.9,0-1.7-0.1-2.5-0.4
				c-3.6,5.2-7.9,3.3-10,1.7c-2.6-0.5-5.4-3-5.9-9.5c2,4.2,3.7,6.5,6.1,7.3c1.2,0.4,2.8,0,3.2-1.3c0.7-2.8-0.1-5.3-1.2-8.1
				c3.3,2.8,4.7,5.8,7.9,7.2c1.9,0.7,4.1-0.3,3.7-3.1c-0.3-2.1-1.2-3.1-1.6-5.1c2.7,3,6.3,7.1,11.2,6.7c-0.6-1.7-1.5-3.3-2.7-4.6
				c-15.7-8.2-36-2.5-39.9-1.2c-0.2,0.1-0.5,0.2-0.7,0.2c-1.9,0.6-4.1,0.5-5.6-0.2c0.8,0,1.6-0.2,2.3-0.4c-1.1-1.4-3.4-5.4,0-13.3
				c0,0,6.9-13.8-3.4-20.2c-0.7-0.2-1.3-0.4-2-0.6c-2.6-0.7-5.3-1-8.2-0.7c-8.1,2.9-12.3,15.7-13,18c3.5,2.1,7,1.2,9.4,4.3
				c0.5-0.5,0.9-1.2,1.4-1.7c-3.1,6.4,2.3,8.5,3.8,8.8c2.1,0.5,4.2-0.5,6-1.6c-2.8,3.6-6.2,3.1-7.4,2.9c-0.8,2.9-1.2,4.4-2.7,6.6
				c3.8,0.9,6.4,4.6,8.5,7.4c0.6,0.8,1.3,1.9,2,3.1c4.2,4.4,14,12.9,26,11.8c0,0,12.2-1.2,21.8-11.3c0,0,8.3,4.6,9.9,11.7
				c0.6,0.6,1.2,1.1,1.9,1.6c2,1.3,5.8,1.3,6.2-1.6c-3.6-1.3-7.4-3.7-8.4-7.6c3,3.5,5.6,4.2,8.7,5C122.1,80,123.4,77.3,122.9,75.2z
				 M48.2,41.4c-4.2,0.7-8.2-2.1-8.9-6.3c-0.7-4.2,2.1-8.2,6.3-8.9c4.2-0.7,8.2,2.1,8.9,6.3C55.3,36.7,52.4,40.7,48.2,41.4z"/>
		</g>
		<path d="M42.4,32.7c-0.8,0.1-1.3,0.9-1.2,1.7c0.1,0.8,0.9,1.3,1.7,1.2c0.8-0.1,1.3-0.9,1.2-1.7C43.9,33.1,43.2,32.5,42.4,32.7z
			 M48.1,40.5c3.7-0.6,6.1-4.1,5.5-7.8c-0.6-3.7-4.1-6.1-7.8-5.5c-3,0.5-5.3,3-5.6,5.9c0.5-1.2,1.6-2.2,2.9-2.4
			c2.1-0.4,4.1,1.1,4.4,3.1c0.4,2.1-1.1,4.1-3.1,4.4c-1.3,0.2-2.5-0.2-3.4-1.1C42.4,39.5,45.2,41,48.1,40.5z M48.2,41.4
			c-4.2,0.7-8.2-2.1-8.9-6.3c-0.7-4.2,2.1-8.2,6.3-8.9c4.2-0.7,8.2,2.1,8.9,6.3C55.3,36.7,52.4,40.7,48.2,41.4z"/>
		<path d="M29.8,37.3c5.5,2.6,9.1,3.1,12.3,7.2c0.5-0.5,0.9-1.2,1.4-1.7c-3.1,6.4,2.3,8.5,3.8,8.8c2.1,0.5,4.2-0.5,6-1.6
			c-2.8,3.6-6.2,3.1-7.4,2.9c-0.8,2.9-1.2,4.4-2.7,6.6c3.8,0.9,6.4,4.6,8.5,7.4c3.7,4.9,8.8,17.5,23.5,18.7
			c6.8,0.3,14.1-0.7,25.7-10.9c1.7-1.3,2.8-0.4,3.9,0.4c3.4,2.3,5,6.4,8.4,8.6c2,1.3,5.8,1.3,6.2-1.6c-3.6-1.3-7.4-3.7-8.4-7.6
			c3,3.5,5.6,4.2,8.7,5c2.5,0.5,3.7-2.2,3.3-4.3c-1.7,0.3-3.6,0.4-4.9-0.9c-1.2,1.2-3.3,1.7-4.7,0.5c-2.7-2.4-3.8-6-5.3-9.3
			c-3.6,1.1-7.1-0.8-9.3-3.1c0.6,2.3-1,5.1-3.5,5.2c-2.9,0.1-5.3-1.9-7.1-4c0.3,1.9,0.2,3.9-1.6,4.8c-2.8,1.6-9,1.1-9.7-9
			c2,4.2,3.7,6.5,6.1,7.3c1.2,0.4,2.8,0,3.2-1.3c0.7-2.8-0.1-5.3-1.2-8.1c3.3,2.8,4.7,5.8,7.9,7.2c1.9,0.7,4.1-0.3,3.7-3.1
			c-0.3-2.1-1.2-3.1-1.6-5.1c2.7,3,6.3,7.1,11.2,6.7c-1.7-4.8-5.8-8-10.1-10.1c-2.5-1.2-7.5-3.3-14.3-3.1c-3.1,0-6.2,0.7-9.1,1.8
			c-3.1,2-6,4.7-9.7,5.8c-1.9,0.6-4.1,0.5-5.6-0.2c1.8-0.1,3.5-0.6,5-1.3c-2.6-5.8,1.3-11.6,2.7-17.1c1.7-9-3.8-14.4-10.9-16
			c-4.5-1.1-7.4-1.3-13.2,1.3C35.8,26.5,30.9,32.4,29.8,37.3z M130.6,48.1c0.5,2.8-1,4.1-2.8,3.9c-3.9-0.6-6.4-3.6-9.9-5.1
			c3.2,3.1,6.8,6.3,8.3,10.6c0.5,2.2,0.6,4.7-1.4,6.3c-1.2,1.3-3.5,0.3-4.5-0.9c-3.5-4.3-7-10.4-15.9-15.2c3,2.1,5.4,4.2,7.6,7
			c3.2,4.3,5.2,7.5,6.4,12.1c2.5,0.8,7-0.6,8.4,1.7c0.9,2-0.3,4.4-1.5,5.7c0.4,2.9-0.3,6.5-3.5,7.4c-0.2,3-3.4,5.9-6.6,5.1
			c-3.1-0.4-5.2-2.6-7.3-5c-1-1.2-4.3-4.9-5-5c-10,8.1-17.6,11.6-25.9,11.6c-7.5-0.3-14.3-2.8-19.3-9c-3.1-3.9-5.4-7.3-8.1-11.2
			c-1.7-2.3-3.7-4.9-6.4-6.1c-0.2,0-0.3-0.1-0.5-0.1c-9.8-2-13.8-2.3-19.6-4.3c-5.7-2-18.5-2-18.5-2s1.6-6.8,9.2-9.4
			s11.8-8.1,15.2-13.6s6.6-9.6,10.3-11.2c3.8-1.6,7.8-2.6,12-1.9c4.1,0.6,7.1,1.7,10.6,4.1c5.3,3.7,6.1,9.9,5.5,14.4
			c5.8-2.6,12.1-3.5,18.2-3c2.2,0.2,6.1,1,9.3,2.4c0.5,0.2,1.2,0.2,1.8,0.1c8-1.7,15.8-1,24,2.1C124.6,41.5,129.3,43.6,130.6,48.1z
			 M125.4,49c1,0.5,3.1,0.9,3.1-0.7c0-1.9-3.5-4.4-7-6.2c-9.6-4.5-19.1-4.6-28.6-2c-6.2,1.9-12.3,4.3-17.7,8.8
			c10.1-3.6,23.6,2.3,26.9,5.4c5.1,3.7,7.8,9.7,10.2,15.4c0.5,1.5,2.8,4.8,4,2.4c0.8-3.8-0.9-7.4-2.8-11.2c-2-3.9-4.8-7.4-8-10.3
			c-2.5-2.3-8.7-6.8-8.9-7.1c6.3,1.2,11.9,4.2,16.8,8.6c1.9,1.7,3.3,3.1,5.1,5.4c1.3,1.6,3.2,5.2,4.6,4.8c2.1-0.8,0.8-3.8,0.3-5.3
			c-1.2-2.7-3.1-5.1-5-7.4c-1.3-1.6-4.2-4.1-8-6.3C117,43.3,120.5,46.9,125.4,49z M118.5,72.5c2.1,2,7,0.6,5.9-2.8
			c-1.4-1.2-3.9-0.2-5.7-1C118.7,70,118.6,71.3,118.5,72.5z M74.9,46.5c4.4-3.8,10.2-6.2,16-7.9c-7.3-3-17.1-1-23.9,1.8
			c-0.2,0.7-0.4,1.3-0.6,1.8c-1.6,3.8-3.9,8.7-2,12.7c1.8-1.1,3.2-2.2,3.6-2.6C70,50.5,72.8,48.2,74.9,46.5z"/>
	</g>
	<radialGradient id="SVGID_2_" cx="25.0465" cy="48.8145" r="14.1891" gradientUnits="userSpaceOnUse">
		<stop  offset="0" style="stop-color:#FBAD18"/>
		<stop  offset="0.4438" style="stop-color:#FCB017"/>
		<stop  offset="0.9517" style="stop-color:#FDBA12"/>
		<stop  offset="1" style="stop-color:#FEBC12"/>
	</radialGradient>
	<path class="st9" d="M7.5,53.5c0,0,2.7-3.9,9.9-6.3c7.2-2.4,10.9-8.1,10.9-8.1s9.2,3.5,10.6,5c0.1,5.8,3.7,9.7,3.7,9.7l-1.5,4.7
		c0,0-12.2-0.8-18.6-2.9C16.2,53.5,7.5,53.5,7.5,53.5z"/>
</g>
<g id="Layer_5" class="st7">
	<g class="st8">
		<path class="st3" d="M111.2,68c-1.3-1.4-2.6-2.6-4-3.7c1,1.1,1.4,2.4,1.4,3.7c1.2,1.7,4,6,3,10.2c0.1,0.1,0.3,0.2,0.4,0.3
			c2,1.4,3.9,3.5,6.3,5.2c1.5,1.1,3.8-0.3,3.5-2.2c0.1-4-6.8-8.4-6.9-8.5c4.4,1.1,7.1,3,8.4,6.5c2.6-0.5,3.1-4.4,1.3-6.1
			c-2.1-2.6-5.5-3.5-8.7-3.2c3.6-2.4,8.9-0.8,11.3,3c0.8-0.8,1.1-1.8,1-2.8C123.7,66.1,111.2,68,111.2,68z"/>
		<path class="st2" d="M108.5,68c0,0.5-0.1,0.9-0.2,1.4c-0.4,2.3-3,3.2-5,3.4c2.2,2.6,5.6,3.4,8.3,5.4C112.5,74,109.8,69.7,108.5,68
			z"/>
		<ellipse transform="matrix(0.9746 -0.2241 0.2241 0.9746 -5.8764 10.1553)" class="st0" cx="41.8" cy="31" rx="1.5" ry="1.5"/>
		
			<radialGradient id="SVGID_3_" cx="49.3127" cy="73.8688" r="4.1801" gradientTransform="matrix(1.1287 0 0 1.1444 -6.9421 -41.8788)" gradientUnits="userSpaceOnUse">
			<stop  offset="0" style="stop-color:#FBAD18"/>
			<stop  offset="0.1465" style="stop-color:#F6AD1B"/>
			<stop  offset="0.3145" style="stop-color:#EBB020"/>
			<stop  offset="0.4931" style="stop-color:#DAB527"/>
			<stop  offset="0.6791" style="stop-color:#C0B931"/>
			<stop  offset="0.8689" style="stop-color:#9BBD3C"/>
			<stop  offset="1" style="stop-color:#78C143"/>
		</radialGradient>
		<ellipse class="st10" cx="48.7" cy="42.7" rx="5" ry="4.5"/>
		<path class="st2" d="M67.4,90.9c-0.8-2-1.4-3.8-2.1-5.7c-1.5-0.6-2.6-1.2-3.5-1.7c-4.3-2.6-7.9-6.2-10.8-10.3
			c0.5,2.5,0.3,6.1,0.3,7.7c0,0.5,0,1-0.1,1.5c1.2,1.3,4.7,5.1,5.4,9.7c0.5-2,0.8-4.1,0.8-6.3c0.2,0.4,0.3,0.8,0.4,1.3
			c0.5,0.5,4.2,4.4,5.2,9.2c0.4-3.2,0.5-6.4-0.2-9.5c1.1,0.8,1.7,3.9,2.1,6.4c1.7,2.2,5.6,7.7,5.1,13.1c1-0.5,1.6-1.9,1.3-3
			C70.1,99.2,69.1,95,67.4,90.9z"/>
		<path class="st3" d="M65,93.2c0.2,1.3,0.3,2.5,0.4,3.1c0.3,2.4,0.6,4.9,1,7.3c0.2,1.3,1.1,2.7,2.5,2.9c0.4,0.1,0.8,0,1.1-0.2
			C70.7,101,66.7,95.4,65,93.2z"/>
		<path class="st3" d="M57.7,95.9c-0.8,4.8-1.9,9.5-2.4,14.3c-0.2,1.2,1,2.4,2.1,1.6c2.4-1.1,3.5-6.4,4.7-9.9c0.4-1.8,0.8-3.7,1-5.6
			c-1-4.9-4.7-8.7-5.2-9.2C58.6,89.9,58.1,93,57.7,95.9z"/>
		<path class="st4" d="M72,96.3c1.6,5.8,2.4,11.6,3.2,17.9c0.3,2.2,0.4,4.5,1,6.7c0.2,0.8,1,2.4,1.9,2.5c0-4.5-0.5-27.1-10.8-39.4
			C68.9,88.1,70.7,92.2,72,96.3z"/>
		<path class="st4" d="M124.5,66.6c-4.1-1-8.3-0.7-12.4-1.5c-4.4-4.6-23.3-16.3-43.2-13.4l0.1,1.1c-4.2,6.2-5.8,12.4-4.7,19.1
			c0.1,1.1,0.3,2.3,0.5,3.4c0.3-4.4,2-18.2,10.5-20.5c0,0,14.7-0.6,27.1,6.3c1.2,0.5,2.4,1.1,3.5,1.9c0.5,0.4,0.9,0.8,1.2,1.2
			c1.4,1.1,2.8,2.3,4,3.7c0,0,12.5-1.9,16.9,2.5C127.8,68.7,126.3,67,124.5,66.6z"/>
		<path class="st3" d="M75.3,54.8c-8.5,2.3-10.2,16.1-10.5,20.5c0.6,3,1.5,5.9,2.6,8.7c10.3,12.3,10.8,34.9,10.8,39.4
			c0.1,0,0.3,0,0.4,0c1.5-0.5,1.8-3.7,1.8-5.4c0.4-7.6-0.7-15.1-2.3-22.5c-1.4-4.8-2.2-9.8-4.5-14.3c2.5,2.1,5.8,6.2,9,10.3
			c5,5.8,8.5,12.6,12.8,18.9c1.3,1.9,3,2.5,4.8,1.8c1.2-0.9,1.2-2.2,0.8-3.4c-1.6-5.5-4.4-10.7-7.8-15.3c-4.2-5-10.8-13.8-12.9-16.9
			c3.6,2.3,6.3,5.9,9.5,8.7c4.5,4.5,8.8,8.4,13.9,11.6c1.2,0.5,3.5,0.3,3.3-1.4c0.1-3.5-2.5-6.1-4.8-8.4c-2.9-2.9-5.7-6-8.8-8.7
			c-1.4-1.2-5.4-4.4-7.6-6.6c0.6,0,5.1,2.7,6.8,3.8c2.8,2,5.7,3.9,8.4,6c1.7,1.3,3.9,2.3,6,1.4c1.3-3.3-1.9-5.9-4.1-7.8
			c-2.4-2.3-5.3-4-8.3-5.5c-1.9-0.9-5.9-2.9-5.9-3.1c3.9,0.3,7.4,1.9,11.2,2.8c1.6,0.5,3.4,1.2,5.1,0.5c1.6-1,1.3-3.4,0-4.5
			c-1.6-2-6.5-4.3-16.3-4.7c3-1.3,6.1-1,8.7-0.8c1.7,0.3,3.3,0.7,5,1.3C90,54.2,75.3,54.8,75.3,54.8z"/>
		<path class="st4" d="M61.2,53.5c1.4,0,3.4,0.5,4.2,2.9c0.9-1.3,2.1-2.6,3.6-3.6l-0.1-1.1C66.3,52,63.8,52.6,61.2,53.5z"/>
		<path class="st3" d="M61.2,53.5c-0.2,0.1-0.4,0.1-0.6,0.2c-1,0.3-1.5,0.6-2.3,0.8c-0.1-0.1-0.1-0.3-0.1-0.4
			c-4.1-1.2-2.1-9.6,0.6-15.6c1.3-3,2-6.2,2-6.2c1.6-5.7-1.6-9.7-3.8-11.7c-1.3-0.7-2.8-1.2-4.6-1.5c-2.4-0.3-4.6-0.5-6.9-0.3
			c-9.2,4.8-13.3,15.7-14,18.1c3.8,1.9,7.7,1.4,10.3,4.5c0.5-0.6,0.8-1.2,1.3-1.8c-2.7,6.5,2.8,8.3,4.3,8.5c2.1,0.3,4.2-0.8,5.9-1.9
			c-2.6,3.7-6,3.5-7.2,3.4c-0.6,2.9-0.8,4.8-2.2,7.1c-0.4,0.7-0.8,1.3-1.2,1.8c2,1.1,3.8,2.8,4.9,4.3c1.5,2,2.8,4.1,4.1,6.1
			c6,6.1,8.9,3.5,10.1,1.3c0-1.8,0.1-3.6,0.3-5.4c0.1-0.9,0.8-4.8,3.3-8.4C64.7,54,62.6,53.6,61.2,53.5z M47.8,38
			c-4.2,1-8.3-1.7-9.3-5.8c-1-4.2,1.7-8.3,5.8-9.3c4.2-1,8.3,1.7,9.3,5.8C54.6,32.9,52,37,47.8,38z"/>
		<path class="st2" d="M51.7,68.9c2.4,3.7,4.7,7.2,8,10c1.2,1,3.5,2.6,4.5,3c-0.3-0.6-1-2.2-1.5-4.5c-0.5-2.4-0.8-4.8-0.8-7.2
			C60.6,72.4,57.7,75,51.7,68.9z"/>
		<path class="st4" d="M45.5,18.8c-2.5,0.2-5,0.9-7.9,2.4c-4.8,2.6-9.1,8.9-10,13.9c1.3,0.5,2.7,1.2,3.8,1.8
			C32.3,34.4,36.4,23.5,45.5,18.8z"/>
		<path class="st2" d="M60.7,32.3c0,0-0.7,3.2-2,6.2c-2.6,6-4.7,14.5-0.6,15.6c-2-6.3,3-11.5,5.3-16.9c2-5.4,0.9-9.8-1.8-13
			c-0.4-0.4-2-2.2-4.7-3.6C59.1,22.5,62.3,26.5,60.7,32.3z"/>
		<path class="st0" d="M52.6,28.6c-1-3.4-4.5-5.5-8-4.7c-3,0.7-5.1,3.3-5.2,6.2c0.4-1.3,1.4-2.3,2.8-2.6c2.1-0.5,4.1,0.8,4.6,2.9
			c0.3,1.4-0.2,2.9-1.2,3.8C47.5,34.5,50.8,34.2,52.6,28.6z"/>
		<path class="st5" d="M52.6,28.6c-1.8,5.6-5.1,6-7,5.6c-0.5,0.4-1,0.7-1.6,0.8c-1.3,0.3-2.5-0.1-3.4-0.9c1.5,2.3,4.3,3.6,7.2,2.9
			c3.6-0.8,5.9-4.5,5.1-8.1C52.6,28.8,52.6,28.7,52.6,28.6z"/>
		<g>
			<path class="st4" d="M50.1,90.7c-0.6,2.7-1.5,5.3-2.6,7.7c-1.5,3.8-3.7,7.3-6,10.6c-0.8,1.2-1.8,2.6-1.4,4.2
				c0.2,0.3,0.5,0.6,0.8,0.7C43,111.5,50.4,101.7,50.1,90.7z"/>
			<path class="st3" d="M51.3,82.3c-0.1,2.8-0.5,5.6-1.1,8.4c0.3,11-7.2,20.8-9.2,23.2c1.1,0.5,2.5,0,3.4-0.8
				c5.1-4.5,9-10.3,11.2-16.7c0.4-1.5,0.8-2.9,1.1-4.4C55.9,87.4,52.5,83.6,51.3,82.3z"/>
		</g>
		<path class="st1" d="M41.5,29.5c-0.8,0.2-1.3,1-1.1,1.7c0.2,0.8,1,1.3,1.7,1.1c0.8-0.2,1.3-1,1.1-1.7C43,29.9,42.3,29.4,41.5,29.5
			z M40.4,34.1c1.5,2.3,4.3,3.6,7.2,2.9c3.6-0.8,5.9-4.5,5.1-8.1c-0.8-3.6-4.5-5.9-8.1-5.1c-3,0.7-5.1,3.3-5.2,6.2
			c0.4-1.3,1.4-2.3,2.8-2.6c2.1-0.5,4.1,0.8,4.6,2.9c0.5,2.1-0.8,4.1-2.9,4.6C42.6,35.3,41.3,34.9,40.4,34.1z M38.6,32.2
			c-1-4.2,1.7-8.3,5.8-9.3c4.2-1,8.3,1.7,9.3,5.8c1,4.1-1.7,8.3-5.8,9.3C43.7,38.9,39.5,36.3,38.6,32.2z"/>
		<path class="st1" d="M28.9,34.3c5.7,2.3,9.6,3.1,12.9,7.1c0.5-0.6,0.8-1.2,1.3-1.8c-2.7,6.5,2.8,8.3,4.3,8.5
			c2.1,0.3,4.2-0.8,5.9-1.9c-2.6,3.7-6,3.5-7.2,3.4c-0.6,2.9-0.8,4.8-2.2,7.1c-0.4,0.7-0.8,1.3-1.2,1.8c2,1.1,3.8,2.8,4.9,4.3
			c4.1,5.7,7,11.7,12.1,16.1c1.2,1,3.5,2.6,4.5,3c-0.3-0.6-1-2.2-1.5-4.5c-0.9-4.1-1.1-8.4-0.5-12.6c0.2-1.3,1.5-8.2,6.9-12
			c-4.2,6.2-5.8,12.4-4.7,19.1c0.9,8.6,5.2,16.3,7.7,24.4c1.6,5.8,2.4,11.6,3.2,17.9c0.3,2.2,0.4,4.5,1,6.7c0.3,0.9,1.2,2.8,2.3,2.5
			c1.5-0.5,1.8-3.7,1.8-5.4c0.4-7.6-0.7-15.1-2.3-22.5c-1.4-4.8-2.2-9.8-4.5-14.3c2.5,2.1,5.8,6.2,9,10.3c5,5.8,8.5,12.6,12.8,18.9
			c1.3,1.9,3,2.5,4.8,1.8c1.2-0.9,1.2-2.2,0.8-3.4c-1.6-5.5-4.4-10.7-7.8-15.3c-4.2-5-10.8-13.8-12.9-16.9c3.6,2.3,6.3,5.9,9.5,8.7
			c4.5,4.5,8.8,8.4,13.9,11.6c1.2,0.5,3.5,0.3,3.3-1.4c0.1-3.5-2.5-6.1-4.8-8.4c-2.9-2.9-5.7-6-8.8-8.7c-1.4-1.2-5.4-4.4-7.6-6.6
			c0.6,0,5.1,2.7,6.8,3.8c2.8,2,5.7,3.9,8.4,6c1.7,1.3,3.9,2.3,6,1.4c1.3-3.3-1.9-5.9-4.1-7.8c-2.4-2.3-5.3-4-8.3-5.5
			c-1.9-0.9-5.9-2.9-5.9-3.1c3.9,0.3,7.4,1.9,11.2,2.8c1.6,0.5,3.4,1.2,5.1,0.5c1.6-1,1.3-3.4,0-4.5c-1.6-2-6.5-4.3-16.3-4.7
			c3-1.3,6.1-1,8.7-0.8c2.9,0.6,5.9,1.3,8.5,3.3c2.3,1.8,3,4,2.4,6.4c-0.4,2.3-3,3.2-5,3.4c2.4,2.7,5.9,3.5,8.7,5.7
			c2,1.4,3.9,3.5,6.3,5.2c1.5,1.1,3.8-0.3,3.5-2.2c0.1-4-6.8-8.4-6.9-8.5c4.4,1.1,7.1,3,8.4,6.5c2.6-0.5,3.1-4.4,1.3-6.1
			c-2.1-2.6-5.5-3.5-8.7-3.2c3.6-2.4,8.9-0.8,11.3,3c2.4-2.3,0.3-6-2.6-6.6c-4.1-1-8.3-0.7-12.4-1.5c-4.4-4.6-23.3-16.3-43.2-13.4
			c-2.7,0.4-5.5,1.1-8.2,2.1c-1,0.3-1.5,0.6-2.3,0.8C55.9,48,61,42.7,63.4,37.3c2-5.4,0.9-9.8-1.8-13c-0.5-0.6-3.8-4.3-9.3-5.1
			c-4.9-0.6-9.1-0.8-14.8,2.1C32.8,23.8,29.7,29.3,28.9,34.3z M128.9,66.8c2,2.2,2.3,6.8-0.8,8.2c0.1,3-1.4,5.8-4.2,7
			c-0.4,3.1-3.8,5.1-6.7,3.6c-3.2-2-4.7-5.1-8.6-7.1c1.1,1.8,1.7,4.3,0.1,6c-1.2,1.9-3.6,1.2-5.4,0.7c2.9,3.1,6.3,6.6,5.9,11.2
			c-0.1,2.4-2.9,3.4-5,3c-2.6-0.5-4.4-2.6-6.8-3.5c3.1,4.9,7.1,11.9,5.1,16.7c-1.3,3.2-5,2.8-7.6,0.1c-5.1-4.9-7.6-11.8-12-17.2
			c-1.3-1.6-2.4-3.3-3.8-4.8c2.2,8.2,3.7,16.7,3.4,25.2c0,3.4-0.4,8.2-3.1,9.7c-2.2,0.9-4.3-0.7-5-2.9c-1.9-4.8-1.4-10.1-2.1-15.1
			c-1,1.9-3.4,1.8-5.1,1c-1.9-1.2-3-2.9-3.2-5.4c-1.3,3.5-2.2,7.3-5,9.9c-1.4,1.3-3.9,1.9-5.4,0.4c-1.6-1.9-1.1-4.5-0.7-6.7
			c-2.1,3.4-4.4,6.9-7.9,8.9c-2.2,1.5-5.6,1.6-7-1c-1-4,1.7-6.9,4-10.3c1.7-3,6.4-9.6,7-23.7c0.1-2.6,0.4-10.4-1.7-14.1
			c-1.4-2.5-3.8-7.2-6.7-8.2c-0.2,0.1-10.5-1.3-16.6-2.9c-6.1-1.6-11.7-2.4-19.5-2.2c3.8-5,8.4-9.1,13.1-10.8
			c4.8-1.7,8.9-8.4,8.9-8.4S29.8,21.8,37.6,18c3.8-1.8,7.9-2.4,12.2-2.1c1.6,0.1,4.2,0.6,6.3,1.4c1.2,0.5,4.5,2,6.9,4.6
			c6.4,6.3,3.5,15.7,1.3,18.9c-1.8,3-4.3,6.6-4.3,10.2c27.4-9.1,50.9,9.4,53,11.8c2.1,0.7,9.1,1.1,10.7,1.4
			C125.7,64.5,127.6,65.2,128.9,66.8z M69,106.5c1.7,0.3,2.8-1.7,2.5-3.1c-1.3-4.2-2.3-8.4-4-12.5c-0.8-2-1.4-3.8-2.1-5.7
			c-1.5-0.6-2.6-1.2-3.5-1.7c-4.3-2.6-7.9-6.2-10.8-10.3c0.5,2.5,0.3,6.1,0.3,7.7C51.2,87,50,93.2,47.6,98.4
			c-1.5,3.8-3.7,7.3-6,10.6c-0.8,1.2-1.8,2.6-1.4,4.2c0.9,1.5,3.1,1,4.2-0.1c5.1-4.5,9-10.3,11.2-16.7c1-3.5,1.9-7,1.9-10.7
			c1.3,3.1,0.7,6.8,0.2,10.1c-0.8,4.8-1.9,9.5-2.4,14.3c-0.2,1.2,1,2.4,2.1,1.6c2.4-1.1,3.5-6.4,4.7-9.9c1.1-4.9,2-10.1,0.9-15.1
			c1.7,1.3,2.3,7.9,2.5,9.5c0.3,2.4,0.6,4.9,1,7.3C66.7,104.9,67.6,106.3,69,106.5z"/>
	</g>
	
		<radialGradient id="SVGID_4_" cx="25.1888" cy="46.6517" r="14.1891" gradientTransform="matrix(0.999 -4.361939e-02 4.361939e-02 0.999 -1.9741 1.1888)" gradientUnits="userSpaceOnUse">
		<stop  offset="0" style="stop-color:#FBAD18"/>
		<stop  offset="0.4438" style="stop-color:#FCB017"/>
		<stop  offset="0.9517" style="stop-color:#FDBA12"/>
		<stop  offset="1" style="stop-color:#FEBC12"/>
	</radialGradient>
	<path class="st11" d="M7.9,52.1c0,0,2.5-4,9.6-6.7s10.6-8.5,10.6-8.5s9.3,3.1,10.8,4.5c0.3,5.8,4.1,9.6,4.1,9.6l-1.3,4.7
		c0,0-12.3-0.3-18.7-2.1S7.9,52.1,7.9,52.1z"/>
</g>
</svg>
