<?xml version="1.0" encoding="utf-8"?>
<!-- Generator: Adobe Illustrator 19.2.0, SVG Export Plug-In . SVG Version: 6.00 Build 0)  -->
<svg version="1.1" id="Layer_1" xmlns="http://www.w3.org/2000/svg" xmlns:xlink="http://www.w3.org/1999/xlink" x="0px" y="0px"
	 viewBox="0 0 224.6 101.5" style="enable-background:new 0 0 224.6 101.5;" xml:space="preserve">
<style type="text/css">
	.st0{fill:#F6FBFD;}
	.st1{fill:url(#SVGID_1_);}
</style>
<path class="st0" d="M98.9,0C82.2,0,67.7,8.5,60.1,21c-1.4-0.2-2.8-0.2-4.2-0.2c-14,0-25.7,7.7-27.8,17.9C11.7,41.9,0,49.9,0,59.4
	c0,10.9,15.4,19.9,35.6,21.7c0.6,11.3,13,20.3,28.1,20.3c10.1,0,19-4,24-10.1c8.1,4.6,19.6,7.5,32.4,7.5c15.2,0,28.6-4.1,36.7-10.3
	c6.8,2.7,14.9,4.2,23.6,4.2c24.4,0,44.2-12.2,44.2-27.3s-19.8-27.3-44.2-27.3c-3.3,0-6.5,0.2-9.6,0.6c-0.2-12.8-12.9-23.2-28.6-23.2
	c-2.7,0-5.3,0.3-7.8,0.9C126.4,6.5,113.4,0,98.9,0L98.9,0z"/>
<linearGradient id="SVGID_1_" gradientUnits="userSpaceOnUse" x1="115.4896" y1="-443.8252" x2="115.4896" y2="-358.2786" gradientTransform="matrix(1 0 0 -1 0 -342.3589)">
	<stop  offset="0" style="stop-color:#E9F6F6"/>
	<stop  offset="1" style="stop-color:#E9F6F6;stop-opacity:0"/>
</linearGradient>
<path class="st1" d="M104.2,15.9c-14.1,0-26.3,7.2-32.7,17.7c-1.2-0.1-2.3-0.2-3.5-0.2c-11.8,0-21.7,6.5-23.5,15.1
	C30.7,51.2,20.8,58,20.8,66c0,9.2,12.9,16.8,30,18.3c0.5,9.5,11,17.1,23.7,17.1c8.5,0,16-3.4,20.2-8.5c6.9,3.9,16.6,6.3,27.3,6.3
	c12.8,0,24.2-3.4,30.9-8.7c5.8,2.2,12.6,3.5,19.9,3.5c20.6,0,37.3-10.3,37.3-23s-16.7-23-37.3-23c-2.8,0-5.5,0.2-8.1,0.5
	c-0.1-10.8-10.9-19.5-24.1-19.5c-2.3,0-4.5,0.3-6.6,0.8C127.3,21.4,116.4,15.9,104.2,15.9L104.2,15.9z"/>
</svg>
