<?xml version="1.0" encoding="utf-8"?>
<!-- Generator: Adobe Illustrator 19.2.0, SVG Export Plug-In . SVG Version: 6.00 Build 0)  -->
<svg version="1.1" id="Layer_1" xmlns="http://www.w3.org/2000/svg" xmlns:xlink="http://www.w3.org/1999/xlink" x="0px" y="0px"
	 viewBox="0 0 292.7 134.4" style="enable-background:new 0 0 292.7 134.4;" xml:space="preserve">
<style type="text/css">
	.st0{fill:#F6FBFD;}
	.st1{fill:url(#SVGID_1_);}
</style>
<path class="st0" d="M114.6,76.4c0.2,24.2-25.3,44-56.9,44.1S0.2,101.1,0,76.9c0-0.2,0-0.3,0-0.5c-0.2-24.2,25.3-44,56.9-44.1
	s57.4,19.4,57.6,43.6C114.6,76,114.6,76.2,114.6,76.4z"/>
<path class="st0" d="M206.5,94.8c0,21.9-29.1,39.6-65.1,39.6s-65.1-17.7-65.1-39.6s29.1-39.6,65.1-39.6S206.5,72.9,206.5,94.8z"/>
<path class="st0" d="M292.7,69.3c0.6,25.8-48.6,46.9-110,47.1S71.3,96,70.7,70.2c0-0.3,0-0.6,0-0.9c-0.6-25.8,48.6-46.9,110-47.1
	c61.3-0.2,111.5,20.5,112.1,46.2C292.7,68.7,292.7,69,292.7,69.3z"/>
<path class="st0" d="M171.1,31.1c0,17.2-24.7,31.1-55.2,31.1S60.8,48.3,60.8,31.1S85.5,0,116,0S171.1,13.9,171.1,31.1L171.1,31.1z"
	/>
<path class="st0" d="M166.9,41c0-14.8,16.1-26.9,36.1-26.9S239,26.2,239,41"/>
<linearGradient id="SVGID_1_" gradientUnits="userSpaceOnUse" x1="468.0146" y1="-491.7955" x2="498.4346" y2="-404.1155" gradientTransform="matrix(0.9727 0 0 -0.8809 -332.2524 -304.3293)">
	<stop  offset="0" style="stop-color:#E6F5F5"/>
	<stop  offset="1" style="stop-color:#E6F5F5;stop-opacity:0"/>
</linearGradient>
<path class="st1" d="M116.7,21.2c-26.2,0-47.4,10.8-47.4,24.2c0,0.4,0,0.8,0.1,1.2c-1,0-2-0.1-3.1-0.1C39,46.6,17,61.8,17,80.7
	s22.1,34.1,49.3,34.1c8.7,0,16.9-1.6,24-4.3c9.7,9.2,27.7,15.3,48.4,15.3c20.1,0,37.8-5.9,47.6-14.7c46.6-2.4,82.5-17.6,82.5-36
	c0-13.8-20.2-25.8-49.9-32c-5.2-6.6-15.5-11-27.3-11c-9,0-17,2.6-22.7,6.7c-2.1,0-4.3,0.1-6.3,0.2C157,28.8,138.6,21.2,116.7,21.2
	L116.7,21.2z"/>
</svg>
