<?xml version="1.0" encoding="utf-8"?>
<!-- Generator: Adobe Illustrator 19.2.0, SVG Export Plug-In . SVG Version: 6.00 Build 0)  -->
<svg version="1.1" id="Layer_1" xmlns="http://www.w3.org/2000/svg" xmlns:xlink="http://www.w3.org/1999/xlink" x="0px" y="0px"
	 viewBox="0 0 292.7 134.4" style="enable-background:new 0 0 292.7 134.4;" xml:space="preserve">
<style type="text/css">
	.st0{fill:#F6FBFD;}
	.st1{fill:url(#SVGID_1_);}
</style>
<path class="st0" d="M178.3,75.9c0.2-24.2,26-43.7,57.6-43.6s57.1,19.9,56.9,44.1c0,0.2,0,0.3,0,0.5c-0.2,24.2-26.1,43.7-57.7,43.6
	c-31.6-0.1-57.1-19.9-56.9-44.1C178.2,76.2,178.2,76,178.3,75.9z"/>
<path class="st0" d="M151.4,55.2c36,0,65.1,17.7,65.1,39.6s-29.1,39.6-65.1,39.6s-65.1-17.7-65.1-39.6S115.4,55.2,151.4,55.2z"/>
<path class="st0" d="M0,68.4C0.6,42.7,50.8,22,112.1,22.2c61.4,0.2,110.6,21.3,110,47.1c0,0.3,0,0.6,0,0.9
	c-0.6,25.8-50.6,46.4-112,46.2C48.7,116.2-0.5,95.1,0.1,69.3C0.1,69,0.1,68.7,0,68.4z"/>
<path class="st0" d="M121.7,31.1c0-17.2,24.6-31.1,55.1-31.1C207.3,0,232,13.9,232,31.1s-24.6,31.1-55.1,31.1
	C146.4,62.2,121.7,48.3,121.7,31.1L121.7,31.1z"/>
<path class="st0" d="M53.8,41c0-14.8,16-26.9,36-26.9s36.1,12.1,36.1,26.9"/>
<linearGradient id="SVGID_1_" gradientUnits="userSpaceOnUse" x1="489.4919" y1="-490.6994" x2="519.9834" y2="-402.9886" gradientTransform="matrix(-0.9727 0 0 -0.8809 651.969 -304.3293)">
	<stop  offset="0" style="stop-color:#E6F5F5"/>
	<stop  offset="1" style="stop-color:#E6F5F5;stop-opacity:0"/>
</linearGradient>
<path class="st1" d="M182.1,20.2c-21.9,0-40.3,7.6-45.9,17.8c-2-0.1-4.2-0.2-6.3-0.2c-5.7-4.1-13.7-6.7-22.7-6.7
	c-11.8,0-22.1,4.4-27.3,11C50.2,48.3,30,60.3,30,74.1c0,18.4,35.9,33.6,82.5,36c9.8,8.8,27.5,14.7,47.6,14.7
	c20.7,0,38.7-6.1,48.4-15.3c7.1,2.7,15.3,4.3,24,4.3c27.2,0,49.3-15.2,49.3-34.1s-22-34.1-49.3-34.2c-1.1,0-2.1,0.1-3.1,0.1
	c0.1-0.4,0.1-0.8,0.1-1.2C229.5,31,208.3,20.2,182.1,20.2L182.1,20.2z"/>
</svg>
