<?xml version="1.0" encoding="utf-8"?>
<!-- Generator: Adobe Illustrator 19.2.0, SVG Export Plug-In . SVG Version: 6.00 Build 0)  -->
<svg version="1.1" id="Layer_1" xmlns="http://www.w3.org/2000/svg" xmlns:xlink="http://www.w3.org/1999/xlink" x="0px" y="0px"
	 viewBox="0 0 224.6 101.5" style="enable-background:new 0 0 224.6 101.5;" xml:space="preserve">
<style type="text/css">
	.st0{fill:#F6FBFD;}
	.st1{fill:url(#SVGID_1_);}
</style>
<path class="st0" d="M125.7,0c-14.5,0-27.5,6.5-35.5,16.4c-2.5-0.6-5.1-0.9-7.8-0.9c-15.7,0-28.4,10.4-28.6,23.2
	c-3.1-0.4-6.3-0.6-9.6-0.6C19.8,38.1,0,50.3,0,65.4s19.8,27.3,44.2,27.3c8.7,0,16.8-1.5,23.6-4.2c8.1,6.2,21.5,10.3,36.7,10.3
	c12.8,0,24.3-2.9,32.4-7.5c5,6.1,13.9,10.1,24,10.1c15.1,0,27.5-9,28.1-20.3c20.2-1.8,35.6-10.8,35.6-21.7
	c0-9.5-11.7-17.5-28.1-20.7c-2.1-10.2-13.8-17.9-27.8-17.9c-1.4,0-2.8,0-4.2,0.2C156.9,8.5,142.4,0,125.7,0L125.7,0z"/>
<linearGradient id="SVGID_1_" gradientUnits="userSpaceOnUse" x1="-943.55" y1="-535.7589" x2="-943.55" y2="-450.2589" gradientTransform="matrix(-1 0 0 -1 -829.4 -438.3589)">
	<stop  offset="0" style="stop-color:#E9F6F6"/>
	<stop  offset="1" style="stop-color:#E9F6F6;stop-opacity:0"/>
</linearGradient>
<path class="st1" d="M125.4,11.9c-12.2,0-23.1,5.5-29.8,13.9C93.5,25.3,91.3,25,89,25c-13.2,0-24,8.7-24.1,19.5
	c-2.6-0.3-5.3-0.5-8.1-0.5c-20.6,0-37.3,10.3-37.3,23s16.7,23,37.3,23c7.3,0,14.1-1.3,19.9-3.5c6.7,5.3,18.1,8.7,30.9,8.7
	c10.7,0,20.4-2.4,27.3-6.3c4.2,5.1,11.7,8.5,20.2,8.5c12.7,0,23.2-7.6,23.7-17.1c17.1-1.5,30-9.1,30-18.3c0-8-9.9-14.8-23.7-17.5
	c-1.8-8.6-11.7-15.1-23.5-15.1c-1.2,0-2.3,0.1-3.5,0.2C151.7,19.1,139.5,11.9,125.4,11.9L125.4,11.9z"/>
</svg>
