<?xml version="1.0" encoding="utf-8"?>
<!-- Generator: Adobe Illustrator 19.2.0, SVG Export Plug-In . SVG Version: 6.00 Build 0)  -->
<svg version="1.1" xmlns="http://www.w3.org/2000/svg" xmlns:xlink="http://www.w3.org/1999/xlink" x="0px" y="0px"
	 viewBox="0 0 127.3 176.4" style="enable-background:new 0 0 127.3 176.4;" xml:space="preserve">
<style type="text/css">
	.st0{fill:#FFFFFF;}
	.st1{opacity:0.2;}
	.st2{fill:#DBBEC0;}
	.st3{fill:#F5928D;}
	.st4{fill:#B96128;}
	.st5{opacity:0.7;fill:#F69F89;}
	.st6{display:none;}
	.st7{display:inline;}
</style>
<g id="Layer_1">
	<g>
		<g>
			<path class="st0" d="M36.9,150.6l-4.2-18.2c-30.6-38-15.4-66.2-18-66.5c-1.4-0.1-2.5,1-3.3,2.2c-0.1-0.2-0.1-0.5-0.2-0.7
				c-1.8,2.3-3.5,5.8-3.6,8.9c-3.9,7.6-1,19.9-1.2,28.9c-0.5,0-1,0-1.5,0.1c0,3,0,6,0,9c-0.6-0.2-1.3-0.3-1.9-0.5
				c0.7,4.7,6.2,7.2,8.1,11c1.2,2.5,2.6,6,3.3,8.5c-0.7-0.1-1.5-0.1-2.2-0.1c1.3,3.7,6,5.2,8.1,8.1c-0.2,0.3-0.6-0.1-0.8,0.1
				c2.5,1.9,5.3,3.5,8.6,3.1C33,148.8,36.9,150.6,36.9,150.6z"/>
			<path d="M36.5,151.6c-0.1,0-3.9-1.8-8.7-6.1l0,0c-0.2,0-0.4,0-0.6,0l0,0c-3.3,0-6-1.6-8.3-3.4l0,0c-0.3-0.2-0.4-0.5-0.4-0.8l0,0
				c0-0.2,0-0.4,0.1-0.5l0,0c-2.1-1.9-5.9-3.6-7.3-7.3l0,0c-0.1-0.4-0.1-0.8,0.2-1.1l0,0c0.2-0.3,0.6-0.4,1-0.4l0,0
				c0.2,0,0.4,0,0.6,0l0,0c-0.7-2.2-1.8-4.9-2.7-6.8l0,0c-1.5-3.4-7.2-5.9-8.2-11.4l0,0c-0.1-0.4,0.1-0.8,0.4-1l0,0
				c0.3-0.2,0.8-0.3,1.1-0.1l0,0c0.1,0,0.2,0.1,0.3,0.1l0,0c0-2.5,0-5,0-7.5l0,0c0-0.5,0.4-1,0.9-1.1l0,0c0.2,0,0.4-0.1,0.6-0.1l0,0
				c-0.1-5-0.9-11-0.9-16.7l0,0c0-4.1,0.4-8.1,2.1-11.4l0,0c0.2-3.4,1.9-6.9,3.8-9.3l0,0c0.3-0.3,0.7-0.5,1.1-0.4l0,0
				c0.7-0.8,1.7-1.5,3-1.5l0,0c0.2,0,0.3,0,0.3,0l0,0c1.2,0.2,1.4,1.4,1.3,1.8l0,0c0,2.4-1.8,7.9-1.8,16.6l0,0
				c0,11.7,3.3,28.7,19.3,48.5l0,0l0.2,0.4l4.2,18.2l-1.1,0.3l0.5-1l-0.5,1l1.1-0.3c0.1,0.4-0.1,0.8-0.4,1.1l0,0
				c-0.2,0.2-0.5,0.2-0.7,0.2l0,0C36.8,151.7,36.6,151.6,36.5,151.6L36.5,151.6z M28.9,143.5c2.6,2.4,4.8,4,6.4,4.9l0,0l-3.5-15.5
				c-16.1-20.1-19.6-37.6-19.6-49.7l0,0c0-8,1.5-13.9,1.8-16l0,0c-0.5,0.3-1.1,0.8-1.5,1.6l0,0c-0.2,0.4-0.7,0.6-1.1,0.5l0,0
				C10,71.2,8.8,74,8.8,76.2l0,0l-0.1,0.5c-1.5,2.8-1.9,6.6-1.9,10.6l0,0c0,5.6,0.9,11.9,0.9,17.2l0,0c0,0.2,0,0.4,0,0.6l0,0
				c0,0.6-0.4,1.1-1,1.1l0,0c-0.2,0-0.3,0-0.5,0l0,0c0,2.6,0,5.3,0,7.9l0,0c0,0.4-0.2,0.7-0.5,0.9l0,0c-0.2,0.2-0.6,0.3-0.9,0.2l0,0
				c1.5,3,5.5,5.3,7.4,8.9l0,0c1.2,2.5,2.6,6.1,3.3,8.7l0,0c0.1,0.4,0,0.7-0.2,1l0,0c-0.2,0.3-0.6,0.4-1,0.4l0,0c0,0-0.1,0-0.1,0
				l0,0c1.7,2.1,5,3.6,7,6.2l0,0c0.2,0.2,0.2,0.5,0.2,0.8l0,0c1.8,1.2,3.7,2,5.7,2l0,0c0.3,0,0.6,0,0.9,0l0,0c0,0,0.1,0,0.1,0l0,0
				C28.4,143.2,28.7,143.3,28.9,143.5L28.9,143.5z"/>
		</g>
		<g>
			<path class="st0" d="M83.5,105.6c0,0,3.2,8.8,1.7,25.7c-1.5,17,8.3,18.9,13.9,16.8l2.9-0.9c5.8-1.5,13-8.8,2.9-22.1
				C94.8,111.8,93,102.6,93,102.6"/>
			<path d="M87.5,146.6c-2.2-2.5-3.6-6.3-3.6-11.9l0,0c0-1.1,0-2.2,0.2-3.4l0,0c0.3-3.2,0.4-6,0.4-8.6l0,0c0-11.1-2-16.6-2-16.6l0,0
				c-0.2-0.6,0.1-1.2,0.7-1.4l0,0c0.6-0.2,1.2,0.1,1.4,0.7l0,0c0,0.1,2.2,6,2.2,17.4l0,0c0,2.6-0.1,5.6-0.4,8.8l0,0
				c-0.1,1.1-0.2,2.2-0.1,3.2l0,0c0.1,10.5,4.9,13,9.2,13.1l0,0c1.2,0,2.4-0.2,3.5-0.6l0,0l3-0.9c3.3-0.9,7.1-3.8,7.1-8.9l0,0
				c0-2.9-1.3-6.8-4.8-11.5l0,0c-10.2-13.5-12.1-22.8-12.1-23l0,0c-0.1-0.6,0.3-1.2,0.9-1.3l0,0c0.6-0.1,1.2,0.3,1.3,0.9l0,0
				c0,0,0.4,2.2,2.1,6l0,0c1.7,3.9,4.6,9.4,9.6,16l0,0c3.7,5,5.3,9.2,5.3,12.8l0,0c0,6.3-4.7,10-8.7,11l0,0l-2.9,0.9
				c-1.3,0.5-2.7,0.8-4.2,0.8l0,0c0,0,0,0,0,0l0,0C92.6,150,89.7,149,87.5,146.6L87.5,146.6z"/>
		</g>
		<path class="st1" d="M83.5,105.6c0,0,3.2,8.8,1.7,25.7c-1.5,17,8.3,18.9,13.9,16.8l2.9-0.9c5.8-1.5,13-8.8,2.9-22.1
			C94.8,111.8,93,102.6,93,102.6"/>
		<g>
			<path class="st2" d="M93,136.6c-0.8-2.2,0.8-4.9,3.7-6.1c2.8-1.2,5.8-0.4,6.6,1.7c0.8,2.2-0.8,4.9-3.7,6.1
				C96.8,139.5,93.8,138.7,93,136.6z"/>
			<path class="st2" d="M103.8,137.9c-0.3-0.9,0.2-1.9,1.2-2.3c1-0.4,2,0,2.4,0.9c0.3,0.9-0.2,1.9-1.2,2.3
				C105.2,139.1,104.1,138.8,103.8,137.9z"/>
			<path class="st2" d="M100.4,141.7c-0.3-0.9,0.2-1.9,1.2-2.3c1-0.4,2,0,2.4,0.9c0.3,0.9-0.2,1.9-1.2,2.3
				C101.8,142.9,100.8,142.5,100.4,141.7z"/>
			<path class="st2" d="M95.6,143.7c-0.3-0.9,0.2-1.9,1.2-2.3c1-0.4,2,0,2.4,0.8c0.3,0.9-0.2,1.9-1.2,2.3
				C97,145,95.9,144.6,95.6,143.7z"/>
			<path class="st2" d="M90.4,140.7c-0.3-0.9,0.2-1.9,1.2-2.3c1-0.4,2,0,2.4,0.9c0.3,0.9-0.2,1.9-1.2,2.3
				C91.8,141.9,90.7,141.6,90.4,140.7z"/>
		</g>
		<g>
			<g>
				<path class="st3" d="M93,136.6c-0.8-2.2,0.8-4.9,3.7-6.1c2.8-1.2,5.8-0.4,6.6,1.7c0.8,2.2-0.8,4.9-3.7,6.1
					C96.8,139.5,93.8,138.7,93,136.6z"/>
				<path class="st3" d="M103.8,137.9c-0.3-0.9,0.2-1.9,1.2-2.3c1-0.4,2,0,2.4,0.9c0.3,0.9-0.2,1.9-1.2,2.3
					C105.2,139.1,104.1,138.8,103.8,137.9z"/>
				<path class="st3" d="M100.4,141.7c-0.3-0.9,0.2-1.9,1.2-2.3c1-0.4,2,0,2.4,0.9c0.3,0.9-0.2,1.9-1.2,2.3
					C101.8,142.9,100.8,142.5,100.4,141.7z"/>
				<path class="st3" d="M95.6,143.7c-0.3-0.9,0.2-1.9,1.2-2.3c1-0.4,2,0,2.4,0.8c0.3,0.9-0.2,1.9-1.2,2.3
					C97,145,95.9,144.6,95.6,143.7z"/>
				<path class="st3" d="M90.4,140.7c-0.3-0.9,0.2-1.9,1.2-2.3c1-0.4,2,0,2.4,0.9c0.3,0.9-0.2,1.9-1.2,2.3
					C91.8,141.9,90.7,141.6,90.4,140.7z"/>
			</g>
		</g>
		<g>
			<g>
				<path class="st0" d="M91,150.9c-15.3,0-17.5,9.4-17.5,13.6c0,6.3,3.2,5.5,3.2,5.5h28.6c0,0,3.2,0.8,3.2-5.5
					C108.5,160.3,106.4,150.9,91,150.9z"/>
				<path d="M105.6,171.2c-0.2,0-0.3,0-0.4,0l0,0H76.8c-0.1,0-0.2,0-0.4,0l0,0c-0.6,0-1.8-0.2-2.6-1.3l0,0c-0.9-1.1-1.4-2.7-1.4-5.4
					l0,0c0-2.3,0.6-6,3.3-9.1l0,0c2.7-3.2,7.5-5.6,15.4-5.6l0,0v1.1v1.1c-14.8,0.1-16.3,8.6-16.4,12.5l0,0c0.2,4.8,1.5,4.3,1.8,4.5
					l0,0c0.1,0,0.1,0,0.1,0l0,0l0.2,0h28.6l0.2,0c0,0,0,0,0.1,0l0,0c0.3-0.1,1.6,0.4,1.8-4.5l0,0c-0.1-3.9-1.6-12.4-16.4-12.5l0,0
					v-1.1v-1.1c7.9,0,12.7,2.4,15.4,5.6l0,0c2.7,3.2,3.3,6.8,3.3,9.1l0,0c0,2.7-0.5,4.3-1.4,5.4l0,0
					C107.4,171,106.4,171.2,105.6,171.2L105.6,171.2C105.7,171.2,105.7,171.2,105.6,171.2L105.6,171.2z"/>
			</g>
			<path class="st1" d="M73.5,164.6c0,6.3,3.2,5.5,3.2,5.5h8.7c-1-0.2-2.5-1.1-2.5-5.5c0-3.8,1.7-11.6,12.8-13.3
				c-1.4-0.2-3-0.3-4.7-0.3C75.7,150.9,73.5,160.3,73.5,164.6z M105.3,170.1c0,0,0.3,0.1,0.7,0H105.3z"/>
			<path class="st1" d="M110.7,170.1c0,0,0.2,0,0.5,0H110.7z"/>
		</g>
		<g>
			<g>
				<path class="st0" d="M62,98.7c-12.6-3.8-20.6-9.5-20.6-9.5S30,106.3,30,130c0,23.7,20.9,36.5,37,36.5s34.3-14.5,35.5-31.5
					c1.1-17-12.9-38-12.9-38S82,101.5,62,98.7z"/>
				<path d="M28.9,130c0-24.1,11.5-41.3,11.6-41.4l0,0c0.2-0.3,0.4-0.4,0.7-0.5l0,0c0.3-0.1,0.6,0,0.8,0.2l0,0c0,0,7.8,5.5,20.2,9.3
					l0,0c4.7,0.7,8.7,0.9,12,0.9l0,0c5.4,0,9.1-0.7,11.4-1.3l0,0C88.1,96.6,89,96,89,96l0,0c0.5-0.3,1.2-0.2,1.5,0.3l0,0
					c0,0.1,13.1,19.5,13.2,36.7l0,0c0,0.7,0,1.4-0.1,2l0,0c-1.2,17.7-19.8,32.5-36.6,32.5l0,0C50.4,167.5,29,154.5,28.9,130
					L28.9,130z M31.2,130c0,23,20.3,35.3,35.9,35.3l0,0c15.5,0.1,33.4-14.2,34.3-30.4l0,0c0-0.6,0.1-1.3,0.1-1.9l0,0
					c0-8-3.2-16.9-6.4-23.8l0,0c-2.4-5.2-4.9-9.2-5.9-10.8l0,0c-1.9,0.8-6.5,2.3-14.8,2.3l0,0c-3.5,0-7.6-0.3-12.4-1l0,0l0.2-1.1
					l-0.3,1.1c-10.2-3.1-17.4-7.3-19.9-9l0,0C39.5,94.6,31.1,109.9,31.2,130L31.2,130z"/>
			</g>
			<g>
				<path class="st0" d="M58.1,140.7C50,124.3,62,98.7,62,98.7c-12.6-3.8-20.6-9.5-20.6-9.5S30,106.3,30,130
					c0,23.7,20.9,36.5,37,36.5c13,0,27.4-9.5,33-22C92.3,161.2,66.2,157.2,58.1,140.7z"/>
				<path d="M28.9,130c0-24.1,11.5-41.3,11.6-41.4l0,0c0.2-0.3,0.4-0.4,0.7-0.5l0,0c0.3-0.1,0.6,0,0.8,0.2l0,0c0,0,7.8,5.5,20.3,9.3
					l0,0c0.3,0.1,0.6,0.3,0.7,0.6l0,0c0.1,0.3,0.1,0.6,0,0.9l0,0c0,0-6.7,14.2-6.6,28l0,0c0,4.6,0.8,9.2,2.7,13.1l0,0l-1,0.5l-1,0.5
					c-2.1-4.3-2.9-9.2-2.9-14.1l0,0c0-12,4.7-24.1,6.3-27.8l0,0c-9.6-3-16.3-7-18.7-8.6l0,0c-2.3,3.9-10.7,19.1-10.6,39.2l0,0
					c0,23,20.3,35.3,35.9,35.3l0,0c8.6,0,18-4.4,24.8-11.1l0,0c-3,1.4-6.3,2.1-9.7,2.1l0,0c-9.8,0-20.3-5.5-25-15.1l0,0l1-0.5l1-0.5
					c4.3,8.7,14,13.8,23,13.8l0,0c7.2,0,13.7-3.1,16.9-10.1l0,0c0,0,0,0,0,0l0,0c0.1-0.1,0.1-0.2,0.2-0.3l0,0c0,0,0,0,0,0l0,0
					c0.1-0.1,0.2-0.2,0.4-0.2l0,0c0.3-0.1,0.6-0.1,0.8,0l0,0c0.1,0.1,0.2,0.1,0.3,0.2l0,0c0,0,0,0,0,0l0,0c0,0,0,0,0,0l0,0
					c0,0,0,0,0,0l0,0c0,0,0,0,0,0l0,0c0,0,0,0,0,0l0,0c0,0,0,0,0,0l0,0c0,0,0,0,0,0l0,0c0,0,0,0,0,0l0,0c0,0,0,0,0,0l0,0
					c0,0.1,0.1,0.1,0.1,0.2l0,0c0.1,0.2,0.1,0.5,0,0.7l0,0c0,0,0,0,0,0l0,0c0,0,0,0,0,0l0,0c0,0,0,0.1,0,0.1l0,0
					c-5.9,13-20.5,22.6-34.1,22.7l0,0C50.4,167.5,29,154.5,28.9,130L28.9,130z"/>
			</g>
			<path class="st1" d="M95.1,150.9c0.5-0.1,0.9-0.2,1.4-0.3c1.4-1.9,2.6-4,3.6-6.1C98.8,147.1,97.1,149.2,95.1,150.9z M38,126.2
				c0-14.9,4.5-27.2,7.9-34.3c-2.9-1.6-4.5-2.7-4.5-2.7S30,106.3,30,130c0,23.7,20.9,36.5,37,36.5c6.1,0,12.5-2.1,18.1-5.5
				c-3.3,1.1-6.8,1.8-10.1,1.8C58.9,162.7,38,149.9,38,126.2z"/>
			<path class="st1" d="M62,98.7c0,0-12,25.6-3.9,42.1c8.1,16.4,34.2,20.4,42,3.7c0,0,0,0,0-0.1C50.6,165.4,62,98.7,62,98.7z"/>
		</g>
		<g>
			<g>
				<path class="st0" d="M100,158.6c0,0,6,2.9,6,11.5"/>
				<path d="M104.9,170.1c0-4.1-1.4-6.7-2.7-8.3l0,0c-1.4-1.6-2.6-2.2-2.6-2.2l0,0v0c-0.6-0.3-0.8-0.9-0.5-1.5l0,0
					c0.3-0.6,0.9-0.8,1.5-0.5l0,0c0.2,0,6.6,3.3,6.6,12.5l0,0c0,0.6-0.5,1.1-1.1,1.1l0,0C105.4,171.2,104.9,170.7,104.9,170.1
					L104.9,170.1z"/>
			</g>
		</g>
		<g>
			<path class="st4" d="M57.8,148.8c-11.2-5.9-1.7-13.2-8-19.9c-2.8-3-4.5-3.3-5.6-7c-0.7-2.4,1.6-4.2-2.2-5.7
				c-3.3,3.1-6.6,1.7-10.4,3.8c-0.3,0.2-0.6,0.4-0.9,0.7c-0.4,3-0.6,6-0.6,9.3c0,12.3,5.6,21.6,13.3,27.8c3.4,2.2,7.2,4,11.2,5.4
				c1.8-0.1,3.5-0.2,5.2-0.2C78.4,163,64.7,152.5,57.8,148.8z"/>
			<path d="M54.2,164.2c-4.1-1.4-8-3.3-11.5-5.6l0,0c-7.9-6.3-13.7-16-13.7-28.6l0,0c0-3.3,0.2-6.4,0.6-9.4l0,0
				c0-0.3,0.2-0.6,0.4-0.8l0,0c0.3-0.2,0.6-0.5,1.1-0.7l0,0c4.5-2.4,7.5-1,10.2-3.7l0,0c0.3-0.3,0.8-0.4,1.2-0.2l0,0
				c2,0.7,3,2.1,2.9,3.5l0,0c0,0.9-0.2,1.6-0.2,2.2l0,0c0,0.3,0,0.5,0.1,0.8l0,0c1,3.4,2.3,3.4,5.4,6.6l0,0c2.2,2.3,2.7,4.8,2.7,7.1
				l0,0c0,1.8-0.3,3.5-0.3,5l0,0c0.1,2.8,0.6,5,5.2,7.5l0,0l0,0c4.5,2.5,11.7,7,12,11.7l0,0c0,1.5-1.1,2.8-2.8,3.5l0,0
				c-1.7,0.7-4.1,1-7.6,1.1l0,0c0,0,0,0-0.1,0l0,0l-0.1,0v0c-1.7,0-3.4,0.1-5.1,0.2l0,0L54.2,164.2L54.2,164.2z M31.2,130
				c0,12,5.4,20.9,12.8,26.8l0,0c3.3,2.1,6.9,3.8,10.7,5.2l0,0c1.7-0.1,3.3-0.2,5-0.2l0,0c0,0,0,0,0,0l0,0c0,0,0.1,0,0.1,0l0,0
				c0,0,0,0,0.1,0l0,0c3.3,0,5.5-0.4,6.8-0.9l0,0c1.2-0.6,1.4-1,1.4-1.4l0,0c0.3-2.1-6.6-7.6-10.8-9.7l0,0l0.5-1l-0.5,1
				c-5.2-2.7-6.5-6.3-6.4-9.5l0,0c0-1.8,0.3-3.4,0.3-5l0,0c0-2-0.4-3.7-2.1-5.6l0,0c-2.5-2.7-4.7-3.3-5.9-7.5l0,0
				c-0.1-0.5-0.2-0.9-0.2-1.4l0,0c0-1,0.2-1.8,0.2-2.2l0,0c-0.1-0.4,0.1-0.6-1-1.1l0,0c-3.6,2.8-6.9,1.6-10.1,3.5l0,0
				c-0.1,0.1-0.3,0.2-0.4,0.3l0,0C31.3,124.1,31.2,127,31.2,130L31.2,130z"/>
		</g>
		<g>
			<g>
				<path class="st0" d="M53.5,150.9c-15.3,0-17.5,9.4-17.5,13.6c0,6.3,3.2,5.5,3.2,5.5h28.6c0,0,3.2,0.8,3.2-5.5
					C71,160.3,68.8,150.9,53.5,150.9z"/>
				<path d="M68.1,171.2c-0.2,0-0.3,0-0.4,0l0,0H39.3c-0.1,0-0.2,0-0.4,0l0,0c-0.6,0-1.8-0.2-2.6-1.3l0,0c-0.9-1.1-1.4-2.7-1.4-5.4
					l0,0c0-2.3,0.6-6,3.3-9.1l0,0c2.7-3.2,7.5-5.6,15.4-5.6l0,0v1.1v1.1c-14.8,0.1-16.3,8.6-16.4,12.5l0,0c0.2,4.8,1.5,4.3,1.8,4.5
					l0,0c0.1,0,0.1,0,0.1,0l0,0l0.2,0h28.6l0.2,0c0,0,0,0,0.1,0l0,0c0.3-0.1,1.6,0.4,1.8-4.5l0,0c-0.1-3.9-1.6-12.4-16.4-12.5l0,0
					v-1.1v-1.1c7.9,0,12.7,2.4,15.4,5.6l0,0c2.7,3.2,3.3,6.8,3.3,9.1l0,0c0,2.7-0.5,4.3-1.4,5.4l0,0C69.9,171,68.8,171.2,68.1,171.2
					L68.1,171.2C68.1,171.2,68.1,171.2,68.1,171.2L68.1,171.2z"/>
			</g>
			<path class="st1" d="M35.9,164.6c0,6.3,3.2,5.5,3.2,5.5h5.7c-1-0.2-2.5-1.1-2.5-5.5c0-4,1.9-12.3,14.3-13.5
				c-1-0.1-2.1-0.2-3.2-0.2C38.1,150.9,35.9,160.3,35.9,164.6z M67.8,170.1c0,0,0.3,0.1,0.7,0H67.8z"/>
			<path class="st1" d="M73.2,170.1c0,0,0.2,0,0.5,0H73.2z"/>
		</g>
		<g>
			<g>
				<path class="st0" d="M52.3,159.4c0,0,4.4,3.1,4.4,10.7"/>
				<path d="M55.5,170.1c0-3.6-1-6-2-7.6l0,0c-1-1.6-1.9-2.2-1.9-2.2l0,0v0c-0.5-0.4-0.6-1.1-0.3-1.6l0,0c0.4-0.5,1-0.6,1.5-0.3l0,0
					c0.2,0.1,4.8,3.6,4.8,11.6l0,0c0,0.6-0.5,1.1-1.1,1.1l0,0C56,171.2,55.5,170.7,55.5,170.1L55.5,170.1z"/>
			</g>
			<g>
				<path class="st0" d="M61.8,158.6c0,0,6,2.9,6,11.5"/>
				<path d="M66.7,170.1c0-4.1-1.4-6.7-2.7-8.3l0,0c-1.4-1.6-2.6-2.2-2.6-2.2l0,0v0c-0.6-0.3-0.8-0.9-0.5-1.5l0,0
					c0.3-0.6,0.9-0.8,1.5-0.5l0,0c0.2,0,6.6,3.3,6.6,12.5l0,0c0,0.6-0.5,1.1-1.1,1.1l0,0C67.2,171.2,66.7,170.7,66.7,170.1
					L66.7,170.1z"/>
			</g>
		</g>
		<g>
			<g>
				<path class="st0" d="M57.2,111.3c0,0-3.2,8.8-1.7,25.7c1.5,17-8.3,18.9-13.9,16.8l-2.9-0.9c-5.8-1.5-13-8.8-2.9-22.1
					c10.1-13.3,11.9-22.5,11.9-22.5"/>
				<path d="M45.3,155.7c-1.5,0-2.9-0.3-4.1-0.7l0,0l-2.8-0.9c-4-1-8.8-4.7-8.8-11l0,0c0-3.6,1.5-7.9,5.3-12.8l0,0
					c5-6.6,7.9-12.1,9.6-16l0,0c1.7-3.9,2.1-6,2.1-6l0,0c0.1-0.6,0.7-1,1.3-0.9l0,0c0.6,0.1,1,0.7,0.9,1.3l0,0c0,0.1-2,9.5-12.1,23
					l0,0c-3.6,4.7-4.8,8.5-4.8,11.5l0,0c0,5.1,3.8,8,7.2,8.9l0,0l3,0.9c1,0.4,2.2,0.6,3.4,0.6l0,0c4.3-0.1,9-2.6,9.2-13.1l0,0
					c0-1,0-2.1-0.1-3.2l0,0c-0.3-3.2-0.4-6.2-0.4-8.8l0,0c0-11.4,2.1-17.3,2.2-17.4l0,0c0.2-0.6,0.8-0.9,1.4-0.7l0,0
					c0.6,0.2,0.9,0.8,0.7,1.4l0,0c0,0-2,5.5-2,16.6l0,0c0,2.6,0.1,5.4,0.4,8.6l0,0c0.1,1.2,0.2,2.3,0.2,3.4l0,0
					c0,5.6-1.4,9.5-3.6,11.9l0,0C50.9,154.7,48,155.7,45.3,155.7L45.3,155.7C45.4,155.7,45.4,155.7,45.3,155.7L45.3,155.7z"/>
			</g>
			<path class="st1" d="M48.5,148.7l-3.3-1.1c-6.6-1.7-14.8-10.1-3.3-25.3c3.7-4.9,3.8-10.2,5.8-14l0,0c0,0-1.9,9.2-11.9,22.5
				c-10.1,13.3-2.9,20.6,2.9,22.1l2.9,0.9c3.7,1.4,9.3,1,12.2-4.5C51.9,149.5,50,149.2,48.5,148.7z"/>
		</g>
		<g>
			<g>
				<path class="st4" d="M70.3,16.7c0,0,8-3.6,12.4-8c4.5-4.4,23.7-8,21.1,19c-2.6,27,6.5,31.2-0.6,30.1
					C96,56.6,75.8,26.9,67.6,29.1"/>
				<path d="M103,58.8c-4.3-0.9-10.4-8.1-17.3-15.1l0,0c-6.6-7.1-13.8-13.8-17.2-13.6l0,0c-0.2,0-0.5,0-0.6,0.1l0,0
					c-0.6,0.2-1.2-0.2-1.4-0.7l0,0c-0.2-0.6,0.2-1.2,0.7-1.4l0,0c0.4-0.1,0.9-0.2,1.3-0.2l0,0c5.3,0.2,12,7.3,18.8,14.3l0,0
					c6.6,7.1,13.5,14.3,16,14.5l0,0c0.6,0.1,1.1,0.2,1.4,0.2l0,0c0,0,0.1,0,0.1,0l0,0c-0.1-1.6-2.7-7.7-2.6-19.6l0,0
					c0-2.8,0.1-6,0.5-9.6l0,0c0.2-1.7,0.2-3.2,0.2-4.6l0,0C102.8,9.9,97,6.9,91.5,6.8l0,0c-3.4,0-6.8,1.4-8,2.7l0,0
					c-4.7,4.6-12.7,8.1-12.8,8.2l0,0v0c-0.6,0.2-1.2,0-1.5-0.6l0,0c-0.3-0.6,0-1.2,0.6-1.5l0,0c0,0,7.9-3.6,12.1-7.7l0,0
					c1.9-1.8,5.6-3.3,9.6-3.4l0,0c3.2,0,6.7,1,9.3,4l0,0c2.6,2.9,4.3,7.5,4.3,14.4l0,0c0,1.5-0.1,3.1-0.2,4.8l0,0
					c-0.3,3.5-0.5,6.6-0.5,9.4l0,0c0,12.2,2.6,17.1,2.6,19.7l0,0c0,0.5-0.1,1.2-0.7,1.6l0,0c-0.5,0.4-1.1,0.5-1.6,0.5l0,0
					C104.2,59,103.7,59,103,58.8L103,58.8z"/>
			</g>
			<path class="st1" d="M70.3,16.7c0,0,8-3.6,12.4-8c4.5-4.4,23.7-8,21.1,19c-2.6,27,6.5,31.2-0.6,30.1C96,56.6,75.8,26.9,67.6,29.1
				"/>
			<g>
				<path class="st0" d="M103.8,56.3c0,0,2.4-13.5-1.9-21.8c-2.3-4.5-9-12.2-19.6-16.3c-0.4-4.4-3.7-6.7-3.7-3.9
					c0,0.8-0.4,1.7-0.9,2.5c-1-0.3-2.1-0.5-3.2-0.7c0,0,0,0,0,0c1.8-5.9-5.3-16.3-3.8-10.6c0.8,3.1-0.1,7.6-1.1,10.1
					c-0.6,0-1.2-0.1-1.7-0.1c0,0,0,0,0,0c0-6.4-9.2-13.8-6.6-10c2.5,3.7,0.5,10.3,0.5,10.3l0,0c-4.6,0.5-9.7,1.7-15.1,3.7
					c0,0-20,10.1-21.7,30.7c-1.8,20.6,8.2,47.6,43.8,48.6c35.5,1.1,38.9-1.3,42.5-8.4c0,0,8.9,0.3,9.6-10.8
					C121.6,68.7,103.8,56.3,103.8,56.3z"/>
				<path d="M68.8,100c-33.6-0.9-45.1-25-45-45.2l0,0c0-1.6,0.1-3.1,0.2-4.6l0,0c1.9-21.3,22.3-31.5,22.5-31.6l0,0
					c5.2-2,10-3.2,14.5-3.7l0,0c0.2-0.9,0.5-2.5,0.5-4.2l0,0c0-1.6-0.3-3.3-1.1-4.4l0,0c-0.3-0.6-0.6-0.8-0.6-1.5l0,0
					c0-0.2,0.1-0.6,0.4-0.9l0,0c0.3-0.3,0.7-0.3,0.8-0.3l0,0c1.1,0.1,1.4,0.6,2.2,1.3l0,0c0.7,0.7,1.6,1.6,2.5,2.7l0,0
					c1.5,1.9,2.9,4.3,3.3,6.9l0,0c0.5-1.7,1-4,1-6.1l0,0c0-0.9-0.1-1.7-0.3-2.4l0,0c-0.2-0.6-0.2-1.1-0.2-1.5l0,0
					c0-0.3,0.1-1.5,1.3-1.6l0,0C72,3,72.1,3.5,72.7,4.2l0,0c0.5,0.7,1,1.6,1.5,2.6l0,0c1,2.1,1.8,4.7,1.8,7.3l0,0
					c0,0.4,0,0.8-0.1,1.3l0,0c0.4,0.1,0.9,0.2,1.3,0.3l0,0c0.2-0.4,0.3-0.9,0.3-1.2l0,0c0-1,0.5-2.3,1.8-2.3l0,0
					c2.1,0.3,3.4,2.4,3.9,5.5l0,0c10.6,4.3,17.2,11.9,19.6,16.5l0,0c2.2,4.2,2.7,9.5,2.7,13.8l0,0c0,3.6-0.4,6.7-0.6,8l0,0
					c3,2.2,16.8,12.6,17,23.2l0,0c0,0.2,0,0.5,0,0.7l0,0c-0.6,9.9-7.7,11.6-10,11.8l0,0c-1.5,2.8-3.3,5.2-7.3,6.5l0,0
					c-4.2,1.5-10.7,2.1-22.1,2.1l0,0C78.6,100.2,74.1,100.1,68.8,100L68.8,100z M63,15.9c-0.1,0.5-0.5,0.9-1,1l0,0
					c-4.5,0.5-9.5,1.6-14.7,3.6l0,0c0,0-4.8,2.4-9.9,7.4l0,0c-5.1,5-10.4,12.4-11.2,22.4l0,0c-0.1,1.4-0.2,2.9-0.2,4.4l0,0
					c0.1,19.5,10.5,42,42.9,43l0,0c5.3,0.2,9.9,0.2,13.8,0.2l0,0c11.3,0,17.6-0.7,21.3-2l0,0c3.7-1.4,4.8-3.1,6.4-6l0,0
					c0.2-0.3,0.5-0.5,0.8-0.6l0,0c0,0,0.1,0,0.2,0l0,0c0.6-0.1,7.8,0,8.4-9.7l0,0c0-0.2,0-0.4,0-0.6l0,0c0-4.8-4-10.4-8.2-14.7l0,0
					c-4.2-4.3-8.4-7.2-8.4-7.2l0,0l0.6-0.9l1.1,0.2l-1.1-0.2l-0.6,0.9c-0.4-0.2-0.5-0.7-0.5-1.1l0,0c0,0,0.6-3.6,0.6-8.3l0,0
					c0-4.2-0.5-9.2-2.5-12.8l0,0c-2.2-4.2-8.7-11.8-19.1-15.7l0,0c-0.4-0.2-0.7-0.5-0.7-0.9l0,0c-0.1-1.8-0.9-3.2-1.4-3.8l0,0
					c-0.1,1-0.5,2-1,2.8l0,0c-0.3,0.4-0.7,0.6-1.2,0.5l0,0c-1-0.3-2-0.5-3.1-0.7l0,0c-0.3-0.1-0.6-0.3-0.8-0.6l0,0
					c-0.1-0.3-0.2-0.6-0.1-0.8l0,0c0.2-0.5,0.2-1.2,0.2-1.8l0,0c0-1.9-0.7-4.2-1.5-6l0,0c-0.1-0.1-0.1-0.3-0.2-0.4l0,0
					c0,0.2,0,0.4,0,0.6l0,0c0,2.8-0.7,5.8-1.4,7.8l0,0c-0.2,0.5-0.6,0.7-1.1,0.7l0,0c-0.6,0-1.1-0.1-1.7-0.1l0,0
					c-0.6,0-1.1-0.5-1.1-1.1l0,0v0c0.1-2.4-1.6-5.2-3.3-7.3l0,0c0.1,0.8,0.2,1.6,0.2,2.3l0,0c0,2.4-0.5,4.5-0.7,5.3l0,0
					C63,15.9,63,15.9,63,15.9L63,15.9z"/>
			</g>
			<path d="M68.8,100c-33.6-0.9-45.1-25-45-45.2l0,0c0-1.6,0.1-3.1,0.2-4.6l0,0c1.9-21.3,22.3-31.5,22.5-31.6l0,0
				c5.2-2,10-3.2,14.5-3.7l0,0c0.2-0.9,0.5-2.5,0.5-4.2l0,0c0-1.6-0.3-3.3-1.1-4.4l0,0c-0.3-0.6-0.6-0.8-0.6-1.5l0,0
				c0-0.2,0.1-0.6,0.4-0.9l0,0c0.3-0.3,0.7-0.3,0.8-0.3l0,0c1.1,0.1,1.4,0.6,2.2,1.3l0,0c0.7,0.7,1.6,1.6,2.5,2.7l0,0
				c1.5,1.9,2.9,4.3,3.3,6.9l0,0c0.5-1.7,1-4,1-6.1l0,0c0-0.9-0.1-1.7-0.3-2.4l0,0c-0.2-0.6-0.2-1.1-0.2-1.5l0,0
				c0-0.3,0.1-1.5,1.3-1.6l0,0C72,3,72.1,3.5,72.7,4.2l0,0c0.5,0.7,1,1.6,1.5,2.6l0,0c1,2.1,1.8,4.7,1.8,7.3l0,0
				c0,0.4,0,0.8-0.1,1.3l0,0c0.4,0.1,0.9,0.2,1.3,0.3l0,0c0.2-0.4,0.3-0.9,0.3-1.2l0,0c0-1,0.5-2.3,1.8-2.3l0,0
				c2.1,0.3,3.4,2.4,3.9,5.5l0,0c10.6,4.3,17.2,11.9,19.6,16.5l0,0c2.2,4.2,2.7,9.5,2.7,13.8l0,0c0,3.6-0.4,6.7-0.6,8l0,0
				c3,2.2,16.8,12.6,17,23.2l0,0c0,0.2,0,0.5,0,0.7l0,0c-0.6,9.9-7.7,11.6-10,11.8l0,0c-1.5,2.8-3.3,5.2-7.3,6.5l0,0
				c-4.2,1.5-10.7,2.1-22.1,2.1l0,0C78.6,100.2,74.1,100.1,68.8,100L68.8,100z M63,15.9c-0.1,0.5-0.5,0.9-1,1l0,0
				c-4.5,0.5-9.5,1.6-14.7,3.6l0,0c0,0-4.8,2.4-9.9,7.4l0,0c-5.1,5-10.4,12.4-11.2,22.4l0,0c-0.1,1.4-0.2,2.9-0.2,4.4l0,0
				c0.1,19.5,10.5,42,42.9,43l0,0c5.3,0.2,9.9,0.2,13.8,0.2l0,0c11.3,0,17.6-0.7,21.3-2l0,0c3.7-1.4,4.8-3.1,6.4-6l0,0
				c0.2-0.3,0.5-0.5,0.8-0.6l0,0c0,0,0.1,0,0.2,0l0,0c0.6-0.1,7.8,0,8.4-9.7l0,0c0-0.2,0-0.4,0-0.6l0,0c0-4.8-4-10.4-8.2-14.7l0,0
				c-4.2-4.3-8.4-7.2-8.4-7.2l0,0l0.6-0.9l1.1,0.2l-1.1-0.2l-0.6,0.9c-0.4-0.2-0.5-0.7-0.5-1.1l0,0c0,0,0.6-3.6,0.6-8.3l0,0
				c0-4.2-0.5-9.2-2.5-12.8l0,0c-2.2-4.2-8.7-11.8-19.1-15.7l0,0c-0.4-0.2-0.7-0.5-0.7-0.9l0,0c-0.1-1.8-0.9-3.2-1.4-3.8l0,0
				c-0.1,1-0.5,2-1,2.8l0,0c-0.3,0.4-0.7,0.6-1.2,0.5l0,0c-1-0.3-2-0.5-3.1-0.7l0,0c-0.3-0.1-0.6-0.3-0.8-0.6l0,0
				c-0.1-0.3-0.2-0.6-0.1-0.8l0,0c0.2-0.5,0.2-1.2,0.2-1.8l0,0c0-1.9-0.7-4.2-1.5-6l0,0c-0.1-0.1-0.1-0.3-0.2-0.4l0,0
				c0,0.2,0,0.4,0,0.6l0,0c0,2.8-0.7,5.8-1.4,7.8l0,0c-0.2,0.5-0.6,0.7-1.1,0.7l0,0c-0.6,0-1.1-0.1-1.7-0.1l0,0
				c-0.6,0-1.1-0.5-1.1-1.1l0,0v0c0.1-2.4-1.6-5.2-3.3-7.3l0,0c0.1,0.8,0.2,1.6,0.2,2.3l0,0c0,2.4-0.5,4.5-0.7,5.3l0,0
				C63,15.9,63,15.9,63,15.9L63,15.9z"/>
			<path class="st4" d="M101.9,34.5c-2.1-4.1-7.8-10.6-16.7-14.9c0,0,0.1,0,0.1,0c-1-0.5-2-0.9-3-1.3c-0.4-4.4-3.7-6.7-3.7-3.9
				c0,0.8-0.4,1.7-0.9,2.5c-0.2-0.1-0.4-0.1-0.6-0.1c-0.1,0-0.2-0.1-0.4-0.1c0,0,0,0,0,0c-0.7-0.2-1.4-0.3-2.2-0.5c0,0,0,0,0,0
				c1.8-5.9-5.3-16.3-3.8-10.6c0.8,3.1-0.1,7.6-1.1,10.1c-0.6,0-1.2-0.1-1.7-0.1v0c0-6.4-9.2-13.8-6.6-10c2.5,3.7,0.5,10.3,0.5,10.3
				l0,0c-0.6,0.1-1.3,0.2-1.9,0.3c-0.3,0-0.7,0.1-1,0.1c0,0-0.1,0-0.1,0c0,0,0,0,0,0c-3.8,0.6-7.8,1.7-12,3.3c0,0-20,10.1-21.7,30.7
				c-0.5,5.5-0.1,11.4,1.4,17.2C39.5,77,72.7,68.9,78,53.6c3.5-10-3.1-12-6.2-19.8c-1.1-2.7-3-11.8-3.2-14.7
				c0.3-0.8,0.5-1.6,0.4-2.6c1.3,1.6,2.6,3.5,3.1,5.6c-0.2-0.9-0.1-2-0.2-2.9c0.3,0.6,1.4,1.3,1.8,2.1c0.6-1.2,1.2-2.4,1.9-3.6
				c0,0,0.2,0.4,0.3,0.4c0,0,0-0.2,0-0.3c0.1,1.1,0.5,2.3,0.6,3.4c0-0.1,0.1-0.2,0.2-0.2c0.3,1.2,3.8,7.6,4.5,8.2
				c0.2-0.4-2.7-6.7-2.5-7.1c0.3-0.2,0.5,0.5,0.6,0.3c0.2-0.2,0.3-0.4,0.3-0.5c0.4,0.7,3.7,7.3,4,8c5.6,9.7-0.8,25.5,13.2,27
				c2.1,0.2,4.6-1.3,7-1.3C104.4,52.4,105.6,41.6,101.9,34.5z"/>
			<g>
				<path class="st0" d="M111.3,90.5c0,0-28.8,13.9-49.6-11.4"/>
				<path d="M60.8,79.7c-0.4-0.5-0.3-1.2,0.2-1.6l0,0c0.5-0.4,1.2-0.3,1.6,0.1l0,0c9.7,11.8,21.1,14.8,30.4,14.8l0,0
					c10.2,0,17.9-3.7,17.9-3.7l0,0c0.6-0.3,1.2,0,1.5,0.5l0,0c0.3,0.6,0,1.2-0.5,1.5l0,0c-0.1,0-8.1,3.9-18.9,3.9l0,0
					c0,0-0.1,0-0.1,0l0,0C83,95.4,70.9,92,60.8,79.7L60.8,79.7z"/>
			</g>
			<path class="st1" d="M101.3,65.3c-5.3,0-8,4.6-4.8,8.2c-1.2,4.7,0.4,7.7,5.4,8.1c-0.1,0.7-1,1.9-0.6,2.6c7.2,2,18.3,6.4,19.9-5.3
				c1.1-7.6-7.3-13.1-14.6-13.6"/>
			<path class="st5" d="M101.3,61.2c-0.8,0.5-0.8,1.5,0.1,1.7c0.3,0.8,0.8,1.1,1.6,0.7c0.1,0.1,0,0.4,0.2,0.5
				c1.3-0.4,3.3-0.8,2.5-2.7c-0.6-1.2-2.4-1.3-3.5-0.6"/>
			<path d="M115.1,64.7c0,0-18.8-3.1-17.2,6.3c1.6,9.4,8.3,14.1,16.2,14.1C121.9,85,136.8,63.4,115.1,64.7z"/>
			<path d="M68.8,100c-33.6-0.9-45.1-25-45-45.2l0,0c0-1.6,0.1-3.1,0.2-4.6l0,0c1.9-21.3,22.3-31.5,22.5-31.6l0,0
				c5.2-2,10-3.2,14.5-3.7l0,0c0.2-0.9,0.5-2.5,0.5-4.2l0,0c0-1.6-0.3-3.3-1.1-4.4l0,0c-0.3-0.6-0.6-0.8-0.6-1.5l0,0
				c0-0.2,0.1-0.6,0.4-0.9l0,0c0.3-0.3,0.7-0.3,0.8-0.3l0,0c1.1,0.1,1.4,0.6,2.2,1.3l0,0c0.7,0.7,1.6,1.6,2.5,2.7l0,0
				c1.5,1.9,2.9,4.3,3.3,6.9l0,0c0.5-1.7,1-4,1-6.1l0,0c0-0.9-0.1-1.7-0.3-2.4l0,0c-0.2-0.6-0.2-1.1-0.2-1.5l0,0
				c0-0.3,0.1-1.5,1.3-1.6l0,0C72,3,72.1,3.5,72.7,4.2l0,0c0.5,0.7,1,1.6,1.5,2.6l0,0c1,2.1,1.8,4.7,1.8,7.3l0,0
				c0,0.4,0,0.8-0.1,1.3l0,0c0.4,0.1,0.9,0.2,1.3,0.3l0,0c0.2-0.4,0.3-0.9,0.3-1.2l0,0c0-1,0.5-2.3,1.8-2.3l0,0
				c2.1,0.3,3.4,2.4,3.9,5.5l0,0c10.6,4.3,17.2,11.9,19.6,16.5l0,0c2.2,4.2,2.7,9.5,2.7,13.8l0,0c0,3.6-0.4,6.7-0.6,8l0,0
				c3,2.2,16.8,12.6,17,23.2l0,0c0,0.2,0,0.5,0,0.7l0,0c-0.6,9.9-7.7,11.6-10,11.8l0,0c-1.5,2.8-3.3,5.2-7.3,6.5l0,0
				c-4.2,1.5-10.7,2.1-22.1,2.1l0,0C78.6,100.2,74.1,100.1,68.8,100L68.8,100z M63,15.9c-0.1,0.5-0.5,0.9-1,1l0,0
				c-4.5,0.5-9.5,1.6-14.7,3.6l0,0c0,0-4.8,2.4-9.9,7.4l0,0c-5.1,5-10.4,12.4-11.2,22.4l0,0c-0.1,1.4-0.2,2.9-0.2,4.4l0,0
				c0.1,19.5,10.5,42,42.9,43l0,0c5.3,0.2,9.9,0.2,13.8,0.2l0,0c11.3,0,17.6-0.7,21.3-2l0,0c3.7-1.4,4.8-3.1,6.4-6l0,0
				c0.2-0.3,0.5-0.5,0.8-0.6l0,0c0,0,0.1,0,0.2,0l0,0c0.6-0.1,7.8,0,8.4-9.7l0,0c0-0.2,0-0.4,0-0.6l0,0c0-4.8-4-10.4-8.2-14.7l0,0
				c-4.2-4.3-8.4-7.2-8.4-7.2l0,0l0.6-0.9l1.1,0.2l-1.1-0.2l-0.6,0.9c-0.4-0.2-0.5-0.7-0.5-1.1l0,0c0,0,0.6-3.6,0.6-8.3l0,0
				c0-4.2-0.5-9.2-2.5-12.8l0,0c-2.2-4.2-8.7-11.8-19.1-15.7l0,0c-0.4-0.2-0.7-0.5-0.7-0.9l0,0c-0.1-1.8-0.9-3.2-1.4-3.8l0,0
				c-0.1,1-0.5,2-1,2.8l0,0c-0.3,0.4-0.7,0.6-1.2,0.5l0,0c-1-0.3-2-0.5-3.1-0.7l0,0c-0.3-0.1-0.6-0.3-0.8-0.6l0,0
				c-0.1-0.3-0.2-0.6-0.1-0.8l0,0c0.2-0.5,0.2-1.2,0.2-1.8l0,0c0-1.9-0.7-4.2-1.5-6l0,0c-0.1-0.1-0.1-0.3-0.2-0.4l0,0
				c0,0.2,0,0.4,0,0.6l0,0c0,2.8-0.7,5.8-1.4,7.8l0,0c-0.2,0.5-0.6,0.7-1.1,0.7l0,0c-0.6,0-1.1-0.1-1.7-0.1l0,0
				c-0.6,0-1.1-0.5-1.1-1.1l0,0v0c0.1-2.4-1.6-5.2-3.3-7.3l0,0c0.1,0.8,0.2,1.6,0.2,2.3l0,0c0,2.4-0.5,4.5-0.7,5.3l0,0
				C63,15.9,63,15.9,63,15.9L63,15.9z"/>
			<path class="st0" d="M119.8,67.5c0,0-7-1.2-6.4,2.3c0.6,3.5,3.1,5.2,6,5.2C122.3,75.1,127.8,67.1,119.8,67.5z"/>
			<path class="st1" d="M78.4,99c-37.3-1.1-47.7-29.2-45.9-50.7C34,30.8,48.1,20.6,53.4,17.4c-2.1,0.6-4.3,1.3-6.6,2.1
				c0,0-20,10.1-21.7,30.7c-1.8,20.6,8.2,47.6,43.8,48.6c5.1,0.2,9.5,0.2,13.4,0.2C80.9,99.1,79.7,99,78.4,99z"/>
			<g>
				<path class="st4" d="M51.8,20c0,0-8-3.6-12.4-8c-4.5-4.4-23.7-8-21.1,19c2.6,27-6.5,31.2,0.6,30.1c7.1-1.2,27.4-30.9,35.6-28.7"
					/>
				<path d="M15.6,61.8c-0.5-0.4-0.7-1.1-0.7-1.6l0,0c0.1-2.6,2.6-7.6,2.7-19.7l0,0c0-2.8-0.1-5.9-0.5-9.4l0,0
					c-0.2-1.7-0.2-3.3-0.2-4.9l0,0c0-6.9,1.7-11.5,4.3-14.4l0,0c2.6-2.9,6.1-4,9.3-4l0,0c4,0,7.7,1.5,9.6,3.4l0,0
					c4.3,4.2,12.1,7.8,12.1,7.8l0,0c0.6,0.2,0.8,0.9,0.6,1.5l0,0c-0.3,0.6-0.9,0.8-1.5,0.6l0,0c0,0-8-3.6-12.8-8.2l0,0
					c-1.3-1.3-4.6-2.8-8-2.7l0,0c-5.5,0.1-11.3,3.1-11.4,16.2l0,0c0,1.4,0.1,3,0.2,4.6l0,0c0.3,3.6,0.5,6.8,0.5,9.6l0,0
					c0,11.9-2.6,18-2.7,19.6l0,0c0,0,0,0,0.1,0l0,0c0.3,0,0.8,0,1.4-0.1l0,0c2.5-0.2,9.4-7.4,16-14.5l0,0c6.8-7,13.4-14.1,18.8-14.3
					l0,0c0.4,0,0.8,0,1.3,0.2l0,0c0.6,0.2,0.9,0.8,0.7,1.4l0,0c-0.2,0.6-0.8,0.9-1.4,0.7l0,0c-0.2-0.1-0.4-0.1-0.6-0.1l0,0
					c-3.3-0.2-10.6,6.6-17.2,13.6l0,0C29.5,54,23.4,61.2,19,62.1l0,0c-0.7,0.1-1.3,0.2-1.8,0.2l0,0C16.7,62.3,16.2,62.3,15.6,61.8
					L15.6,61.8z"/>
			</g>
			<path d="M104.2,46.7c0-3.2-2.5-5.9-5.7-6.3c-1-0.1-2,0.1-2.9,0.3c-2.6,0.9-4.4,3.2-4.4,6c0,3.5,2.9,6.3,6.5,6.3
				c0.2,0,0.3,0,0.5,0c0.7-0.1,1.4-0.3,2.1-0.5C102.6,51.5,104.2,49.2,104.2,46.7z"/>
			<ellipse class="st0" cx="98.9" cy="45.4" rx="3.7" ry="2.6"/>
			<path d="M73.5,46.7c0-3.8-3-7-6.8-7.4c-1.2-0.1-2.3,0.1-3.4,0.3c-3,1-5.2,3.8-5.2,7.1c0,4.1,3.4,7.5,7.7,7.5c0.2,0,0.4,0,0.6,0
				c0.9-0.1,1.7-0.3,2.5-0.6C71.6,52.3,73.5,49.7,73.5,46.7z"/>
			<ellipse class="st0" cx="67.2" cy="45.2" rx="4.4" ry="3"/>
		</g>
	</g>
</g>
<g id="Layer_2" class="st6">
	<g class="st7">
		<g>
			<g>
				<path class="st0" d="M76.5,111.8c0,0,6.4,6.8,11.8,22.9c5.3,16.2,15.1,14.1,19.4,9.9l2.3-2c4.7-3.6,8.4-13.2-6.1-21.4
					c-14.5-8.3-19.9-16-19.9-16"/>
				<path d="M87.1,135.1c-2.6-8-5.5-13.7-7.8-17.3l0,0c-2.2-3.6-3.7-5.2-3.7-5.2l0,0c-0.4-0.4-0.4-1.1,0-1.6l0,0
					c0.4-0.4,1.1-0.4,1.6,0l0,0c0.1,0.1,6.6,7,12,23.4l0,0c3.2,9.6,7.6,12.1,11.3,12.1l0,0c2.4,0,4.7-1.2,6.3-2.7l0,0l2.4-2
					c2-1.5,3.8-4.3,3.8-7.4l0,0c0-3.5-2.2-7.9-9.7-12.2l0,0c-14.7-8.3-20.1-16.2-20.2-16.3l0,0c-0.4-0.5-0.2-1.2,0.3-1.5l0,0
					c0.5-0.3,1.2-0.2,1.5,0.3l0,0c0,0,1.3,1.8,4.3,4.7l0,0c3.1,2.9,8,6.8,15.2,10.9l0,0c7.9,4.5,10.8,9.6,10.8,14.2l0,0
					c0,4-2.2,7.3-4.6,9.1l0,0l-2.3,2c-1.9,1.8-4.7,3.2-7.8,3.3l0,0c0,0,0,0,0,0l0,0C95.7,148.7,90.4,145,87.1,135.1L87.1,135.1z"/>
			</g>
			<path class="st1" d="M76.5,111.8c0,0,6.4,6.8,11.8,22.9c5.3,16.2,15.1,14.1,19.4,9.9l2.3-2c4.7-3.6,8.4-13.2-6.1-21.4
				c-14.5-8.3-19.9-16-19.9-16"/>
			<g>
				<path class="st2" d="M97.5,136.4c-1.6-1.7-1.2-4.8,1-7c2.1-2.2,5.2-2.7,6.8-1c1.6,1.7,1.2,4.8-1,7
					C102.1,137.6,99.1,138.1,97.5,136.4z"/>
				<path class="st2" d="M107.9,133.4c-0.7-0.7-0.6-1.8,0.1-2.6c0.7-0.8,1.9-0.8,2.5-0.2c0.7,0.7,0.6,1.8-0.1,2.6
					C109.7,134,108.5,134,107.9,133.4z"/>
				<path class="st2" d="M106.3,138.1c-0.7-0.7-0.6-1.8,0.1-2.6c0.7-0.8,1.9-0.8,2.5-0.2c0.7,0.7,0.6,1.8-0.1,2.6
					C108.1,138.8,106.9,138.8,106.3,138.1z"/>
				<path class="st2" d="M102.6,141.9c-0.7-0.7-0.6-1.8,0.2-2.6c0.7-0.8,1.9-0.8,2.5-0.2c0.7,0.7,0.6,1.8-0.1,2.6
					C104.4,142.6,103.3,142.6,102.6,141.9z"/>
				<path class="st2" d="M96.7,141.2c-0.7-0.7-0.6-1.8,0.1-2.6c0.7-0.8,1.9-0.8,2.5-0.2c0.7,0.7,0.6,1.8-0.1,2.6
					C98.4,141.8,97.3,141.9,96.7,141.2z"/>
			</g>
			<g>
				<g>
					<path class="st3" d="M97.5,136.4c-1.6-1.7-1.2-4.8,1-7c2.1-2.2,5.2-2.7,6.8-1c1.6,1.7,1.2,4.8-1,7
						C102.1,137.6,99.1,138.1,97.5,136.4z"/>
					<path class="st3" d="M107.9,133.4c-0.7-0.7-0.6-1.8,0.1-2.6c0.7-0.8,1.9-0.8,2.5-0.2c0.7,0.7,0.6,1.8-0.1,2.6
						C109.7,134,108.5,134,107.9,133.4z"/>
					<path class="st3" d="M106.3,138.1c-0.7-0.7-0.6-1.8,0.1-2.6c0.7-0.8,1.9-0.8,2.5-0.2c0.7,0.7,0.6,1.8-0.1,2.6
						C108.1,138.8,106.9,138.8,106.3,138.1z"/>
					<path class="st3" d="M102.6,141.9c-0.7-0.7-0.6-1.8,0.2-2.6c0.7-0.8,1.9-0.8,2.5-0.2c0.7,0.7,0.6,1.8-0.1,2.6
						C104.4,142.6,103.3,142.6,102.6,141.9z"/>
					<path class="st3" d="M96.7,141.2c-0.7-0.7-0.6-1.8,0.1-2.6c0.7-0.8,1.9-0.8,2.5-0.2c0.7,0.7,0.6,1.8-0.1,2.6
						C98.4,141.8,97.3,141.9,96.7,141.2z"/>
				</g>
			</g>
		</g>
		<g>
			<g>
				<g>
					<path class="st0" d="M92.4,149c-11.1,10.6-6.2,18.9-3.3,22c4.4,4.6,6.2,1.8,6.2,1.8l20.7-19.7c0,0,2.9-1.7-1.5-6.2
						C111.5,143.7,103.5,138.4,92.4,149z"/>
					<path d="M88.3,171.7c-1.7-1.8-4-5.1-4-9.6l0,0c0-4,1.9-8.8,7.3-14l0,0c5.1-4.9,9.8-6.6,13.7-6.6l0,0c4.8,0,8.2,2.6,10,4.4l0,0
						c2,2.1,2.7,3.7,2.7,5.2l0,0c0,1.6-1,2.5-1.4,2.7l0,0l-20.5,19.6c-0.3,0.3-1.1,1.2-2.6,1.2l0,0
						C92.1,174.7,90.4,173.9,88.3,171.7L88.3,171.7z M86.5,162.2c0,3.7,1.9,6.5,3.3,8.1l0,0c1.9,1.9,3,2.3,3.6,2.3l0,0
						c0.3,0,0.5-0.1,0.7-0.2l0,0c0.1-0.1,0.1-0.1,0.1-0.1l0,0l0.2-0.2l20.7-19.7l0.2-0.2c0,0,0,0,0.1-0.2l0,0
						c0.1-0.2,0.2-0.3,0.2-0.7l0,0c0-0.6-0.3-1.8-2.1-3.6l0,0c-1.5-1.6-4.4-3.7-8.4-3.7l0,0c-3.2,0-7.3,1.4-12.1,6l0,0
						C88,154.7,86.6,158.8,86.5,162.2L86.5,162.2z"/>
				</g>
				<path class="st1" d="M89.1,171c4.4,4.6,6.2,1.8,6.2,1.8l6.3-6c-0.8,0.5-2.6,1-5.7-2.2c-2.6-2.7-6.7-9.6,0.1-18.5
					c-1.2,0.8-2.4,1.8-3.6,3C81.3,159.6,86.1,167.9,89.1,171z M115.9,153c0,0,0.3-0.1,0.5-0.5L115.9,153z"/>
			</g>
			<g>
				<g>
					<path class="st0" d="M104.2,148.3c0,0,6.3-2.1,12.3,4.2"/>
					<path d="M115.6,153.3c-3.4-3.5-6.7-4.2-8.9-4.2l0,0c-1.4,0-2.2,0.3-2.2,0.3l0,0h0c-0.6,0.2-1.2-0.1-1.4-0.7l0,0
						c-0.2-0.6,0.1-1.2,0.7-1.4l0,0c0.1,0,1.2-0.4,2.9-0.4l0,0c2.6,0,6.7,0.9,10.5,4.9l0,0c0.4,0.4,0.4,1.1,0,1.6l0,0
						c-0.2,0.2-0.5,0.3-0.8,0.3l0,0C116.1,153.7,115.8,153.5,115.6,153.3L115.6,153.3z"/>
				</g>
			</g>
		</g>
		<g>
			<path class="st0" d="M36.8,149.8l-4.2-18.2c-30.6-38-15.4-66.2-18-66.5c-1.4-0.2-2.5,1-3.3,2.2c-0.1-0.2-0.1-0.5-0.2-0.7
				c-1.8,2.3-3.5,5.8-3.6,8.9c-3.9,7.6-1,19.9-1.2,28.9c-0.5,0.1-1,0-1.5,0.1c0,3,0,6,0,9c-0.6-0.2-1.3-0.3-1.9-0.5
				c0.7,4.7,6.2,7.2,8.1,11c1.2,2.5,2.6,6,3.3,8.5c-0.7-0.1-1.5-0.1-2.2-0.1c1.3,3.7,6,5.2,8.1,8.1c-0.2,0.3-0.6-0.1-0.8,0.1
				c2.5,1.9,5.3,3.5,8.6,3.1C32.9,148.1,36.8,149.8,36.8,149.8z"/>
			<path d="M36.3,150.8c-0.1,0-3.9-1.8-8.7-6.1l0,0c-0.2,0-0.4,0-0.6,0l0,0c-3.3,0-6-1.6-8.3-3.4l0,0c-0.3-0.2-0.4-0.5-0.4-0.9l0,0
				c0-0.2,0-0.3,0.1-0.5l0,0c-2.1-1.9-5.9-3.6-7.3-7.3l0,0c-0.1-0.4-0.1-0.8,0.2-1.1l0,0c0.2-0.3,0.6-0.4,1-0.4l0,0
				c0.2,0,0.4,0,0.6,0.1l0,0c-0.7-2.2-1.8-4.9-2.7-6.8l0,0c-1.5-3.4-7.2-5.9-8.2-11.4l0,0c-0.1-0.4,0.1-0.8,0.4-1.1l0,0
				c0.3-0.2,0.8-0.3,1.1-0.1l0,0c0.1,0,0.2,0.1,0.3,0.1l0,0c0-2.5,0-5,0-7.5l0,0c0-0.5,0.4-1,0.9-1.1l0,0c0.2,0,0.4-0.1,0.6-0.1l0,0
				c-0.1-5-0.9-11-0.9-16.7l0,0c0-4.1,0.4-8.1,2.1-11.4l0,0c0.2-3.4,1.9-6.9,3.9-9.3l0,0c0.2-0.3,0.7-0.5,1-0.4l0,0
				c0.7-0.8,1.7-1.5,3-1.5l0,0c0.1,0,0.3,0,0.3,0l0,0c1.2,0.2,1.4,1.4,1.3,1.8l0,0c0,2.4-1.8,7.9-1.8,16.6l0,0
				c0,11.7,3.3,28.7,19.3,48.5l0,0l0.2,0.5l4.2,18.2l-1.1,0.2l0.5-1l-0.5,1l1.1-0.2c0.1,0.4-0.1,0.8-0.4,1.1l0,0
				c-0.2,0.2-0.4,0.2-0.7,0.2l0,0C36.6,150.9,36.5,150.9,36.3,150.8L36.3,150.8z M28.8,142.7c2.6,2.4,4.8,4,6.4,4.9l0,0l-3.5-15.5
				C15.5,112,12,94.5,12,82.4l0,0c0-8,1.5-13.9,1.8-16l0,0c-0.5,0.3-1.1,0.8-1.5,1.6l0,0c-0.2,0.4-0.7,0.6-1.1,0.5l0,0
				c-1.4,2.1-2.5,4.8-2.6,7.1l0,0L8.5,76c-1.5,2.8-1.9,6.6-1.9,10.6l0,0c0,5.7,0.9,11.9,0.9,17.2l0,0c0,0.2,0,0.4,0,0.6l0,0
				c0,0.6-0.4,1.1-1,1.1l0,0c-0.2,0-0.4,0-0.5,0l0,0c0,2.6,0,5.3,0,7.9l0,0c0,0.4-0.2,0.7-0.5,0.9l0,0c-0.3,0.2-0.6,0.2-0.9,0.2l0,0
				c1.5,3,5.5,5.3,7.4,8.9l0,0c1.2,2.5,2.6,6.1,3.3,8.7l0,0c0.1,0.4,0,0.7-0.2,1l0,0c-0.2,0.3-0.6,0.4-1,0.4l0,0c0,0-0.1,0-0.2,0
				l0,0c1.7,2.1,5,3.6,7,6.2l0,0c0.2,0.2,0.2,0.5,0.2,0.8l0,0c1.8,1.2,3.7,2,5.7,2l0,0c0.3,0,0.6,0,0.9-0.1l0,0c0,0,0.1,0,0.1,0l0,0
				C28.3,142.4,28.6,142.5,28.8,142.7L28.8,142.7z"/>
		</g>
		<g>
			<g>
				<path class="st0" d="M61.9,97.9c-12.6-3.8-20.6-9.5-20.6-9.5s-11.4,17.1-11.4,40.8c0,23.7,20.9,36.5,37,36.5
					c16.1,0,34.3-14.5,35.5-31.5c1.1-17-12.9-38-12.9-38S81.9,100.8,61.9,97.9z"/>
				<path d="M28.8,129.3c0-24.1,11.5-41.3,11.6-41.4l0,0c0.2-0.2,0.4-0.4,0.7-0.5l0,0c0.3-0.1,0.6,0,0.8,0.2l0,0
					c0,0,7.8,5.5,20.2,9.3l0,0c4.7,0.7,8.7,0.9,12,0.9l0,0c5.4,0,9.1-0.7,11.4-1.3l0,0c2.4-0.6,3.2-1.2,3.3-1.2l0,0
					c0.5-0.3,1.2-0.2,1.5,0.3l0,0c0,0.1,13.1,19.5,13.2,36.7l0,0c0,0.7,0,1.4-0.1,2l0,0c-1.2,17.7-19.8,32.5-36.6,32.5l0,0
					C50.3,166.8,28.8,153.7,28.8,129.3L28.8,129.3z M31,129.3c0,23,20.2,35.3,35.9,35.3l0,0c15.5,0.1,33.4-14.2,34.3-30.4l0,0
					c0-0.6,0.1-1.3,0.1-1.9l0,0c0-8-3.2-16.9-6.4-23.8l0,0c-2.4-5.2-4.9-9.2-5.9-10.8l0,0c-1.9,0.8-6.5,2.3-14.8,2.3l0,0
					c-3.5,0-7.6-0.3-12.4-1l0,0l0.2-1.1L61.6,99c-10.2-3.1-17.4-7.3-19.9-9l0,0C39.4,93.9,31,109.1,31,129.3L31,129.3z"/>
			</g>
			<g>
				<path class="st0" d="M58,140c-8.1-16.4,3.9-42.1,3.9-42.1c-12.6-3.8-20.6-9.5-20.6-9.5s-11.4,17.1-11.4,40.8
					c0,23.7,20.9,36.5,37,36.5c13,0,27.4-9.5,33-22C92.2,160.5,66.1,156.5,58,140z"/>
				<path d="M28.8,129.3c0-24.1,11.5-41.3,11.6-41.4l0,0c0.2-0.2,0.4-0.4,0.7-0.5l0,0c0.3-0.1,0.6,0,0.8,0.2l0,0
					c0,0,7.8,5.6,20.3,9.3l0,0c0.3,0.1,0.6,0.3,0.7,0.6l0,0c0.1,0.3,0.1,0.6,0,0.9l0,0c0,0-6.7,14.2-6.6,28l0,0
					c0,4.6,0.7,9.2,2.7,13.1l0,0l-1,0.5l-1,0.5c-2.1-4.3-2.9-9.2-2.9-14.1l0,0c0-12,4.8-24.1,6.3-27.8l0,0c-9.6-3-16.3-7-18.7-8.6
					l0,0C39.4,93.9,31,109.1,31,129.3l0,0c0,23,20.2,35.3,35.9,35.3l0,0c8.6,0,18-4.4,24.8-11.1l0,0c-3,1.4-6.3,2.1-9.7,2.1l0,0
					c-9.8,0-20.3-5.5-25-15.1l0,0l1-0.5l1-0.5c4.3,8.7,14,13.8,23,13.8l0,0c7.2,0,13.7-3.1,16.9-10.1l0,0c0,0,0,0,0,0l0,0l0,0
					c0,0,0,0,0,0l0,0c0.3-0.6,0.9-0.8,1.5-0.5l0,0c0.6,0.3,0.8,0.9,0.6,1.5l0,0c-5.9,13-20.5,22.7-34.1,22.7l0,0
					C50.3,166.8,28.8,153.7,28.8,129.3L28.8,129.3z"/>
			</g>
			<path class="st1" d="M95,150.2c0.5-0.1,0.9-0.2,1.4-0.3c1.4-1.9,2.6-4,3.6-6.1C98.7,146.4,97,148.5,95,150.2z M37.9,125.5
				c0-14.9,4.5-27.2,7.9-34.3c-2.9-1.6-4.5-2.7-4.5-2.7s-11.4,17.1-11.4,40.8c0,23.7,20.9,36.5,37,36.5c6.1,0,12.5-2.1,18.1-5.5
				c-3.3,1.1-6.8,1.8-10.1,1.8C58.8,161.9,37.9,149.2,37.9,125.5z"/>
			<path class="st1" d="M61.9,97.9c0,0-12,25.6-3.9,42.1c8.1,16.4,34.2,20.4,42,3.7c0,0,0,0,0-0.1C50.4,164.7,61.9,97.9,61.9,97.9z"
				/>
		</g>
		<g>
			<path class="st4" d="M57.6,148.1c-11.2-5.9-1.7-13.2-8-19.9c-2.8-3-4.5-3.3-5.6-7c-0.7-2.4,1.6-4.2-2.2-5.7
				c-3.3,3.1-6.6,1.7-10.4,3.8c-0.3,0.2-0.6,0.4-0.9,0.7c-0.4,3-0.6,6-0.6,9.3c0,12.3,5.6,21.6,13.3,27.8c3.4,2.2,7.2,4,11.2,5.4
				c1.8-0.1,3.5-0.2,5.2-0.2C78.3,162.2,64.6,151.7,57.6,148.1z"/>
			<path d="M54,163.5c-4.1-1.4-8-3.3-11.5-5.6l0,0c-7.9-6.3-13.7-16-13.7-28.6l0,0c0-3.3,0.2-6.4,0.6-9.4l0,0c0-0.3,0.2-0.6,0.4-0.8
				l0,0c0.3-0.2,0.6-0.5,1.1-0.7l0,0c4.5-2.4,7.5-1,10.2-3.7l0,0c0.3-0.3,0.8-0.4,1.2-0.2l0,0c2,0.7,3,2.1,2.9,3.5l0,0
				c0,0.9-0.2,1.6-0.2,2.2l0,0c0,0.3,0,0.5,0.1,0.8l0,0c1,3.4,2.3,3.4,5.4,6.6l0,0c2.2,2.3,2.7,4.8,2.7,7.1l0,0c0,1.8-0.3,3.5-0.3,5
				l0,0c0.1,2.8,0.6,5,5.2,7.5l0,0l0,0c4.5,2.5,11.7,7,12,11.7l0,0c0,1.5-1.1,2.8-2.8,3.5l0,0c-1.7,0.7-4.1,1-7.6,1.1l0,0
				c0,0,0,0-0.2,0l0,0v0c-1.7,0-3.4,0.1-5.1,0.2l0,0L54,163.5L54,163.5z M31,129.3c0,12,5.4,20.9,12.8,26.8l0,0
				c3.3,2.1,6.9,3.8,10.8,5.2l0,0c1.7-0.1,3.3-0.2,5-0.2l0,0c0,0,0,0,0,0l0,0c0,0,0.1,0,0.1,0l0,0c0,0,0.1,0,0.1,0l0,0
				c3.3,0,5.6-0.4,6.8-0.9l0,0c1.2-0.6,1.4-0.9,1.4-1.4l0,0c0.3-2.1-6.6-7.6-10.8-9.7l0,0l0.5-1l-0.5,1c-5.2-2.7-6.5-6.3-6.4-9.5
				l0,0c0-1.8,0.3-3.4,0.3-5l0,0c0-2-0.4-3.7-2.1-5.6l0,0c-2.5-2.7-4.7-3.3-5.9-7.5l0,0c-0.1-0.5-0.2-0.9-0.2-1.4l0,0
				c0-1,0.2-1.8,0.2-2.2l0,0c-0.1-0.4,0.1-0.6-1-1.1l0,0c-3.6,2.8-6.9,1.6-10.1,3.5l0,0c-0.1,0.1-0.3,0.2-0.4,0.3l0,0
				C31.2,123.4,31,126.3,31,129.3L31,129.3z"/>
		</g>
		<g>
			<g>
				<path class="st0" d="M56.3,113.9c0,0-6.7,6.5-12.9,22.3c-6.1,15.9-15.8,13.3-19.9,9l-2.2-2.1c-4.6-3.9-7.8-13.6,7.1-21.1
					c14.9-7.5,20.6-15,20.6-15"/>
				<path d="M30.9,149.6c-3.4,0-6.3-1.7-8.1-3.6l0,0l-2.2-2.1c-2.3-1.9-4.2-5.1-4.2-8.8l0,0c0-4.7,3.1-9.9,11.5-14.1l0,0
					c7.4-3.7,12.5-7.4,15.7-10.2l0,0c3.2-2.7,4.6-4.5,4.6-4.5l0,0c0.4-0.5,1.1-0.6,1.6-0.2l0,0c0.5,0.4,0.6,1.1,0.2,1.6l0,0
					c-0.1,0.1-6,7.7-21,15.3l0,0c-8,4.1-10.3,8.5-10.3,12.1l0,0c0,2.9,1.6,5.6,3.5,7.2l0,0l2.2,2.2c1.5,1.6,3.9,3,6.5,3l0,0
					c3.6,0,8-2.5,11.5-11.6l0,0c6.2-16,13-22.6,13.1-22.7l0,0c0.4-0.4,1.1-0.4,1.6,0l0,0c0.4,0.4,0.4,1.1,0,1.6l0,0c0,0-1.6,1.5-4,5
					l0,0c-2.4,3.5-5.6,9-8.6,16.9l0,0C40.9,146.1,35.7,149.6,30.9,149.6L30.9,149.6C30.9,149.6,30.9,149.6,30.9,149.6L30.9,149.6z"
					/>
			</g>
			<path class="st1" d="M32.1,143.6l-2.5-2.4c-5.2-4.4-8.9-15.6,8.2-24.2c5.5-2.8,7.9-7.5,11.4-10l0,0c0,0-5.7,7.4-20.6,15
				c-14.9,7.5-11.7,17.3-7.1,21.1l2.2,2.1c2.7,2.9,8,5,12.9,1.4C34.8,145.9,33.2,144.8,32.1,143.6z"/>
		</g>
		<g>
			<g>
				<path class="st0" d="M54.7,152.4c-14.6-4.7-19.6,3.5-20.9,7.6c-1.9,6,1.4,6.3,1.4,6.3l27.2,8.8c0,0,2.8,1.7,4.8-4.3
					C68.5,166.7,69.3,157.2,54.7,152.4z"/>
				<path d="M63.4,176.4c-0.7,0-1.2-0.2-1.4-0.3l0,0l-27-8.7c-0.3,0-0.8-0.2-1.4-0.6l0,0c-0.8-0.6-1.4-1.8-1.4-3.4l0,0
					c0-1,0.2-2.2,0.7-3.6l0,0c1.1-3.4,4.8-9.8,13.9-9.8l0,0c2.4,0,5.2,0.4,8.3,1.5l0,0l-0.3,1.1l-0.3,1.1c-3-1-5.5-1.4-7.7-1.4l0,0
					c-7.9,0-10.8,5.3-11.8,8.2l0,0c-0.4,1.3-0.6,2.2-0.6,2.9l0,0c0,1.2,0.3,1.5,0.6,1.7l0,0c0.2,0.2,0.4,0.2,0.4,0.2l0,0l0.3,0.1
					l27.2,8.8l0.2,0.1c0,0,0.1,0.1,0.4,0.1l0,0c0.4,0,1.5-0.1,2.8-3.7l0,0c0.3-1,0.6-2.3,0.6-3.8l0,0c-0.1-4.2-2-9.7-12.4-13.1l0,0
					l0.3-1.1l0.3-1.1c11.1,3.5,14,10.2,13.9,15.2l0,0c0,1.8-0.3,3.4-0.7,4.5l0,0C67,175.1,65,176.4,63.4,176.4L63.4,176.4
					C63.4,176.4,63.4,176.4,63.4,176.4L63.4,176.4z"/>
			</g>
			<path class="st1" d="M33.8,160.1c-1.9,6,1.4,6.3,1.4,6.3l5.4,1.8c-0.9-0.4-2.1-1.8-0.7-6c1.2-3.8,5.6-11.1,17.8-8.4
				c-0.9-0.4-1.9-0.8-3-1.1C40.1,147.7,35.1,156,33.8,160.1z M62.4,175.1c0,0,0.3,0.2,0.7,0.2L62.4,175.1z"/>
		</g>
		<g>
			<g>
				<path class="st0" d="M50.9,160.2c0,0,3.2,4.3,0.9,11.5"/>
				<path d="M51.4,172.7c-0.6-0.2-0.9-0.8-0.7-1.4l0,0c0.6-1.8,0.8-3.4,0.8-4.8l0,0c0-1.9-0.4-3.3-0.8-4.3l0,0
					c-0.4-1-0.7-1.4-0.7-1.4l0,0c-0.4-0.5-0.3-1.2,0.2-1.6l0,0c0.5-0.4,1.2-0.3,1.6,0.2l0,0c0.1,0.1,1.9,2.7,1.9,7.1l0,0
					c0,1.6-0.2,3.4-0.9,5.5l0,0c-0.2,0.5-0.6,0.8-1.1,0.8l0,0C51.7,172.8,51.6,172.8,51.4,172.7L51.4,172.7z"/>
			</g>
			<g>
				<path class="st0" d="M60.2,162.3c0,0,4.8,4.5,2.2,12.8"/>
				<path d="M62.1,176.1c-0.6-0.2-0.9-0.8-0.7-1.4l0,0c0.5-1.7,0.7-3.2,0.7-4.5l0,0c0-2.4-0.7-4.2-1.3-5.4l0,0
					c-0.7-1.2-1.3-1.8-1.3-1.8l0,0c-0.5-0.4-0.5-1.1,0-1.6l0,0c0.4-0.4,1.1-0.5,1.6,0l0,0c0.1,0.1,3.3,3.2,3.3,8.8l0,0
					c0,1.5-0.2,3.3-0.8,5.2l0,0c-0.2,0.5-0.6,0.8-1.1,0.8l0,0C62.3,176.2,62.2,176.2,62.1,176.1L62.1,176.1z"/>
			</g>
		</g>
		<g>
			<g>
				<path class="st4" d="M70.1,15.9c0,0,8-3.6,12.4-8c4.5-4.4,23.7-8,21.1,19c-2.6,27,6.5,31.2-0.6,30.1
					c-7.1-1.2-27.4-30.9-35.6-28.7"/>
				<path d="M102.9,58.1c-4.3-0.9-10.4-8.1-17.3-15.1l0,0C79,35.9,71.8,29.1,68.4,29.3l0,0c-0.2,0-0.5,0-0.6,0.1l0,0
					c-0.6,0.2-1.2-0.2-1.4-0.8l0,0c-0.2-0.6,0.2-1.2,0.8-1.4l0,0c0.4-0.1,0.8-0.2,1.3-0.2l0,0c5.3,0.2,12,7.3,18.8,14.3l0,0
					c6.6,7.1,13.5,14.2,16,14.5l0,0c0.6,0.1,1.1,0.2,1.4,0.2l0,0c0,0,0.1,0,0.1,0l0,0c-0.1-1.6-2.7-7.7-2.6-19.6l0,0
					c0-2.8,0.1-6,0.5-9.6l0,0c0.2-1.7,0.2-3.2,0.2-4.6l0,0C102.6,9.1,96.8,6.2,91.4,6l0,0c-3.4,0-6.8,1.4-8,2.7l0,0
					c-4.7,4.6-12.7,8.1-12.8,8.2l0,0v0c-0.6,0.2-1.2,0-1.5-0.6l0,0c-0.3-0.6,0-1.2,0.6-1.5l0,0c0,0,7.9-3.6,12.1-7.7l0,0
					c1.9-1.8,5.6-3.3,9.6-3.4l0,0c3.2,0,6.7,1.1,9.3,4l0,0c2.6,2.9,4.3,7.5,4.3,14.4l0,0c0,1.5-0.1,3.1-0.2,4.8l0,0
					c-0.3,3.5-0.5,6.6-0.5,9.4l0,0c0,12.2,2.6,17.1,2.6,19.7l0,0c0,0.5-0.1,1.2-0.7,1.6l0,0c-0.5,0.4-1.1,0.5-1.6,0.5l0,0
					C104.1,58.3,103.6,58.2,102.9,58.1L102.9,58.1z"/>
			</g>
			<path class="st1" d="M70.1,15.9c0,0,8-3.6,12.4-8c4.5-4.4,23.7-8,21.1,19c-2.6,27,6.5,31.2-0.6,30.1
				c-7.1-1.2-27.4-30.9-35.6-28.7"/>
			<g>
				<path class="st0" d="M103.7,55.6c0,0,2.4-13.5-1.9-21.8c-2.3-4.5-9-12.2-19.6-16.3c-0.4-4.4-3.7-6.7-3.7-3.9
					c0,0.8-0.4,1.7-0.9,2.5c-1-0.3-2.1-0.5-3.2-0.7c0,0,0,0,0,0c1.8-5.9-5.3-16.3-3.8-10.6c0.8,3.1-0.1,7.6-1.1,10.1
					c-0.6,0-1.2-0.1-1.7-0.1c0,0,0,0,0,0c0-6.4-9.2-13.8-6.6-10C63.7,8.5,61.7,15,61.7,15l0,0c-4.6,0.5-9.7,1.7-15.1,3.7
					c0,0-20,10.1-21.7,30.7C23.1,70.1,33.1,97,68.7,98.1c35.5,1.1,38.9-1.3,42.5-8.4c0,0,8.9,0.3,9.6-10.8
					C121.5,67.9,103.7,55.6,103.7,55.6z"/>
				<path d="M68.6,99.2c-33.6-0.9-45.1-25-45-45.2l0,0c0-1.6,0.1-3.1,0.2-4.6l0,0C25.7,28,46.1,17.9,46.2,17.8l0,0
					c5.2-2,10-3.2,14.5-3.7l0,0c0.2-0.9,0.5-2.5,0.5-4.2l0,0c0-1.6-0.3-3.3-1.1-4.4l0,0c-0.3-0.6-0.6-0.8-0.6-1.5l0,0
					c0-0.2,0.1-0.6,0.4-0.9l0,0c0.3-0.3,0.7-0.3,0.9-0.3l0,0c1.1,0.2,1.4,0.6,2.2,1.3l0,0c0.7,0.7,1.6,1.6,2.5,2.7l0,0
					c1.5,1.9,2.9,4.4,3.3,6.9l0,0c0.5-1.7,1-4,1-6.1l0,0c0-0.9-0.1-1.8-0.3-2.4l0,0c-0.2-0.6-0.2-1.1-0.2-1.5l0,0
					c0-0.3,0.1-1.5,1.3-1.6l0,0c1.2,0.2,1.3,0.8,1.9,1.4l0,0C73,4.1,73.5,5,74,6l0,0c1,2.1,1.8,4.7,1.8,7.3l0,0c0,0.4,0,0.9-0.1,1.3
					l0,0c0.4,0.1,0.9,0.2,1.3,0.3l0,0c0.2-0.4,0.3-0.9,0.3-1.2l0,0c0-1,0.5-2.3,1.8-2.3l0,0c2.1,0.3,3.4,2.4,3.9,5.5l0,0
					c10.6,4.3,17.2,11.9,19.6,16.5l0,0c2.2,4.2,2.7,9.5,2.7,13.8l0,0c0,3.6-0.4,6.7-0.6,8l0,0c3,2.2,16.8,12.6,17,23.2l0,0
					c0,0.2,0,0.5,0,0.7l0,0c-0.6,9.9-7.7,11.6-10,11.8l0,0c-1.5,2.8-3.3,5.2-7.3,6.5l0,0c-4.2,1.5-10.7,2.1-22,2.1l0,0
					C78.5,99.5,73.9,99.4,68.6,99.2L68.6,99.2z M62.8,15.2c-0.1,0.5-0.5,0.9-1,1l0,0c-4.5,0.5-9.5,1.6-14.7,3.6l0,0
					c0,0-4.8,2.4-9.9,7.4l0,0c-5.1,5-10.4,12.4-11.2,22.4l0,0c-0.1,1.4-0.2,2.9-0.2,4.4l0,0c0.1,19.5,10.5,42,42.9,43l0,0
					c5.3,0.2,9.9,0.2,13.8,0.2l0,0c11.3,0,17.6-0.7,21.3-2l0,0c3.7-1.3,4.8-3.1,6.3-6l0,0c0.2-0.4,0.6-0.6,1-0.6l0,0h0.1
					c0.6-0.1,7.8,0,8.4-9.7l0,0c0-0.2,0-0.4,0-0.6l0,0c0-4.8-4-10.4-8.2-14.7l0,0c-4.2-4.2-8.4-7.2-8.4-7.2l0,0l0.6-0.9l1.1,0.2
					l-1.1-0.2l-0.6,0.9c-0.4-0.2-0.5-0.7-0.5-1.1l0,0c0,0,0.6-3.6,0.6-8.3l0,0c0-4.2-0.6-9.2-2.5-12.8l0,0
					c-2.2-4.2-8.7-11.8-19.1-15.7l0,0c-0.4-0.2-0.7-0.5-0.7-0.9l0,0c-0.1-1.8-0.9-3.2-1.4-3.8l0,0c-0.1,1-0.5,2-1,2.8l0,0
					c-0.3,0.4-0.7,0.6-1.2,0.5l0,0c-1-0.3-2-0.5-3.1-0.7l0,0c-0.3-0.1-0.6-0.2-0.8-0.5l0,0c-0.2-0.3-0.2-0.6-0.1-0.9l0,0l0,0
					c0.2-0.5,0.2-1.2,0.2-1.8l0,0c0-1.9-0.7-4.2-1.5-6l0,0C72.1,7.2,72.1,7,72,6.9l0,0c0,0.2,0,0.4,0,0.6l0,0c0,2.8-0.7,5.8-1.4,7.8
					l0,0C70.4,15.7,70,16,69.5,16l0,0c-0.6,0-1.1-0.1-1.7-0.1l0,0c-0.6,0-1.1-0.5-1.1-1.1l0,0v0c0.1-2.4-1.6-5.2-3.3-7.3l0,0
					c0.1,0.8,0.2,1.6,0.2,2.3l0,0C63.6,12.2,63,14.3,62.8,15.2L62.8,15.2C62.8,15.1,62.8,15.1,62.8,15.2L62.8,15.2z"/>
			</g>
			<path d="M68.6,99.2c-33.6-0.9-45.1-25-45-45.2l0,0c0-1.6,0.1-3.1,0.2-4.6l0,0C25.7,28,46.1,17.9,46.2,17.8l0,0
				c5.2-2,10-3.2,14.5-3.7l0,0c0.2-0.9,0.5-2.5,0.5-4.2l0,0c0-1.6-0.3-3.3-1.1-4.4l0,0c-0.3-0.6-0.6-0.8-0.6-1.5l0,0
				c0-0.2,0.1-0.6,0.4-0.9l0,0c0.3-0.3,0.7-0.3,0.9-0.3l0,0c1.1,0.2,1.4,0.6,2.2,1.3l0,0c0.7,0.7,1.6,1.6,2.5,2.7l0,0
				c1.5,1.9,2.9,4.4,3.3,6.9l0,0c0.5-1.7,1-4,1-6.1l0,0c0-0.9-0.1-1.8-0.3-2.4l0,0c-0.2-0.6-0.2-1.1-0.2-1.5l0,0
				c0-0.3,0.1-1.5,1.3-1.6l0,0c1.2,0.2,1.3,0.8,1.9,1.4l0,0C73,4.1,73.5,5,74,6l0,0c1,2.1,1.8,4.7,1.8,7.3l0,0c0,0.4,0,0.9-0.1,1.3
				l0,0c0.4,0.1,0.9,0.2,1.3,0.3l0,0c0.2-0.4,0.3-0.9,0.3-1.2l0,0c0-1,0.5-2.3,1.8-2.3l0,0c2.1,0.3,3.4,2.4,3.9,5.5l0,0
				c10.6,4.3,17.2,11.9,19.6,16.5l0,0c2.2,4.2,2.7,9.5,2.7,13.8l0,0c0,3.6-0.4,6.7-0.6,8l0,0c3,2.2,16.8,12.6,17,23.2l0,0
				c0,0.2,0,0.5,0,0.7l0,0c-0.6,9.9-7.7,11.6-10,11.8l0,0c-1.5,2.8-3.3,5.2-7.3,6.5l0,0c-4.2,1.5-10.7,2.1-22,2.1l0,0
				C78.5,99.5,73.9,99.4,68.6,99.2L68.6,99.2z M62.8,15.2c-0.1,0.5-0.5,0.9-1,1l0,0c-4.5,0.5-9.5,1.6-14.7,3.6l0,0
				c0,0-4.8,2.4-9.9,7.4l0,0c-5.1,5-10.4,12.4-11.2,22.4l0,0c-0.1,1.4-0.2,2.9-0.2,4.4l0,0c0.1,19.5,10.5,42,42.9,43l0,0
				c5.3,0.2,9.9,0.2,13.8,0.2l0,0c11.3,0,17.6-0.7,21.3-2l0,0c3.7-1.3,4.8-3.1,6.3-6l0,0c0.2-0.4,0.6-0.6,1-0.6l0,0h0.1
				c0.6-0.1,7.8,0,8.4-9.7l0,0c0-0.2,0-0.4,0-0.6l0,0c0-4.8-4-10.4-8.2-14.7l0,0c-4.2-4.2-8.4-7.2-8.4-7.2l0,0l0.6-0.9l1.1,0.2
				l-1.1-0.2l-0.6,0.9c-0.4-0.2-0.5-0.7-0.5-1.1l0,0c0,0,0.6-3.6,0.6-8.3l0,0c0-4.2-0.6-9.2-2.5-12.8l0,0
				c-2.2-4.2-8.7-11.8-19.1-15.7l0,0c-0.4-0.2-0.7-0.5-0.7-0.9l0,0c-0.1-1.8-0.9-3.2-1.4-3.8l0,0c-0.1,1-0.5,2-1,2.8l0,0
				c-0.3,0.4-0.7,0.6-1.2,0.5l0,0c-1-0.3-2-0.5-3.1-0.7l0,0c-0.3-0.1-0.6-0.2-0.8-0.5l0,0c-0.2-0.3-0.2-0.6-0.1-0.9l0,0l0,0
				c0.2-0.5,0.2-1.2,0.2-1.8l0,0c0-1.9-0.7-4.2-1.5-6l0,0C72.1,7.2,72.1,7,72,6.9l0,0c0,0.2,0,0.4,0,0.6l0,0c0,2.8-0.7,5.8-1.4,7.8
				l0,0C70.4,15.7,70,16,69.5,16l0,0c-0.6,0-1.1-0.1-1.7-0.1l0,0c-0.6,0-1.1-0.5-1.1-1.1l0,0v0c0.1-2.4-1.6-5.2-3.3-7.3l0,0
				c0.1,0.8,0.2,1.6,0.2,2.3l0,0C63.6,12.2,63,14.3,62.8,15.2L62.8,15.2C62.8,15.1,62.8,15.1,62.8,15.2L62.8,15.2z"/>
			<path class="st4" d="M101.8,33.8C99.6,29.7,94,23.2,85,18.9c0,0,0.1,0,0.1,0c-1-0.5-2-0.9-3-1.3c-0.4-4.4-3.7-6.7-3.7-3.9
				c0,0.8-0.4,1.7-0.9,2.5C77.4,16,77.2,16,77,16c-0.1,0-0.2-0.1-0.3-0.1c0,0,0,0,0,0c-0.7-0.2-1.4-0.3-2.2-0.5c0,0,0,0,0,0
				c1.8-5.9-5.3-16.3-3.8-10.6c0.8,3.1-0.1,7.6-1.1,10.1c-0.6,0-1.2-0.1-1.7-0.1v0c0-6.4-9.2-13.8-6.6-10C63.7,8.5,61.7,15,61.7,15
				l0,0c-0.6,0.1-1.3,0.2-1.9,0.3c-0.3,0.1-0.7,0.1-1,0.1c0,0-0.1,0-0.1,0c0,0,0,0,0,0c-3.8,0.6-7.8,1.7-12,3.3
				c0,0-20,10.1-21.7,30.7c-0.5,5.5-0.1,11.4,1.4,17.2c13.1,9.6,46.3,1.5,51.6-13.8c3.5-10-3.1-12-6.2-19.8
				c-1.1-2.7-3-11.8-3.2-14.7c0.3-0.8,0.5-1.6,0.4-2.6c1.3,1.6,2.6,3.5,3.1,5.6c-0.2-0.9-0.1-2-0.2-2.9c0.3,0.6,1.4,1.3,1.8,2.1
				c0.6-1.2,1.2-2.4,1.9-3.6c0,0,0.2,0.4,0.3,0.4c0,0,0-0.2,0-0.3c0.1,1.1,0.5,2.3,0.6,3.4c0-0.1,0.1-0.2,0.2-0.2
				c0.3,1.2,3.8,7.6,4.5,8.2c0.2-0.4-2.7-6.7-2.5-7.1c0.3-0.2,0.5,0.5,0.6,0.3c0.2-0.2,0.3-0.4,0.3-0.5c0.4,0.7,3.7,7.3,4,8
				c5.6,9.7-0.8,25.5,13.2,27c2.1,0.2,4.6-1.3,7-1.3C104.3,51.6,105.4,40.8,101.8,33.8z"/>
			<g>
				<path class="st0" d="M111.2,89.7c0,0-28.8,13.9-49.6-11.4"/>
				<path d="M60.7,79c-0.4-0.5-0.3-1.2,0.1-1.6l0,0c0.5-0.4,1.2-0.3,1.6,0.2l0,0c9.7,11.8,21.1,14.8,30.4,14.8l0,0
					c10.2,0,17.9-3.7,17.9-3.7l0,0c0.6-0.3,1.2,0,1.5,0.5l0,0c0.3,0.6,0,1.2-0.5,1.5l0,0c-0.1,0-8.1,3.9-18.9,3.9l0,0
					c0,0-0.1,0-0.1,0l0,0C82.9,94.6,70.8,91.3,60.7,79L60.7,79z"/>
			</g>
			<path class="st1" d="M101.2,64.5c-5.3,0-8,4.6-4.8,8.2c-1.2,4.7,0.4,7.7,5.4,8.1c-0.1,0.7-1,1.9-0.6,2.7c7.2,2,18.3,6.4,19.9-5.3
				c1.1-7.6-7.3-13.1-14.6-13.6"/>
			<path class="st5" d="M101.2,60.5c-0.8,0.5-0.8,1.5,0.1,1.7c0.3,0.8,0.8,1.1,1.6,0.7c0.1,0.1,0,0.4,0.2,0.5
				c1.3-0.4,3.3-0.8,2.5-2.7c-0.6-1.2-2.4-1.3-3.5-0.6"/>
			<path d="M115,63.9c0,0-18.8-3.1-17.2,6.3c1.6,9.4,8.3,14.1,16.2,14.1C121.8,84.3,136.7,62.6,115,63.9z"/>
			<path d="M68.6,99.2c-33.6-0.9-45.1-25-45-45.2l0,0c0-1.6,0.1-3.1,0.2-4.6l0,0C25.7,28,46.1,17.9,46.2,17.8l0,0
				c5.2-2,10-3.2,14.5-3.7l0,0c0.2-0.9,0.5-2.5,0.5-4.2l0,0c0-1.6-0.3-3.3-1.1-4.4l0,0c-0.3-0.6-0.6-0.8-0.6-1.5l0,0
				c0-0.2,0.1-0.6,0.4-0.9l0,0c0.3-0.3,0.7-0.3,0.9-0.3l0,0c1.1,0.2,1.4,0.6,2.2,1.3l0,0c0.7,0.7,1.6,1.6,2.5,2.7l0,0
				c1.5,1.9,2.9,4.4,3.3,6.9l0,0c0.5-1.7,1-4,1-6.1l0,0c0-0.9-0.1-1.8-0.3-2.4l0,0c-0.2-0.6-0.2-1.1-0.2-1.5l0,0
				c0-0.3,0.1-1.5,1.3-1.6l0,0c1.2,0.2,1.3,0.8,1.9,1.4l0,0C73,4.1,73.5,5,74,6l0,0c1,2.1,1.8,4.7,1.8,7.3l0,0c0,0.4,0,0.9-0.1,1.3
				l0,0c0.4,0.1,0.9,0.2,1.3,0.3l0,0c0.2-0.4,0.3-0.9,0.3-1.2l0,0c0-1,0.5-2.3,1.8-2.3l0,0c2.1,0.3,3.4,2.4,3.9,5.5l0,0
				c10.6,4.3,17.2,11.9,19.6,16.5l0,0c2.2,4.2,2.7,9.5,2.7,13.8l0,0c0,3.6-0.4,6.7-0.6,8l0,0c3,2.2,16.8,12.6,17,23.2l0,0
				c0,0.2,0,0.5,0,0.7l0,0c-0.6,9.9-7.7,11.6-10,11.8l0,0c-1.5,2.8-3.3,5.2-7.3,6.5l0,0c-4.2,1.5-10.7,2.1-22,2.1l0,0
				C78.5,99.5,73.9,99.4,68.6,99.2L68.6,99.2z M62.8,15.2c-0.1,0.5-0.5,0.9-1,1l0,0c-4.5,0.5-9.5,1.6-14.7,3.6l0,0
				c0,0-4.8,2.4-9.9,7.4l0,0c-5.1,5-10.4,12.4-11.2,22.4l0,0c-0.1,1.4-0.2,2.9-0.2,4.4l0,0c0.1,19.5,10.5,42,42.9,43l0,0
				c5.3,0.2,9.9,0.2,13.8,0.2l0,0c11.3,0,17.6-0.7,21.3-2l0,0c3.7-1.3,4.8-3.1,6.3-6l0,0c0.2-0.4,0.6-0.6,1-0.6l0,0h0.1
				c0.6-0.1,7.8,0,8.4-9.7l0,0c0-0.2,0-0.4,0-0.6l0,0c0-4.8-4-10.4-8.2-14.7l0,0c-4.2-4.2-8.4-7.2-8.4-7.2l0,0l0.6-0.9l1.1,0.2
				l-1.1-0.2l-0.6,0.9c-0.4-0.2-0.5-0.7-0.5-1.1l0,0c0,0,0.6-3.6,0.6-8.3l0,0c0-4.2-0.6-9.2-2.5-12.8l0,0
				c-2.2-4.2-8.7-11.8-19.1-15.7l0,0c-0.4-0.2-0.7-0.5-0.7-0.9l0,0c-0.1-1.8-0.9-3.2-1.4-3.8l0,0c-0.1,1-0.5,2-1,2.8l0,0
				c-0.3,0.4-0.7,0.6-1.2,0.5l0,0c-1-0.3-2-0.5-3.1-0.7l0,0c-0.3-0.1-0.6-0.2-0.8-0.5l0,0c-0.2-0.3-0.2-0.6-0.1-0.9l0,0l0,0
				c0.2-0.5,0.2-1.2,0.2-1.8l0,0c0-1.9-0.7-4.2-1.5-6l0,0C72.1,7.2,72.1,7,72,6.9l0,0c0,0.2,0,0.4,0,0.6l0,0c0,2.8-0.7,5.8-1.4,7.8
				l0,0C70.4,15.7,70,16,69.5,16l0,0c-0.6,0-1.1-0.1-1.7-0.1l0,0c-0.6,0-1.1-0.5-1.1-1.1l0,0v0c0.1-2.4-1.6-5.2-3.3-7.3l0,0
				c0.1,0.8,0.2,1.6,0.2,2.3l0,0C63.6,12.2,63,14.3,62.8,15.2L62.8,15.2C62.8,15.1,62.8,15.1,62.8,15.2L62.8,15.2z"/>
			<path class="st0" d="M119.6,66.8c0,0-7-1.2-6.4,2.3c0.6,3.5,3.1,5.2,6,5.2C122.1,74.3,127.7,66.3,119.6,66.8z"/>
			<path class="st1" d="M78.3,98.2C41,97.2,30.6,69,32.4,47.5C33.9,30.1,48,19.9,53.3,16.6c-2.1,0.6-4.3,1.3-6.6,2.1
				c0,0-20,10.1-21.7,30.7C23.1,70.1,33.1,97,68.7,98.1c5.1,0.2,9.5,0.2,13.4,0.2C80.8,98.3,79.6,98.3,78.3,98.2z"/>
			<g>
				<path class="st4" d="M51.7,19.2c0,0-8-3.6-12.4-8c-4.5-4.4-23.7-8-21.1,19c2.6,27-6.5,31.2,0.6,30.1
					c7.1-1.2,27.4-30.9,35.6-28.7"/>
				<path d="M15.5,61.1c-0.5-0.4-0.7-1.1-0.7-1.6l0,0c0.1-2.6,2.6-7.6,2.7-19.7l0,0c0-2.8-0.1-5.9-0.5-9.4l0,0
					c-0.2-1.7-0.2-3.3-0.3-4.8l0,0c0-6.9,1.7-11.5,4.3-14.4l0,0c2.6-2.9,6.1-4,9.3-4l0,0c4,0,7.7,1.5,9.6,3.3l0,0
					c4.3,4.2,12.1,7.8,12.1,7.7l0,0c0.6,0.3,0.8,0.9,0.6,1.5l0,0c-0.3,0.6-0.9,0.8-1.5,0.6l0,0c0,0-8-3.6-12.8-8.2l0,0
					c-1.3-1.3-4.6-2.8-8-2.7l0,0C24.9,9.4,19.1,12.4,19,25.5l0,0c0,1.4,0.1,3,0.2,4.6l0,0c0.3,3.6,0.5,6.8,0.5,9.6l0,0
					c0,11.9-2.6,18-2.7,19.6l0,0c0,0,0.1,0,0.1,0l0,0c0.3,0,0.8,0,1.4-0.2l0,0c2.5-0.2,9.4-7.4,16-14.5l0,0
					c6.8-7,13.4-14.1,18.8-14.3l0,0c0.4,0,0.8,0,1.2,0.2l0,0c0.6,0.2,0.9,0.8,0.8,1.4l0,0c-0.2,0.6-0.8,0.9-1.4,0.8l0,0
					c-0.2-0.1-0.4-0.1-0.6-0.1l0,0c-3.3-0.2-10.6,6.6-17.2,13.6l0,0c-6.8,7-12.9,14.2-17.3,15.1l0,0c-0.7,0.1-1.3,0.2-1.8,0.2l0,0
					C16.6,61.6,16,61.5,15.5,61.1L15.5,61.1z"/>
			</g>
			<path d="M104.1,45.9c0-3.2-2.5-5.9-5.7-6.3c-1-0.1-2,0.1-2.9,0.3c-2.6,0.9-4.4,3.2-4.4,6c0,3.5,2.9,6.3,6.5,6.3
				c0.2,0,0.3,0,0.5,0c0.7-0.1,1.4-0.3,2.1-0.5C102.5,50.7,104.1,48.5,104.1,45.9z"/>
			<ellipse class="st0" cx="98.7" cy="44.7" rx="3.7" ry="2.6"/>
			<path d="M73.3,45.9c0-3.8-3-7-6.8-7.4c-1.2-0.1-2.3,0.1-3.4,0.3c-3,1-5.2,3.8-5.2,7.1c0,4.1,3.4,7.5,7.7,7.5c0.2,0,0.4,0,0.6,0
				c0.9-0.1,1.7-0.3,2.5-0.6C71.5,51.6,73.3,49,73.3,45.9z"/>
			<ellipse class="st0" cx="67" cy="44.4" rx="4.4" ry="3"/>
		</g>
	</g>
</g>
<g id="Layer_3" class="st6">
	<g class="st7">
		<g>
			<path class="st0" d="M36.9,149.7l-4.2-18.2c-30.6-38-15.4-66.2-18-66.5c-1.4-0.1-2.5,1-3.3,2.2c-0.1-0.2-0.1-0.5-0.2-0.7
				c-1.8,2.3-3.5,5.8-3.6,8.9c-3.9,7.6-1,19.9-1.2,28.9c-0.5,0-1,0-1.5,0.1c0,3,0,6,0,9c-0.6-0.2-1.3-0.3-1.9-0.5
				c0.7,4.7,6.2,7.2,8.1,11c1.2,2.5,2.6,6,3.3,8.5c-0.7-0.1-1.5-0.1-2.2-0.1c1.3,3.7,6,5.2,8.1,8.1c-0.2,0.3-0.6-0.1-0.8,0.1
				c2.5,1.9,5.3,3.5,8.6,3.1C33,147.9,36.9,149.7,36.9,149.7z"/>
			<path d="M36.5,150.7c-0.1,0-3.9-1.8-8.7-6.1l0,0c-0.2,0-0.4,0-0.6,0l0,0c-3.3,0-6-1.6-8.3-3.4l0,0c-0.3-0.2-0.4-0.5-0.4-0.8l0,0
				c0-0.2,0-0.4,0.1-0.5l0,0c-2.1-1.9-5.9-3.6-7.3-7.3l0,0c-0.1-0.4-0.1-0.8,0.2-1.1l0,0c0.2-0.3,0.6-0.4,1-0.4l0,0
				c0.2,0,0.4,0,0.6,0l0,0c-0.7-2.2-1.8-4.9-2.7-6.8l0,0c-1.5-3.4-7.2-5.9-8.2-11.4l0,0c-0.1-0.4,0.1-0.8,0.4-1l0,0
				c0.3-0.2,0.8-0.3,1.1-0.1l0,0c0.1,0,0.2,0.1,0.3,0.1l0,0c0-2.5,0-5,0-7.5l0,0c0-0.5,0.4-1,0.9-1.1l0,0c0.2,0,0.4-0.1,0.6-0.1l0,0
				c-0.1-5-0.9-11-0.9-16.7l0,0c0-4.1,0.4-8.1,2.1-11.4l0,0c0.2-3.4,1.9-6.9,3.8-9.3l0,0c0.3-0.3,0.7-0.5,1.1-0.4l0,0
				c0.7-0.8,1.7-1.5,3-1.5l0,0c0.2,0,0.3,0,0.3,0l0,0c1.2,0.2,1.4,1.4,1.3,1.8l0,0c0,2.4-1.8,7.9-1.8,16.6l0,0
				c0,11.7,3.3,28.7,19.3,48.5l0,0l0.2,0.4l4.2,18.2l-1.1,0.3l0.5-1l-0.5,1l1.1-0.3c0.1,0.4-0.1,0.8-0.4,1.1l0,0
				c-0.2,0.2-0.5,0.2-0.7,0.2l0,0C36.8,150.8,36.6,150.7,36.5,150.7L36.5,150.7z M28.9,142.6c2.6,2.4,4.8,4,6.4,4.9l0,0l-3.5-15.5
				c-16.1-20.1-19.6-37.6-19.6-49.7l0,0c0-8,1.5-13.9,1.8-16l0,0c-0.5,0.3-1.1,0.8-1.5,1.6l0,0c-0.2,0.4-0.7,0.6-1.1,0.5l0,0
				c-1.4,2.1-2.5,4.8-2.6,7.1l0,0l-0.1,0.5c-1.5,2.8-1.9,6.6-1.9,10.6l0,0c0,5.6,0.9,11.9,0.9,17.2l0,0c0,0.2,0,0.4,0,0.6l0,0
				c0,0.6-0.4,1.1-1,1.1l0,0c-0.2,0-0.3,0-0.5,0l0,0c0,2.6,0,5.3,0,7.9l0,0c0,0.4-0.2,0.7-0.5,0.9l0,0c-0.2,0.2-0.6,0.3-0.9,0.2l0,0
				c1.5,3,5.5,5.3,7.4,8.9l0,0c1.2,2.5,2.6,6.1,3.3,8.7l0,0c0.1,0.4,0,0.7-0.2,1l0,0c-0.2,0.3-0.6,0.4-1,0.4l0,0c0,0-0.1,0-0.1,0
				l0,0c1.7,2.1,5,3.6,7,6.2l0,0c0.2,0.2,0.2,0.5,0.2,0.8l0,0c1.8,1.2,3.7,2,5.7,2l0,0c0.3,0,0.6,0,0.9,0l0,0c0,0,0.1,0,0.1,0l0,0
				C28.4,142.3,28.7,142.4,28.9,142.6L28.9,142.6z"/>
		</g>
		<g>
			<path class="st2" d="M93,135.7c-0.8-2.2,0.8-4.9,3.7-6.1c2.8-1.2,5.8-0.4,6.6,1.7c0.8,2.2-0.8,4.9-3.7,6.1
				C96.8,138.6,93.8,137.8,93,135.7z"/>
			<path class="st2" d="M95.6,142.8c-0.3-0.9,0.2-1.9,1.2-2.3c1-0.4,2,0,2.4,0.8c0.3,0.9-0.2,1.9-1.2,2.3
				C97,144.1,95.9,143.7,95.6,142.8z"/>
			<path class="st2" d="M90.4,139.8c-0.3-0.9,0.2-1.9,1.2-2.3c1-0.4,2,0,2.4,0.9c0.3,0.9-0.2,1.9-1.2,2.3
				C91.8,141,90.7,140.7,90.4,139.8z"/>
		</g>
		<g>
			<g>
				<path class="st3" d="M93,135.7c-0.8-2.2,0.8-4.9,3.7-6.1c2.8-1.2,5.8-0.4,6.6,1.7c0.8,2.2-0.8,4.9-3.7,6.1
					C96.8,138.6,93.8,137.8,93,135.7z"/>
				<path class="st3" d="M95.6,142.8c-0.3-0.9,0.2-1.9,1.2-2.3c1-0.4,2,0,2.4,0.8c0.3,0.9-0.2,1.9-1.2,2.3
					C97,144.1,95.9,143.7,95.6,142.8z"/>
				<path class="st3" d="M90.4,139.8c-0.3-0.9,0.2-1.9,1.2-2.3c1-0.4,2,0,2.4,0.9c0.3,0.9-0.2,1.9-1.2,2.3
					C91.8,141,90.7,140.7,90.4,139.8z"/>
			</g>
		</g>
		<g>
			<g>
				<path class="st0" d="M49.4,150.3c-14.4-5.2-19.7,2.8-21.1,6.8c-2.2,5.9,1.1,6.3,1.1,6.3l26.9,9.8c0,0,2.8,1.8,4.9-4.1
					C62.6,165.1,63.8,155.6,49.4,150.3z"/>
				<path d="M56.1,174.4c-0.2-0.1-0.3-0.1-0.4-0.2l0,0l-26.7-9.7c-0.1,0-0.2-0.1-0.4-0.1l0,0c-0.6-0.2-1.6-0.8-2-2.1l0,0
					c-0.4-1.3-0.4-3,0.5-5.5l0,0c0.8-2.2,2.6-5.4,6.2-7.5l0,0c3.6-2.1,8.9-2.7,16.3,0l0,0l-0.4,1l-0.4,1
					c-13.9-4.9-18.2,2.5-19.7,6.2l0,0c-1.5,4.6,0,4.6,0.2,4.8l0,0c0.1,0,0.1,0,0.1,0l0,0l0.2,0.1l26.9,9.8l0.2,0.1c0,0,0,0,0.1,0
					l0,0c0.3,0,1.4,0.9,3.2-3.6l0,0c1.2-3.8,2.7-12.2-11.1-17.4l0,0l0.4-1l0.4-1c7.4,2.7,11.1,6.6,12.5,10.5l0,0
					c1.4,3.9,0.7,7.5,0,9.7l0,0c-0.9,2.5-2,3.9-3.1,4.6l0,0C57.9,174.8,56.8,174.7,56.1,174.4L56.1,174.4
					C56.2,174.4,56.2,174.4,56.1,174.4L56.1,174.4z"/>
			</g>
			<path class="st1" d="M28.2,157.2c-2.2,5.9,1.1,6.3,1.1,6.3l8.2,3c-0.8-0.5-2-1.9-0.5-6.1c1.3-3.6,5.6-10.3,16.6-8.1
				c-1.3-0.7-2.7-1.3-4.3-1.9C34.9,145.1,29.7,153.1,28.2,157.2z M56.2,173.2c0,0,0.2,0.2,0.7,0.2L56.2,173.2z"/>
			<path class="st1" d="M61.3,175.1c0,0,0.2,0.1,0.5,0.2L61.3,175.1z"/>
		</g>
		<g>
			<g>
				<path class="st0" d="M62,97.8c-12.6-3.8-20.6-9.5-20.6-9.5S30,105.4,30,129.1c0,23.7,20.9,36.5,37,36.5s34.3-14.5,35.5-31.5
					c1.1-17-12.9-38-12.9-38S82,100.7,62,97.8z"/>
				<path d="M28.9,129.1c0-24.1,11.5-41.3,11.6-41.4l0,0c0.2-0.3,0.4-0.4,0.7-0.5l0,0c0.3-0.1,0.6,0,0.8,0.2l0,0
					c0,0,7.8,5.5,20.2,9.3l0,0c4.7,0.7,8.7,0.9,12,0.9l0,0c5.4,0,9.1-0.7,11.4-1.3l0,0c2.3-0.6,3.2-1.2,3.2-1.2l0,0
					c0.5-0.3,1.2-0.2,1.5,0.3l0,0c0,0.1,13.1,19.5,13.2,36.7l0,0c0,0.7,0,1.4-0.1,2l0,0c-1.2,17.7-19.8,32.5-36.6,32.5l0,0
					C50.4,166.6,29,153.6,28.9,129.1L28.9,129.1z M31.2,129.1c0,23,20.3,35.3,35.9,35.3l0,0c15.5,0.1,33.4-14.2,34.3-30.4l0,0
					c0-0.6,0.1-1.3,0.1-1.9l0,0c0-8-3.2-16.9-6.4-23.8l0,0c-2.4-5.2-4.9-9.2-5.9-10.8l0,0c-1.9,0.8-6.5,2.3-14.8,2.3l0,0
					c-3.5,0-7.6-0.3-12.4-1l0,0l0.2-1.1l-0.3,1.1c-10.2-3.1-17.4-7.3-19.9-9l0,0C39.5,93.7,31.1,109,31.2,129.1L31.2,129.1z"/>
			</g>
			<g>
				<path class="st0" d="M58.1,139.9C50,123.4,62,97.8,62,97.8c-12.6-3.8-20.6-9.5-20.6-9.5S30,105.4,30,129.1
					c0,23.7,20.9,36.5,37,36.5c13,0,27.4-9.5,33-22C92.3,160.3,66.2,156.3,58.1,139.9z"/>
				<path d="M28.9,129.1c0-24.1,11.5-41.3,11.6-41.4l0,0c0.2-0.3,0.4-0.4,0.7-0.5l0,0c0.3-0.1,0.6,0,0.8,0.2l0,0
					c0,0,7.8,5.5,20.3,9.3l0,0c0.3,0.1,0.6,0.3,0.7,0.6l0,0c0.1,0.3,0.1,0.6,0,0.9l0,0c0,0-6.7,14.2-6.6,28l0,0
					c0,4.6,0.8,9.2,2.7,13.1l0,0l-1,0.5l-1,0.5c-2.1-4.3-2.9-9.2-2.9-14.1l0,0c0-12,4.7-24.1,6.3-27.8l0,0c-9.6-3-16.3-7-18.7-8.6
					l0,0c-2.3,3.9-10.7,19.1-10.6,39.2l0,0c0,23,20.3,35.3,35.9,35.3l0,0c8.6,0,18-4.4,24.8-11.1l0,0c-3,1.4-6.3,2.1-9.7,2.1l0,0
					c-9.8,0-20.3-5.5-25-15.1l0,0l1-0.5l1-0.5c4.3,8.7,14,13.8,23,13.8l0,0c7.2,0,13.7-3.1,16.9-10.1l0,0c0,0,0,0,0,0l0,0
					c0.1-0.1,0.1-0.2,0.2-0.3l0,0c0,0,0,0,0,0l0,0c0.1-0.1,0.2-0.2,0.4-0.2l0,0c0.3-0.1,0.6-0.1,0.8,0l0,0c0.1,0.1,0.2,0.1,0.3,0.2
					l0,0c0,0,0,0,0,0l0,0c0,0,0,0,0,0l0,0c0,0,0,0,0,0l0,0c0,0,0,0,0,0l0,0c0,0,0,0,0,0l0,0c0,0,0,0,0,0l0,0c0,0,0,0,0,0l0,0
					c0,0,0,0,0,0l0,0c0,0,0,0,0,0l0,0c0,0.1,0.1,0.1,0.1,0.2l0,0c0.1,0.2,0.1,0.5,0,0.7l0,0c0,0,0,0,0,0l0,0c0,0,0,0,0,0l0,0
					c0,0,0,0.1,0,0.1l0,0c-5.9,13-20.5,22.6-34.1,22.7l0,0C50.4,166.6,29,153.6,28.9,129.1L28.9,129.1z"/>
			</g>
			<path class="st1" d="M95.1,150c0.5-0.1,0.9-0.2,1.4-0.3c1.4-1.9,2.6-4,3.6-6.1C98.8,146.2,97.1,148.3,95.1,150z M38,125.3
				c0-14.9,4.5-27.2,7.9-34.3c-2.9-1.6-4.5-2.7-4.5-2.7S30,105.4,30,129.1c0,23.7,20.9,36.5,37,36.5c6.1,0,12.5-2.1,18.1-5.5
				c-3.3,1.1-6.8,1.8-10.1,1.8C58.9,161.8,38,149,38,125.3z"/>
			<path class="st1" d="M62,97.8c0,0-12,25.6-3.9,42.1c8.1,16.4,34.2,20.4,42,3.7c0,0,0,0,0-0.1C50.6,164.5,62,97.8,62,97.8z"/>
		</g>
		<g>
			<g>
				<path class="st0" d="M55.2,160.6c0,0,4.6,4.7,1.7,12.9"/>
				<path d="M55.8,173.1c1.4-3.8,1-6.7,0.3-8.7l0,0c-0.7-2-1.7-3-1.7-3l0,0l0,0c-0.4-0.4-0.4-1.1,0-1.6l0,0c0.4-0.4,1.1-0.4,1.6,0
					l0,0c0.1,0.1,5.1,5.3,1.9,14l0,0c-0.2,0.6-0.8,0.9-1.4,0.7l0,0C55.9,174.3,55.6,173.7,55.8,173.1L55.8,173.1z"/>
			</g>
		</g>
		<g>
			<path class="st4" d="M57.8,147.9c-11.2-5.9-1.7-13.2-8-19.9c-2.8-3-4.5-3.3-5.6-7c-0.7-2.4,1.6-4.2-2.2-5.7
				c-3.3,3.1-6.6,1.7-10.4,3.8c-0.3,0.2-0.6,0.4-0.9,0.7c-0.4,3-0.6,6-0.6,9.3c0,12.3,5.6,21.6,13.3,27.8c3.4,2.2,7.2,4,11.2,5.4
				c1.8-0.1,3.5-0.2,5.2-0.2C78.4,162.1,64.7,151.6,57.8,147.9z"/>
			<path d="M54.2,163.3c-4.1-1.4-8-3.3-11.5-5.6l0,0c-7.9-6.3-13.7-16-13.7-28.6l0,0c0-3.3,0.2-6.4,0.6-9.4l0,0
				c0-0.3,0.2-0.6,0.4-0.8l0,0c0.3-0.2,0.6-0.5,1.1-0.7l0,0c4.5-2.4,7.5-1,10.2-3.7l0,0c0.3-0.3,0.8-0.4,1.2-0.2l0,0
				c2,0.7,3,2.1,2.9,3.5l0,0c0,0.9-0.2,1.6-0.2,2.2l0,0c0,0.3,0,0.5,0.1,0.8l0,0c1,3.4,2.3,3.4,5.4,6.6l0,0c2.2,2.3,2.7,4.8,2.7,7.1
				l0,0c0,1.8-0.3,3.5-0.3,5l0,0c0.1,2.8,0.6,5,5.2,7.5l0,0l0,0c4.5,2.5,11.7,7,12,11.7l0,0c0,1.5-1.1,2.8-2.8,3.5l0,0
				c-1.7,0.7-4.1,1-7.6,1.1l0,0c0,0,0,0-0.1,0l0,0l-0.1,0v0c-1.7,0-3.4,0.1-5.1,0.2l0,0L54.2,163.3L54.2,163.3z M31.2,129.1
				c0,12,5.4,20.9,12.8,26.8l0,0c3.3,2.1,6.9,3.8,10.7,5.2l0,0c1.7-0.1,3.3-0.2,5-0.2l0,0c0,0,0,0,0,0l0,0c0,0,0.1,0,0.1,0l0,0
				c0,0,0,0,0.1,0l0,0c3.3,0,5.5-0.4,6.8-0.9l0,0c1.2-0.6,1.4-1,1.4-1.4l0,0c0.3-2.1-6.6-7.6-10.8-9.7l0,0l0.5-1l-0.5,1
				c-5.2-2.7-6.5-6.3-6.4-9.5l0,0c0-1.8,0.3-3.4,0.3-5l0,0c0-2-0.4-3.7-2.1-5.6l0,0c-2.5-2.7-4.7-3.3-5.9-7.5l0,0
				c-0.1-0.5-0.2-0.9-0.2-1.4l0,0c0-1,0.2-1.8,0.2-2.2l0,0c-0.1-0.4,0.1-0.6-1-1.1l0,0c-3.6,2.8-6.9,1.6-10.1,3.5l0,0
				c-0.1,0.1-0.3,0.2-0.4,0.3l0,0C31.3,123.2,31.2,126.1,31.2,129.1L31.2,129.1z"/>
		</g>
		<g>
			<g>
				<path class="st0" d="M88.7,151.3c-13.3,7.7-10.5,16.9-8.4,20.6c3.2,5.5,5.6,3.2,5.6,3.2l24.8-14.3c0,0,3.2-0.9,0-6.4
					C108.5,150.7,102,143.6,88.7,151.3z"/>
				<path d="M111.5,161.6c-0.1,0.1-0.3,0.1-0.4,0.2l0,0L86.5,176c-0.1,0.1-0.2,0.1-0.3,0.2l0,0c-0.5,0.3-1.6,0.7-2.9,0.2l0,0
					c-1.3-0.5-2.6-1.7-3.9-4l0,0c-1.1-2-2.5-5.5-1.7-9.6l0,0c0.8-4.1,3.7-8.6,10.5-12.5l0,0l0.6,1l0.6,1c-12.7,7.5-9.8,15.6-8,19.1
					l0,0c2.6,4.1,3.5,3,3.8,3l0,0c0.1,0,0.1,0,0.1-0.1l0,0l0.2-0.1l24.8-14.3l0.2-0.1c0,0,0,0,0.1,0l0,0c0.2-0.2,1.6-0.5-0.7-4.8
					l0,0c-2.1-3.3-7.6-9.9-20.5-2.6l0,0l-0.6-1l-0.6-1c6.8-3.9,12.2-4.2,16.1-2.8l0,0c3.9,1.4,6.3,4.3,7.4,6.3l0,0
					c1.3,2.3,1.7,4,1.5,5.4l0,0C112.9,160.5,112.1,161.2,111.5,161.6L111.5,161.6C111.5,161.6,111.5,161.6,111.5,161.6L111.5,161.6z
					"/>
			</g>
			<path class="st1" d="M80.3,171.9c3.2,5.5,5.6,3.2,5.6,3.2l5-2.9c-0.9,0.3-2.8,0.3-5-3.5c-2-3.4-4.5-11.6,5.7-18.8
				c-0.9,0.4-1.9,0.9-2.9,1.5C75.4,159,78.2,168.2,80.3,171.9z M110.6,160.8c0,0,0.3-0.1,0.6-0.3L110.6,160.8z"/>
			<path class="st1" d="M26,162.3c0,0,0.2,0.1,0.5,0.2L26,162.3z"/>
		</g>
		<g>
			<g>
				<path d="M100,166.9c-1.8-3.1-3.9-4.7-5.5-5.6l0,0c-1.6-0.9-2.7-1-2.7-1l0,0l0,0c-0.6-0.1-1.1-0.6-1-1.2l0,0
					c0.1-0.6,0.6-1.1,1.2-1l0,0c0.2,0,6,0.7,10,7.6l0,0c0.3,0.5,0.1,1.2-0.4,1.5l0,0C101,167.6,100.3,167.4,100,166.9L100,166.9z"/>
			</g>
			<g>
				<path d="M109.7,161.3c-2-3.5-4.5-5.1-6.5-5.8l0,0c-2-0.7-3.4-0.6-3.4-0.6l0,0l0,0c-0.6,0-1.2-0.4-1.2-1l0,0c0-0.6,0.4-1.1,1-1.2
					l0,0c0.2,0,7.4-0.5,12,7.5l0,0c0.3,0.5,0.1,1.2-0.4,1.5l0,0C110.7,162,110,161.9,109.7,161.3L109.7,161.3z"/>
			</g>
		</g>
		<g>
			<g>
				<path class="st0" d="M56.1,106.6c0,0,3.2,8.8,15.2,20.8c12,12,5.8,19.8,0.2,21.8l-2.8,1.2c-5.4,2.6-15.6,1.6-16.4-15.1
					c-0.9-16.7-5.3-24.9-5.3-24.9"/>
				<path d="M75.6,148.2c-1.1,1-2.4,1.7-3.6,2.1l0,0l-2.8,1.1c-3.7,1.8-9.7,2-13.8-2.8l0,0c-2.3-2.7-3.9-7-4.2-13.2l0,0
					c-0.4-8.2-1.7-14.4-2.9-18.5l0,0c-1.2-4.1-2.3-6-2.3-6l0,0c-0.3-0.5-0.1-1.2,0.4-1.5l0,0c0.5-0.3,1.2-0.1,1.5,0.4l0,0
					c0.1,0.1,4.6,8.5,5.5,25.4l0,0c0.3,5.9,1.8,9.6,3.7,11.9l0,0c3.3,3.9,8,3.7,11.2,2.2l0,0l2.9-1.2c1-0.4,2.1-0.9,3-1.7l0,0
					c3.2-2.8,5.3-7.8-1.4-15.9l0,0c-0.6-0.8-1.4-1.6-2.2-2.4l0,0c-2.3-2.3-4.3-4.5-6-6.5l0,0c-7.3-8.7-9.5-14.6-9.5-14.7l0,0
					c-0.2-0.6,0.1-1.2,0.7-1.4l0,0c0.6-0.2,1.2,0.1,1.4,0.7l0,0c0,0,2,5.6,9.1,14.1l0,0c1.7,2,3.6,4.1,5.8,6.3l0,0
					c0.9,0.9,1.6,1.7,2.3,2.5l0,0c3.6,4.3,5,8.1,4.9,11.4l0,0C79.3,143.9,77.6,146.5,75.6,148.2L75.6,148.2
					C75.6,148.2,75.6,148.2,75.6,148.2L75.6,148.2z"/>
			</g>
			<path class="st1" d="M73.1,139.7l-3.2,1.3c-6.2,3-17.8,1.8-18.8-17.3c-0.3-6.2-3.6-10.3-4.5-14.4l0,0c0,0,4.5,8.3,5.3,24.9
				c0.9,16.7,11.1,17.7,16.4,15.1l2.8-1.2c3.8-1.3,7.8-5.2,6.5-11.3C76.3,138.2,74.7,139.2,73.1,139.7z"/>
		</g>
		<g>
			<g>
				<path class="st4" d="M70.3,15.8c0,0,8-3.6,12.4-8c4.5-4.4,23.7-8,21.1,19c-2.6,27,6.5,31.2-0.6,30.1C96,55.7,75.8,26,67.6,28.2"
					/>
				<path d="M103,58c-4.3-0.9-10.4-8.1-17.3-15.1l0,0C79.1,35.7,71.9,29,68.5,29.2l0,0c-0.2,0-0.5,0-0.6,0.1l0,0
					c-0.6,0.2-1.2-0.2-1.4-0.7l0,0c-0.2-0.6,0.2-1.2,0.7-1.4l0,0c0.4-0.1,0.9-0.2,1.3-0.2l0,0c5.3,0.2,12,7.3,18.8,14.3l0,0
					c6.6,7.1,13.5,14.3,16,14.5l0,0c0.6,0.1,1.1,0.2,1.4,0.2l0,0c0,0,0.1,0,0.1,0l0,0c-0.1-1.6-2.7-7.7-2.6-19.6l0,0
					c0-2.8,0.1-6,0.5-9.6l0,0c0.2-1.7,0.2-3.2,0.2-4.6l0,0C102.8,9,97,6,91.5,5.9l0,0c-3.4,0-6.8,1.4-8,2.7l0,0
					c-4.7,4.6-12.7,8.1-12.8,8.2l0,0v0c-0.6,0.2-1.2,0-1.5-0.6l0,0c-0.3-0.6,0-1.2,0.6-1.5l0,0c0,0,7.9-3.6,12.1-7.7l0,0
					c1.9-1.8,5.6-3.3,9.6-3.4l0,0c3.2,0,6.7,1,9.3,4l0,0c2.6,2.9,4.3,7.5,4.3,14.4l0,0c0,1.5-0.1,3.1-0.2,4.8l0,0
					c-0.3,3.5-0.5,6.6-0.5,9.4l0,0c0,12.2,2.6,17.1,2.6,19.7l0,0c0,0.5-0.1,1.2-0.7,1.6l0,0c-0.5,0.4-1.1,0.5-1.6,0.5l0,0
					C104.2,58.1,103.7,58.1,103,58L103,58z"/>
			</g>
			<path class="st1" d="M70.3,15.8c0,0,8-3.6,12.4-8c4.5-4.4,23.7-8,21.1,19c-2.6,27,6.5,31.2-0.6,30.1C96,55.7,75.8,26,67.6,28.2"
				/>
			<g>
				<path class="st0" d="M103.8,55.4c0,0,2.4-13.5-1.9-21.8c-2.3-4.5-9-12.2-19.6-16.3c-0.4-4.4-3.7-6.7-3.7-3.9
					c0,0.8-0.4,1.7-0.9,2.5c-1-0.3-2.1-0.5-3.2-0.7c0,0,0,0,0,0c1.8-5.9-5.3-16.3-3.8-10.6c0.8,3.1-0.1,7.6-1.1,10.1
					c-0.6,0-1.2-0.1-1.7-0.1c0,0,0,0,0,0c0-6.4-9.2-13.8-6.6-10c2.5,3.7,0.5,10.3,0.5,10.3l0,0c-4.6,0.5-9.7,1.7-15.1,3.7
					c0,0-20,10.1-21.7,30.7C23.3,70,33.3,96.9,68.8,98c35.5,1.1,38.9-1.3,42.5-8.4c0,0,8.9,0.3,9.6-10.8
					C121.6,67.8,103.8,55.4,103.8,55.4z"/>
				<path d="M68.8,99.1c-33.6-0.9-45.1-25-45-45.2l0,0c0-1.6,0.1-3.1,0.2-4.6l0,0c1.9-21.3,22.3-31.5,22.5-31.6l0,0
					c5.2-2,10-3.2,14.5-3.7l0,0c0.2-0.9,0.5-2.5,0.5-4.2l0,0c0-1.6-0.3-3.3-1.1-4.4l0,0c-0.3-0.6-0.6-0.8-0.6-1.5l0,0
					c0-0.2,0.1-0.6,0.4-0.9l0,0c0.3-0.3,0.7-0.3,0.8-0.3l0,0c1.1,0.1,1.4,0.6,2.2,1.3l0,0c0.7,0.7,1.6,1.6,2.5,2.7l0,0
					c1.5,1.9,2.9,4.3,3.3,6.9l0,0c0.5-1.7,1-4,1-6.1l0,0c0-0.9-0.1-1.7-0.3-2.4l0,0c-0.2-0.6-0.2-1.1-0.2-1.5l0,0
					c0-0.3,0.1-1.5,1.3-1.6l0,0c1.2,0.2,1.3,0.8,1.9,1.4l0,0c0.5,0.7,1,1.6,1.5,2.6l0,0c1,2.1,1.8,4.7,1.8,7.3l0,0
					c0,0.4,0,0.8-0.1,1.3l0,0c0.4,0.1,0.9,0.2,1.3,0.3l0,0c0.2-0.4,0.3-0.9,0.3-1.2l0,0c0-1,0.5-2.3,1.8-2.3l0,0
					c2.1,0.3,3.4,2.4,3.9,5.5l0,0c10.6,4.3,17.2,11.9,19.6,16.5l0,0c2.2,4.2,2.7,9.5,2.7,13.8l0,0c0,3.6-0.4,6.7-0.6,8l0,0
					c3,2.2,16.8,12.6,17,23.2l0,0c0,0.2,0,0.5,0,0.7l0,0c-0.6,9.9-7.7,11.6-10,11.8l0,0c-1.5,2.8-3.3,5.2-7.3,6.5l0,0
					c-4.2,1.5-10.7,2.1-22.1,2.1l0,0C78.6,99.3,74.1,99.2,68.8,99.1L68.8,99.1z M63,15c-0.1,0.5-0.5,0.9-1,1l0,0
					c-4.5,0.5-9.5,1.6-14.7,3.6l0,0c0,0-4.8,2.4-9.9,7.4l0,0C32.2,32,27,39.5,26.1,49.4l0,0c-0.1,1.4-0.2,2.9-0.2,4.4l0,0
					c0.1,19.5,10.5,42,42.9,43l0,0c5.3,0.2,9.9,0.2,13.8,0.2l0,0c11.3,0,17.6-0.7,21.3-2l0,0c3.7-1.4,4.8-3.1,6.4-6l0,0
					c0.2-0.3,0.5-0.5,0.8-0.6l0,0c0,0,0.1,0,0.2,0l0,0c0.6-0.1,7.8,0,8.4-9.7l0,0c0-0.2,0-0.4,0-0.6l0,0c0-4.8-4-10.4-8.2-14.7l0,0
					c-4.2-4.3-8.4-7.2-8.4-7.2l0,0l0.6-0.9l1.1,0.2l-1.1-0.2l-0.6,0.9c-0.4-0.2-0.5-0.7-0.5-1.1l0,0c0,0,0.6-3.6,0.6-8.3l0,0
					c0-4.2-0.5-9.2-2.5-12.8l0,0c-2.2-4.2-8.7-11.8-19.1-15.7l0,0c-0.4-0.2-0.7-0.5-0.7-0.9l0,0c-0.1-1.8-0.9-3.2-1.4-3.8l0,0
					c-0.1,1-0.5,2-1,2.8l0,0c-0.3,0.4-0.7,0.6-1.2,0.5l0,0c-1-0.3-2-0.5-3.1-0.7l0,0c-0.3-0.1-0.6-0.3-0.8-0.6l0,0
					c-0.1-0.3-0.2-0.6-0.1-0.8l0,0c0.2-0.5,0.2-1.2,0.2-1.8l0,0c0-1.9-0.7-4.2-1.5-6l0,0c-0.1-0.1-0.1-0.3-0.2-0.4l0,0
					c0,0.2,0,0.4,0,0.6l0,0c0,2.8-0.7,5.8-1.4,7.8l0,0c-0.2,0.5-0.6,0.7-1.1,0.7l0,0c-0.6,0-1.1-0.1-1.7-0.1l0,0
					c-0.6,0-1.1-0.5-1.1-1.1l0,0v0c0.1-2.4-1.6-5.2-3.3-7.3l0,0c0.1,0.8,0.2,1.6,0.2,2.3l0,0c0,2.4-0.5,4.5-0.7,5.3l0,0
					C63,15,63,15,63,15L63,15z"/>
			</g>
			<path d="M68.8,99.1c-33.6-0.9-45.1-25-45-45.2l0,0c0-1.6,0.1-3.1,0.2-4.6l0,0c1.9-21.3,22.3-31.5,22.5-31.6l0,0
				c5.2-2,10-3.2,14.5-3.7l0,0c0.2-0.9,0.5-2.5,0.5-4.2l0,0c0-1.6-0.3-3.3-1.1-4.4l0,0c-0.3-0.6-0.6-0.8-0.6-1.5l0,0
				c0-0.2,0.1-0.6,0.4-0.9l0,0c0.3-0.3,0.7-0.3,0.8-0.3l0,0c1.1,0.1,1.4,0.6,2.2,1.3l0,0c0.7,0.7,1.6,1.6,2.5,2.7l0,0
				c1.5,1.9,2.9,4.3,3.3,6.9l0,0c0.5-1.7,1-4,1-6.1l0,0c0-0.9-0.1-1.7-0.3-2.4l0,0c-0.2-0.6-0.2-1.1-0.2-1.5l0,0
				c0-0.3,0.1-1.5,1.3-1.6l0,0c1.2,0.2,1.3,0.8,1.9,1.4l0,0c0.5,0.7,1,1.6,1.5,2.6l0,0c1,2.1,1.8,4.7,1.8,7.3l0,0
				c0,0.4,0,0.8-0.1,1.3l0,0c0.4,0.1,0.9,0.2,1.3,0.3l0,0c0.2-0.4,0.3-0.9,0.3-1.2l0,0c0-1,0.5-2.3,1.8-2.3l0,0
				c2.1,0.3,3.4,2.4,3.9,5.5l0,0c10.6,4.3,17.2,11.9,19.6,16.5l0,0c2.2,4.2,2.7,9.5,2.7,13.8l0,0c0,3.6-0.4,6.7-0.6,8l0,0
				c3,2.2,16.8,12.6,17,23.2l0,0c0,0.2,0,0.5,0,0.7l0,0c-0.6,9.9-7.7,11.6-10,11.8l0,0c-1.5,2.8-3.3,5.2-7.3,6.5l0,0
				c-4.2,1.5-10.7,2.1-22.1,2.1l0,0C78.6,99.3,74.1,99.2,68.8,99.1L68.8,99.1z M63,15c-0.1,0.5-0.5,0.9-1,1l0,0
				c-4.5,0.5-9.5,1.6-14.7,3.6l0,0c0,0-4.8,2.4-9.9,7.4l0,0C32.2,32,27,39.5,26.1,49.4l0,0c-0.1,1.4-0.2,2.9-0.2,4.4l0,0
				c0.1,19.5,10.5,42,42.9,43l0,0c5.3,0.2,9.9,0.2,13.8,0.2l0,0c11.3,0,17.6-0.7,21.3-2l0,0c3.7-1.4,4.8-3.1,6.4-6l0,0
				c0.2-0.3,0.5-0.5,0.8-0.6l0,0c0,0,0.1,0,0.2,0l0,0c0.6-0.1,7.8,0,8.4-9.7l0,0c0-0.2,0-0.4,0-0.6l0,0c0-4.8-4-10.4-8.2-14.7l0,0
				c-4.2-4.3-8.4-7.2-8.4-7.2l0,0l0.6-0.9l1.1,0.2l-1.1-0.2l-0.6,0.9c-0.4-0.2-0.5-0.7-0.5-1.1l0,0c0,0,0.6-3.6,0.6-8.3l0,0
				c0-4.2-0.5-9.2-2.5-12.8l0,0c-2.2-4.2-8.7-11.8-19.1-15.7l0,0c-0.4-0.2-0.7-0.5-0.7-0.9l0,0c-0.1-1.8-0.9-3.2-1.4-3.8l0,0
				c-0.1,1-0.5,2-1,2.8l0,0c-0.3,0.4-0.7,0.6-1.2,0.5l0,0c-1-0.3-2-0.5-3.1-0.7l0,0c-0.3-0.1-0.6-0.3-0.8-0.6l0,0
				c-0.1-0.3-0.2-0.6-0.1-0.8l0,0c0.2-0.5,0.2-1.2,0.2-1.8l0,0c0-1.9-0.7-4.2-1.5-6l0,0c-0.1-0.1-0.1-0.3-0.2-0.4l0,0
				c0,0.2,0,0.4,0,0.6l0,0c0,2.8-0.7,5.8-1.4,7.8l0,0c-0.2,0.5-0.6,0.7-1.1,0.7l0,0c-0.6,0-1.1-0.1-1.7-0.1l0,0
				c-0.6,0-1.1-0.5-1.1-1.1l0,0v0c0.1-2.4-1.6-5.2-3.3-7.3l0,0c0.1,0.8,0.2,1.6,0.2,2.3l0,0c0,2.4-0.5,4.5-0.7,5.3l0,0
				C63,15,63,15,63,15L63,15z"/>
			<path class="st4" d="M101.9,33.7c-2.1-4.1-7.8-10.6-16.7-14.9c0,0,0.1,0,0.1,0c-1-0.5-2-0.9-3-1.3c-0.4-4.4-3.7-6.7-3.7-3.9
				c0,0.8-0.4,1.7-0.9,2.5c-0.2-0.1-0.4-0.1-0.6-0.1c-0.1,0-0.2-0.1-0.4-0.1c0,0,0,0,0,0c-0.7-0.2-1.4-0.3-2.2-0.5c0,0,0,0,0,0
				c1.8-5.9-5.3-16.3-3.8-10.6c0.8,3.1-0.1,7.6-1.1,10.1c-0.6,0-1.2-0.1-1.7-0.1v0c0-6.4-9.2-13.8-6.6-10c2.5,3.7,0.5,10.3,0.5,10.3
				l0,0c-0.6,0.1-1.3,0.2-1.9,0.3c-0.3,0-0.7,0.1-1,0.1c0,0-0.1,0-0.1,0c0,0,0,0,0,0C55,16,51,17,46.8,18.7c0,0-20,10.1-21.7,30.7
				c-0.5,5.5-0.1,11.4,1.4,17.2C39.5,76.1,72.7,68,78,52.7c3.5-10-3.1-12-6.2-19.8c-1.1-2.7-3-11.8-3.2-14.7
				c0.3-0.8,0.5-1.6,0.4-2.6c1.3,1.6,2.6,3.5,3.1,5.6c-0.2-0.9-0.1-2-0.2-2.9c0.3,0.6,1.4,1.3,1.8,2.1c0.6-1.2,1.2-2.4,1.9-3.6
				c0,0,0.2,0.4,0.3,0.4c0,0,0-0.2,0-0.3c0.1,1.1,0.5,2.3,0.6,3.4c0-0.1,0.1-0.2,0.2-0.2c0.3,1.2,3.8,7.6,4.5,8.2
				c0.2-0.4-2.7-6.7-2.5-7.1c0.3-0.2,0.5,0.5,0.6,0.3c0.2-0.2,0.3-0.4,0.3-0.5c0.4,0.7,3.7,7.3,4,8c5.6,9.7-0.8,25.5,13.2,27
				c2.1,0.2,4.6-1.3,7-1.3C104.4,51.5,105.6,40.7,101.9,33.7z"/>
			<g>
				<path class="st0" d="M111.3,89.6c0,0-28.8,13.9-49.6-11.4"/>
				<path d="M60.8,78.8c-0.4-0.5-0.3-1.2,0.2-1.6l0,0c0.5-0.4,1.2-0.3,1.6,0.1l0,0c9.7,11.8,21.1,14.8,30.4,14.8l0,0
					c10.2,0,17.9-3.7,17.9-3.7l0,0c0.6-0.3,1.2,0,1.5,0.5l0,0c0.3,0.6,0,1.2-0.5,1.5l0,0c-0.1,0-8.1,3.9-18.9,3.9l0,0
					c0,0-0.1,0-0.1,0l0,0C83,94.5,70.9,91.1,60.8,78.8L60.8,78.8z"/>
			</g>
			<path class="st1" d="M101.3,64.4c-5.3,0-8,4.6-4.8,8.2c-1.2,4.7,0.4,7.7,5.4,8.1c-0.1,0.7-1,1.9-0.6,2.6c7.2,2,18.3,6.4,19.9-5.3
				c1.1-7.6-7.3-13.1-14.6-13.6"/>
			<path class="st5" d="M101.3,60.4c-0.8,0.5-0.8,1.5,0.1,1.7c0.3,0.8,0.8,1.1,1.6,0.7c0.1,0.1,0,0.4,0.2,0.5
				c1.3-0.4,3.3-0.8,2.5-2.7c-0.6-1.2-2.4-1.3-3.5-0.6"/>
			<path d="M115.1,63.8c0,0-18.8-3.1-17.2,6.3c1.6,9.4,8.3,14.1,16.2,14.1C121.9,84.1,136.8,62.5,115.1,63.8z"/>
			<path d="M68.8,99.1c-33.6-0.9-45.1-25-45-45.2l0,0c0-1.6,0.1-3.1,0.2-4.6l0,0c1.9-21.3,22.3-31.5,22.5-31.6l0,0
				c5.2-2,10-3.2,14.5-3.7l0,0c0.2-0.9,0.5-2.5,0.5-4.2l0,0c0-1.6-0.3-3.3-1.1-4.4l0,0c-0.3-0.6-0.6-0.8-0.6-1.5l0,0
				c0-0.2,0.1-0.6,0.4-0.9l0,0c0.3-0.3,0.7-0.3,0.8-0.3l0,0c1.1,0.1,1.4,0.6,2.2,1.3l0,0c0.7,0.7,1.6,1.6,2.5,2.7l0,0
				c1.5,1.9,2.9,4.3,3.3,6.9l0,0c0.5-1.7,1-4,1-6.1l0,0c0-0.9-0.1-1.7-0.3-2.4l0,0c-0.2-0.6-0.2-1.1-0.2-1.5l0,0
				c0-0.3,0.1-1.5,1.3-1.6l0,0c1.2,0.2,1.3,0.8,1.9,1.4l0,0c0.5,0.7,1,1.6,1.5,2.6l0,0c1,2.1,1.8,4.7,1.8,7.3l0,0
				c0,0.4,0,0.8-0.1,1.3l0,0c0.4,0.1,0.9,0.2,1.3,0.3l0,0c0.2-0.4,0.3-0.9,0.3-1.2l0,0c0-1,0.5-2.3,1.8-2.3l0,0
				c2.1,0.3,3.4,2.4,3.9,5.5l0,0c10.6,4.3,17.2,11.9,19.6,16.5l0,0c2.2,4.2,2.7,9.5,2.7,13.8l0,0c0,3.6-0.4,6.7-0.6,8l0,0
				c3,2.2,16.8,12.6,17,23.2l0,0c0,0.2,0,0.5,0,0.7l0,0c-0.6,9.9-7.7,11.6-10,11.8l0,0c-1.5,2.8-3.3,5.2-7.3,6.5l0,0
				c-4.2,1.5-10.7,2.1-22.1,2.1l0,0C78.6,99.3,74.1,99.2,68.8,99.1L68.8,99.1z M63,15c-0.1,0.5-0.5,0.9-1,1l0,0
				c-4.5,0.5-9.5,1.6-14.7,3.6l0,0c0,0-4.8,2.4-9.9,7.4l0,0C32.2,32,27,39.5,26.1,49.4l0,0c-0.1,1.4-0.2,2.9-0.2,4.4l0,0
				c0.1,19.5,10.5,42,42.9,43l0,0c5.3,0.2,9.9,0.2,13.8,0.2l0,0c11.3,0,17.6-0.7,21.3-2l0,0c3.7-1.4,4.8-3.1,6.4-6l0,0
				c0.2-0.3,0.5-0.5,0.8-0.6l0,0c0,0,0.1,0,0.2,0l0,0c0.6-0.1,7.8,0,8.4-9.7l0,0c0-0.2,0-0.4,0-0.6l0,0c0-4.8-4-10.4-8.2-14.7l0,0
				c-4.2-4.3-8.4-7.2-8.4-7.2l0,0l0.6-0.9l1.1,0.2l-1.1-0.2l-0.6,0.9c-0.4-0.2-0.5-0.7-0.5-1.1l0,0c0,0,0.6-3.6,0.6-8.3l0,0
				c0-4.2-0.5-9.2-2.5-12.8l0,0c-2.2-4.2-8.7-11.8-19.1-15.7l0,0c-0.4-0.2-0.7-0.5-0.7-0.9l0,0c-0.1-1.8-0.9-3.2-1.4-3.8l0,0
				c-0.1,1-0.5,2-1,2.8l0,0c-0.3,0.4-0.7,0.6-1.2,0.5l0,0c-1-0.3-2-0.5-3.1-0.7l0,0c-0.3-0.1-0.6-0.3-0.8-0.6l0,0
				c-0.1-0.3-0.2-0.6-0.1-0.8l0,0c0.2-0.5,0.2-1.2,0.2-1.8l0,0c0-1.9-0.7-4.2-1.5-6l0,0c-0.1-0.1-0.1-0.3-0.2-0.4l0,0
				c0,0.2,0,0.4,0,0.6l0,0c0,2.8-0.7,5.8-1.4,7.8l0,0c-0.2,0.5-0.6,0.7-1.1,0.7l0,0c-0.6,0-1.1-0.1-1.7-0.1l0,0
				c-0.6,0-1.1-0.5-1.1-1.1l0,0v0c0.1-2.4-1.6-5.2-3.3-7.3l0,0c0.1,0.8,0.2,1.6,0.2,2.3l0,0c0,2.4-0.5,4.5-0.7,5.3l0,0
				C63,15,63,15,63,15L63,15z"/>
			<path class="st0" d="M119.8,66.7c0,0-7-1.2-6.4,2.3c0.6,3.5,3.1,5.2,6,5.2C122.3,74.2,127.8,66.2,119.8,66.7z"/>
			<path class="st1" d="M78.4,98.1C41.2,97,30.7,68.9,32.5,47.4C34,30,48.1,19.7,53.4,16.5c-2.1,0.6-4.3,1.3-6.6,2.1
				c0,0-20,10.1-21.7,30.7C23.3,70,33.3,96.9,68.8,98c5.1,0.2,9.5,0.2,13.4,0.2C80.9,98.2,79.7,98.2,78.4,98.1z"/>
			<g>
				<path class="st4" d="M51.8,19.1c0,0-8-3.6-12.4-8c-4.5-4.4-23.7-8-21.1,19c2.6,27-6.5,31.2,0.6,30.1C26,59,46.3,29.3,54.4,31.5"
					/>
				<path d="M15.6,60.9c-0.5-0.4-0.7-1.1-0.7-1.6l0,0c0.1-2.6,2.6-7.6,2.7-19.7l0,0c0-2.8-0.1-5.9-0.5-9.4l0,0
					c-0.2-1.7-0.2-3.3-0.2-4.9l0,0c0-6.9,1.7-11.5,4.3-14.4l0,0c2.6-2.9,6.1-4,9.3-4l0,0c4,0,7.7,1.5,9.6,3.4l0,0
					c4.3,4.2,12.1,7.7,12.1,7.7l0,0c0.6,0.2,0.8,0.9,0.6,1.5l0,0c-0.3,0.6-0.9,0.8-1.5,0.6l0,0c0,0-8-3.6-12.8-8.2l0,0
					c-1.3-1.3-4.6-2.8-8-2.7l0,0c-5.5,0.1-11.3,3.1-11.4,16.2l0,0c0,1.4,0.1,3,0.2,4.6l0,0c0.3,3.6,0.5,6.8,0.5,9.6l0,0
					c0,11.9-2.6,18-2.7,19.6l0,0c0,0,0,0,0.1,0l0,0c0.3,0,0.8,0,1.4-0.1l0,0c2.5-0.2,9.4-7.4,16-14.5l0,0c6.8-7,13.4-14.1,18.8-14.3
					l0,0c0.4,0,0.8,0,1.3,0.2l0,0c0.6,0.2,0.9,0.8,0.7,1.4l0,0c-0.2,0.6-0.8,0.9-1.4,0.7l0,0c-0.2-0.1-0.4-0.1-0.6-0.1l0,0
					c-3.3-0.2-10.6,6.6-17.2,13.6l0,0c-6.8,7-12.9,14.2-17.3,15.1l0,0c-0.7,0.1-1.3,0.2-1.8,0.2l0,0C16.7,61.4,16.2,61.4,15.6,60.9
					L15.6,60.9z"/>
			</g>
			<path d="M104.2,45.8c0-3.2-2.5-5.9-5.7-6.3c-1-0.1-2,0.1-2.9,0.3c-2.6,0.9-4.4,3.2-4.4,6c0,3.5,2.9,6.3,6.5,6.3
				c0.2,0,0.3,0,0.5,0c0.7-0.1,1.4-0.3,2.1-0.5C102.6,50.6,104.2,48.4,104.2,45.8z"/>
			<ellipse class="st0" cx="98.9" cy="44.5" rx="3.7" ry="2.6"/>
			<path d="M73.5,45.8c0-3.8-3-7-6.8-7.4c-1.2-0.1-2.3,0.1-3.4,0.3c-3,1-5.2,3.8-5.2,7.1c0,4.1,3.4,7.5,7.7,7.5c0.2,0,0.4,0,0.6,0
				c0.9-0.1,1.7-0.3,2.5-0.6C71.6,51.4,73.5,48.8,73.5,45.8z"/>
			<ellipse class="st0" cx="67.2" cy="44.3" rx="4.4" ry="3"/>
		</g>
	</g>
</g>
</svg>
