<?xml version="1.0" encoding="utf-8"?>
<!-- Generator: Adobe Illustrator 19.2.0, SVG Export Plug-In . SVG Version: 6.00 Build 0)  -->
<svg version="1.1" id="Layer_3" xmlns="http://www.w3.org/2000/svg" xmlns:xlink="http://www.w3.org/1999/xlink" x="0px" y="0px"
	 viewBox="0 0 127.3 176.4" style="enable-background:new 0 0 127.3 176.4;" xml:space="preserve">
<style type="text/css">
	.st0{fill:#FFFFFF;}
	.st1{fill:#DBBEC0;}
	.st2{fill:#F5928D;}
	.st3{opacity:0.2;}
	.st4{fill:#B96128;}
	.st5{opacity:0.7;fill:#F69F89;}
</style>
<g>
	<g>
		<path class="st0" d="M36.9,149.7l-4.2-18.2c-30.6-38-15.4-66.2-18-66.5c-1.4-0.1-2.5,1-3.3,2.2c-0.1-0.2-0.1-0.5-0.2-0.7
			c-1.8,2.3-3.5,5.8-3.6,8.9c-3.9,7.6-1,19.9-1.2,28.9c-0.5,0-1,0-1.5,0.1c0,3,0,6,0,9c-0.6-0.2-1.3-0.3-1.9-0.5
			c0.7,4.7,6.2,7.2,8.1,11c1.2,2.5,2.6,6,3.3,8.5c-0.7-0.1-1.5-0.1-2.2-0.1c1.3,3.7,6,5.2,8.1,8.1c-0.2,0.3-0.6-0.1-0.8,0.1
			c2.5,1.9,5.3,3.5,8.6,3.1C33,147.9,36.9,149.7,36.9,149.7z"/>
		<path d="M36.5,150.7c-0.1,0-3.9-1.8-8.7-6.1l0,0c-0.2,0-0.4,0-0.6,0l0,0c-3.3,0-6-1.6-8.3-3.4l0,0c-0.3-0.2-0.4-0.5-0.4-0.8l0,0
			c0-0.2,0-0.4,0.1-0.5l0,0c-2.1-1.9-5.9-3.6-7.3-7.3l0,0c-0.1-0.4-0.1-0.8,0.2-1.1l0,0c0.2-0.3,0.6-0.4,1-0.4l0,0
			c0.2,0,0.4,0,0.6,0l0,0c-0.7-2.2-1.8-4.9-2.7-6.8l0,0c-1.5-3.4-7.2-5.9-8.2-11.4l0,0c-0.1-0.4,0.1-0.8,0.4-1l0,0
			c0.3-0.2,0.8-0.3,1.1-0.1l0,0c0.1,0,0.2,0.1,0.3,0.1l0,0c0-2.5,0-5,0-7.5l0,0c0-0.5,0.4-1,0.9-1.1l0,0c0.2,0,0.4-0.1,0.6-0.1l0,0
			c-0.1-5-0.9-11-0.9-16.7l0,0c0-4.1,0.4-8.1,2.1-11.4l0,0c0.2-3.4,1.9-6.9,3.8-9.3l0,0c0.3-0.3,0.7-0.5,1.1-0.4l0,0
			c0.7-0.8,1.7-1.5,3-1.5l0,0c0.2,0,0.3,0,0.3,0l0,0c1.2,0.2,1.4,1.4,1.3,1.8l0,0c0,2.4-1.8,7.9-1.8,16.6l0,0
			c0,11.7,3.3,28.7,19.3,48.5l0,0l0.2,0.4l4.2,18.2l-1.1,0.3l0.5-1l-0.5,1l1.1-0.3c0.1,0.4-0.1,0.8-0.4,1.1l0,0
			c-0.2,0.2-0.5,0.2-0.7,0.2l0,0C36.8,150.8,36.6,150.7,36.5,150.7L36.5,150.7z M28.9,142.6c2.6,2.4,4.8,4,6.4,4.9l0,0l-3.5-15.5
			c-16.1-20.1-19.6-37.6-19.6-49.7l0,0c0-8,1.5-13.9,1.8-16l0,0c-0.5,0.3-1.1,0.8-1.5,1.6l0,0c-0.2,0.4-0.7,0.6-1.1,0.5l0,0
			c-1.4,2.1-2.5,4.8-2.6,7.1l0,0l-0.1,0.5c-1.5,2.8-1.9,6.6-1.9,10.6l0,0c0,5.6,0.9,11.9,0.9,17.2l0,0c0,0.2,0,0.4,0,0.6l0,0
			c0,0.6-0.4,1.1-1,1.1l0,0c-0.2,0-0.3,0-0.5,0l0,0c0,2.6,0,5.3,0,7.9l0,0c0,0.4-0.2,0.7-0.5,0.9l0,0c-0.2,0.2-0.6,0.3-0.9,0.2l0,0
			c1.5,3,5.5,5.3,7.4,8.9l0,0c1.2,2.5,2.6,6.1,3.3,8.7l0,0c0.1,0.4,0,0.7-0.2,1l0,0c-0.2,0.3-0.6,0.4-1,0.4l0,0c0,0-0.1,0-0.1,0l0,0
			c1.7,2.1,5,3.6,7,6.2l0,0c0.2,0.2,0.2,0.5,0.2,0.8l0,0c1.8,1.2,3.7,2,5.7,2l0,0c0.3,0,0.6,0,0.9,0l0,0c0,0,0.1,0,0.1,0l0,0
			C28.4,142.3,28.7,142.4,28.9,142.6L28.9,142.6z"/>
	</g>
	<g>
		<path class="st1" d="M93,135.7c-0.8-2.2,0.8-4.9,3.7-6.1c2.8-1.2,5.8-0.4,6.6,1.7c0.8,2.2-0.8,4.9-3.7,6.1
			C96.8,138.6,93.8,137.8,93,135.7z"/>
		<path class="st1" d="M95.6,142.8c-0.3-0.9,0.2-1.9,1.2-2.3c1-0.4,2,0,2.4,0.8c0.3,0.9-0.2,1.9-1.2,2.3
			C97,144.1,95.9,143.7,95.6,142.8z"/>
		<path class="st1" d="M90.4,139.8c-0.3-0.9,0.2-1.9,1.2-2.3c1-0.4,2,0,2.4,0.9c0.3,0.9-0.2,1.9-1.2,2.3
			C91.8,141,90.7,140.7,90.4,139.8z"/>
	</g>
	<g>
		<g>
			<path class="st2" d="M93,135.7c-0.8-2.2,0.8-4.9,3.7-6.1c2.8-1.2,5.8-0.4,6.6,1.7c0.8,2.2-0.8,4.9-3.7,6.1
				C96.8,138.6,93.8,137.8,93,135.7z"/>
			<path class="st2" d="M95.6,142.8c-0.3-0.9,0.2-1.9,1.2-2.3c1-0.4,2,0,2.4,0.8c0.3,0.9-0.2,1.9-1.2,2.3
				C97,144.1,95.9,143.7,95.6,142.8z"/>
			<path class="st2" d="M90.4,139.8c-0.3-0.9,0.2-1.9,1.2-2.3c1-0.4,2,0,2.4,0.9c0.3,0.9-0.2,1.9-1.2,2.3
				C91.8,141,90.7,140.7,90.4,139.8z"/>
		</g>
	</g>
	<g>
		<g>
			<path class="st0" d="M49.4,150.3c-14.4-5.2-19.7,2.8-21.1,6.8c-2.2,5.9,1.1,6.3,1.1,6.3l26.9,9.8c0,0,2.8,1.8,4.9-4.1
				C62.6,165.1,63.8,155.6,49.4,150.3z"/>
			<path d="M56.1,174.4c-0.2-0.1-0.3-0.1-0.4-0.2l0,0l-26.7-9.7c-0.1,0-0.2-0.1-0.4-0.1l0,0c-0.6-0.2-1.6-0.8-2-2.1l0,0
				c-0.4-1.3-0.4-3,0.5-5.5l0,0c0.8-2.2,2.6-5.4,6.2-7.5l0,0c3.6-2.1,8.9-2.7,16.3,0l0,0l-0.4,1l-0.4,1c-13.9-4.9-18.2,2.5-19.7,6.2
				l0,0c-1.5,4.6,0,4.6,0.2,4.8l0,0c0.1,0,0.1,0,0.1,0l0,0l0.2,0.1l26.9,9.8l0.2,0.1c0,0,0,0,0.1,0l0,0c0.3,0,1.4,0.9,3.2-3.6l0,0
				c1.2-3.8,2.7-12.2-11.1-17.4l0,0l0.4-1l0.4-1c7.4,2.7,11.1,6.6,12.5,10.5l0,0c1.4,3.9,0.7,7.5,0,9.7l0,0c-0.9,2.5-2,3.9-3.1,4.6
				l0,0C57.9,174.8,56.8,174.7,56.1,174.4L56.1,174.4C56.2,174.4,56.2,174.4,56.1,174.4L56.1,174.4z"/>
		</g>
		<path class="st3" d="M28.2,157.2c-2.2,5.9,1.1,6.3,1.1,6.3l8.2,3c-0.8-0.5-2-1.9-0.5-6.1c1.3-3.6,5.6-10.3,16.6-8.1
			c-1.3-0.7-2.7-1.3-4.3-1.9C34.9,145.1,29.7,153.1,28.2,157.2z M56.2,173.2c0,0,0.2,0.2,0.7,0.2L56.2,173.2z"/>
		<path class="st3" d="M61.3,175.1c0,0,0.2,0.1,0.5,0.2L61.3,175.1z"/>
	</g>
	<g>
		<g>
			<path class="st0" d="M62,97.8c-12.6-3.8-20.6-9.5-20.6-9.5S30,105.4,30,129.1c0,23.7,20.9,36.5,37,36.5s34.3-14.5,35.5-31.5
				c1.1-17-12.9-38-12.9-38S82,100.7,62,97.8z"/>
			<path d="M28.9,129.1c0-24.1,11.5-41.3,11.6-41.4l0,0c0.2-0.3,0.4-0.4,0.7-0.5l0,0c0.3-0.1,0.6,0,0.8,0.2l0,0
				c0,0,7.8,5.5,20.2,9.3l0,0c4.7,0.7,8.7,0.9,12,0.9l0,0c5.4,0,9.1-0.7,11.4-1.3l0,0c2.3-0.6,3.2-1.2,3.2-1.2l0,0
				c0.5-0.3,1.2-0.2,1.5,0.3l0,0c0,0.1,13.1,19.5,13.2,36.7l0,0c0,0.7,0,1.4-0.1,2l0,0c-1.2,17.7-19.8,32.5-36.6,32.5l0,0
				C50.4,166.6,29,153.6,28.9,129.1L28.9,129.1z M31.2,129.1c0,23,20.3,35.3,35.9,35.3l0,0c15.5,0.1,33.4-14.2,34.3-30.4l0,0
				c0-0.6,0.1-1.3,0.1-1.9l0,0c0-8-3.2-16.9-6.4-23.8l0,0c-2.4-5.2-4.9-9.2-5.9-10.8l0,0c-1.9,0.8-6.5,2.3-14.8,2.3l0,0
				c-3.5,0-7.6-0.3-12.4-1l0,0l0.2-1.1l-0.3,1.1c-10.2-3.1-17.4-7.3-19.9-9l0,0C39.5,93.7,31.1,109,31.2,129.1L31.2,129.1z"/>
		</g>
		<g>
			<path class="st0" d="M58.1,139.9C50,123.4,62,97.8,62,97.8c-12.6-3.8-20.6-9.5-20.6-9.5S30,105.4,30,129.1
				c0,23.7,20.9,36.5,37,36.5c13,0,27.4-9.5,33-22C92.3,160.3,66.2,156.3,58.1,139.9z"/>
			<path d="M28.9,129.1c0-24.1,11.5-41.3,11.6-41.4l0,0c0.2-0.3,0.4-0.4,0.7-0.5l0,0c0.3-0.1,0.6,0,0.8,0.2l0,0
				c0,0,7.8,5.5,20.3,9.3l0,0c0.3,0.1,0.6,0.3,0.7,0.6l0,0c0.1,0.3,0.1,0.6,0,0.9l0,0c0,0-6.7,14.2-6.6,28l0,0
				c0,4.6,0.8,9.2,2.7,13.1l0,0l-1,0.5l-1,0.5c-2.1-4.3-2.9-9.2-2.9-14.1l0,0c0-12,4.7-24.1,6.3-27.8l0,0c-9.6-3-16.3-7-18.7-8.6
				l0,0c-2.3,3.9-10.7,19.1-10.6,39.2l0,0c0,23,20.3,35.3,35.9,35.3l0,0c8.6,0,18-4.4,24.8-11.1l0,0c-3,1.4-6.3,2.1-9.7,2.1l0,0
				c-9.8,0-20.3-5.5-25-15.1l0,0l1-0.5l1-0.5c4.3,8.7,14,13.8,23,13.8l0,0c7.2,0,13.7-3.1,16.9-10.1l0,0c0,0,0,0,0,0l0,0
				c0.1-0.1,0.1-0.2,0.2-0.3l0,0c0,0,0,0,0,0l0,0c0.1-0.1,0.2-0.2,0.4-0.2l0,0c0.3-0.1,0.6-0.1,0.8,0l0,0c0.1,0.1,0.2,0.1,0.3,0.2
				l0,0c0,0,0,0,0,0l0,0c0,0,0,0,0,0l0,0c0,0,0,0,0,0l0,0c0,0,0,0,0,0l0,0c0,0,0,0,0,0l0,0c0,0,0,0,0,0l0,0c0,0,0,0,0,0l0,0
				c0,0,0,0,0,0l0,0c0,0,0,0,0,0l0,0c0,0.1,0.1,0.1,0.1,0.2l0,0c0.1,0.2,0.1,0.5,0,0.7l0,0c0,0,0,0,0,0l0,0c0,0,0,0,0,0l0,0
				c0,0,0,0.1,0,0.1l0,0c-5.9,13-20.5,22.6-34.1,22.7l0,0C50.4,166.6,29,153.6,28.9,129.1L28.9,129.1z"/>
		</g>
		<path class="st3" d="M95.1,150c0.5-0.1,0.9-0.2,1.4-0.3c1.4-1.9,2.6-4,3.6-6.1C98.8,146.2,97.1,148.3,95.1,150z M38,125.3
			c0-14.9,4.5-27.2,7.9-34.3c-2.9-1.6-4.5-2.7-4.5-2.7S30,105.4,30,129.1c0,23.7,20.9,36.5,37,36.5c6.1,0,12.5-2.1,18.1-5.5
			c-3.3,1.1-6.8,1.8-10.1,1.8C58.9,161.8,38,149,38,125.3z"/>
		<path class="st3" d="M62,97.8c0,0-12,25.6-3.9,42.1c8.1,16.4,34.2,20.4,42,3.7c0,0,0,0,0-0.1C50.6,164.5,62,97.8,62,97.8z"/>
	</g>
	<g>
		<g>
			<path class="st0" d="M55.2,160.6c0,0,4.6,4.7,1.7,12.9"/>
			<path d="M55.8,173.1c1.4-3.8,1-6.7,0.3-8.7l0,0c-0.7-2-1.7-3-1.7-3l0,0l0,0c-0.4-0.4-0.4-1.1,0-1.6l0,0c0.4-0.4,1.1-0.4,1.6,0
				l0,0c0.1,0.1,5.1,5.3,1.9,14l0,0c-0.2,0.6-0.8,0.9-1.4,0.7l0,0C55.9,174.3,55.6,173.7,55.8,173.1L55.8,173.1z"/>
		</g>
	</g>
	<g>
		<path class="st4" d="M57.8,147.9c-11.2-5.9-1.7-13.2-8-19.9c-2.8-3-4.5-3.3-5.6-7c-0.7-2.4,1.6-4.2-2.2-5.7
			c-3.3,3.1-6.6,1.7-10.4,3.8c-0.3,0.2-0.6,0.4-0.9,0.7c-0.4,3-0.6,6-0.6,9.3c0,12.3,5.6,21.6,13.3,27.8c3.4,2.2,7.2,4,11.2,5.4
			c1.8-0.1,3.5-0.2,5.2-0.2C78.4,162.1,64.7,151.6,57.8,147.9z"/>
		<path d="M54.2,163.3c-4.1-1.4-8-3.3-11.5-5.6l0,0c-7.9-6.3-13.7-16-13.7-28.6l0,0c0-3.3,0.2-6.4,0.6-9.4l0,0
			c0-0.3,0.2-0.6,0.4-0.8l0,0c0.3-0.2,0.6-0.5,1.1-0.7l0,0c4.5-2.4,7.5-1,10.2-3.7l0,0c0.3-0.3,0.8-0.4,1.2-0.2l0,0
			c2,0.7,3,2.1,2.9,3.5l0,0c0,0.9-0.2,1.6-0.2,2.2l0,0c0,0.3,0,0.5,0.1,0.8l0,0c1,3.4,2.3,3.4,5.4,6.6l0,0c2.2,2.3,2.7,4.8,2.7,7.1
			l0,0c0,1.8-0.3,3.5-0.3,5l0,0c0.1,2.8,0.6,5,5.2,7.5l0,0l0,0c4.5,2.5,11.7,7,12,11.7l0,0c0,1.5-1.1,2.8-2.8,3.5l0,0
			c-1.7,0.7-4.1,1-7.6,1.1l0,0c0,0,0,0-0.1,0l0,0l-0.1,0v0c-1.7,0-3.4,0.1-5.1,0.2l0,0L54.2,163.3L54.2,163.3z M31.2,129.1
			c0,12,5.4,20.9,12.8,26.8l0,0c3.3,2.1,6.9,3.8,10.7,5.2l0,0c1.7-0.1,3.3-0.2,5-0.2l0,0c0,0,0,0,0,0l0,0c0,0,0.1,0,0.1,0l0,0
			c0,0,0,0,0.1,0l0,0c3.3,0,5.5-0.4,6.8-0.9l0,0c1.2-0.6,1.4-1,1.4-1.4l0,0c0.3-2.1-6.6-7.6-10.8-9.7l0,0l0.5-1l-0.5,1
			c-5.2-2.7-6.5-6.3-6.4-9.5l0,0c0-1.8,0.3-3.4,0.3-5l0,0c0-2-0.4-3.7-2.1-5.6l0,0c-2.5-2.7-4.7-3.3-5.9-7.5l0,0
			c-0.1-0.5-0.2-0.9-0.2-1.4l0,0c0-1,0.2-1.8,0.2-2.2l0,0c-0.1-0.4,0.1-0.6-1-1.1l0,0c-3.6,2.8-6.9,1.6-10.1,3.5l0,0
			c-0.1,0.1-0.3,0.2-0.4,0.3l0,0C31.3,123.2,31.2,126.1,31.2,129.1L31.2,129.1z"/>
	</g>
	<g>
		<g>
			<path class="st0" d="M88.7,151.3c-13.3,7.7-10.5,16.9-8.4,20.6c3.2,5.5,5.6,3.2,5.6,3.2l24.8-14.3c0,0,3.2-0.9,0-6.4
				C108.5,150.7,102,143.6,88.7,151.3z"/>
			<path d="M111.5,161.6c-0.1,0.1-0.3,0.1-0.4,0.2l0,0L86.5,176c-0.1,0.1-0.2,0.1-0.3,0.2l0,0c-0.5,0.3-1.6,0.7-2.9,0.2l0,0
				c-1.3-0.5-2.6-1.7-3.9-4l0,0c-1.1-2-2.5-5.5-1.7-9.6l0,0c0.8-4.1,3.7-8.6,10.5-12.5l0,0l0.6,1l0.6,1c-12.7,7.5-9.8,15.6-8,19.1
				l0,0c2.6,4.1,3.5,3,3.8,3l0,0c0.1,0,0.1,0,0.1-0.1l0,0l0.2-0.1l24.8-14.3l0.2-0.1c0,0,0,0,0.1,0l0,0c0.2-0.2,1.6-0.5-0.7-4.8l0,0
				c-2.1-3.3-7.6-9.9-20.5-2.6l0,0l-0.6-1l-0.6-1c6.8-3.9,12.2-4.2,16.1-2.8l0,0c3.9,1.4,6.3,4.3,7.4,6.3l0,0c1.3,2.3,1.7,4,1.5,5.4
				l0,0C112.9,160.5,112.1,161.2,111.5,161.6L111.5,161.6C111.5,161.6,111.5,161.6,111.5,161.6L111.5,161.6z"/>
		</g>
		<path class="st3" d="M80.3,171.9c3.2,5.5,5.6,3.2,5.6,3.2l5-2.9c-0.9,0.3-2.8,0.3-5-3.5c-2-3.4-4.5-11.6,5.7-18.8
			c-0.9,0.4-1.9,0.9-2.9,1.5C75.4,159,78.2,168.2,80.3,171.9z M110.6,160.8c0,0,0.3-0.1,0.6-0.3L110.6,160.8z"/>
		<path class="st3" d="M26,162.3c0,0,0.2,0.1,0.5,0.2L26,162.3z"/>
	</g>
	<g>
		<g>
			<path d="M100,166.9c-1.8-3.1-3.9-4.7-5.5-5.6l0,0c-1.6-0.9-2.7-1-2.7-1l0,0l0,0c-0.6-0.1-1.1-0.6-1-1.2l0,0
				c0.1-0.6,0.6-1.1,1.2-1l0,0c0.2,0,6,0.7,10,7.6l0,0c0.3,0.5,0.1,1.2-0.4,1.5l0,0C101,167.6,100.3,167.4,100,166.9L100,166.9z"/>
		</g>
		<g>
			<path d="M109.7,161.3c-2-3.5-4.5-5.1-6.5-5.8l0,0c-2-0.7-3.4-0.6-3.4-0.6l0,0l0,0c-0.6,0-1.2-0.4-1.2-1l0,0c0-0.6,0.4-1.1,1-1.2
				l0,0c0.2,0,7.4-0.5,12,7.5l0,0c0.3,0.5,0.1,1.2-0.4,1.5l0,0C110.7,162,110,161.9,109.7,161.3L109.7,161.3z"/>
		</g>
	</g>
	<g>
		<g>
			<path class="st0" d="M56.1,106.6c0,0,3.2,8.8,15.2,20.8c12,12,5.8,19.8,0.2,21.8l-2.8,1.2c-5.4,2.6-15.6,1.6-16.4-15.1
				c-0.9-16.7-5.3-24.9-5.3-24.9"/>
			<path d="M75.6,148.2c-1.1,1-2.4,1.7-3.6,2.1l0,0l-2.8,1.1c-3.7,1.8-9.7,2-13.8-2.8l0,0c-2.3-2.7-3.9-7-4.2-13.2l0,0
				c-0.4-8.2-1.7-14.4-2.9-18.5l0,0c-1.2-4.1-2.3-6-2.3-6l0,0c-0.3-0.5-0.1-1.2,0.4-1.5l0,0c0.5-0.3,1.2-0.1,1.5,0.4l0,0
				c0.1,0.1,4.6,8.5,5.5,25.4l0,0c0.3,5.9,1.8,9.6,3.7,11.9l0,0c3.3,3.9,8,3.7,11.2,2.2l0,0l2.9-1.2c1-0.4,2.1-0.9,3-1.7l0,0
				c3.2-2.8,5.3-7.8-1.4-15.9l0,0c-0.6-0.8-1.4-1.6-2.2-2.4l0,0c-2.3-2.3-4.3-4.5-6-6.5l0,0c-7.3-8.7-9.5-14.6-9.5-14.7l0,0
				c-0.2-0.6,0.1-1.2,0.7-1.4l0,0c0.6-0.2,1.2,0.1,1.4,0.7l0,0c0,0,2,5.6,9.1,14.1l0,0c1.7,2,3.6,4.1,5.8,6.3l0,0
				c0.9,0.9,1.6,1.7,2.3,2.5l0,0c3.6,4.3,5,8.1,4.9,11.4l0,0C79.3,143.9,77.6,146.5,75.6,148.2L75.6,148.2
				C75.6,148.2,75.6,148.2,75.6,148.2L75.6,148.2z"/>
		</g>
		<path class="st3" d="M73.1,139.7l-3.2,1.3c-6.2,3-17.8,1.8-18.8-17.3c-0.3-6.2-3.6-10.3-4.5-14.4l0,0c0,0,4.5,8.3,5.3,24.9
			c0.9,16.7,11.1,17.7,16.4,15.1l2.8-1.2c3.8-1.3,7.8-5.2,6.5-11.3C76.3,138.2,74.7,139.2,73.1,139.7z"/>
	</g>
	<g>
		<g>
			<path class="st4" d="M70.3,15.8c0,0,8-3.6,12.4-8c4.5-4.4,23.7-8,21.1,19c-2.6,27,6.5,31.2-0.6,30.1C96,55.7,75.8,26,67.6,28.2"
				/>
			<path d="M103,58c-4.3-0.9-10.4-8.1-17.3-15.1l0,0C79.1,35.7,71.9,29,68.5,29.2l0,0c-0.2,0-0.5,0-0.6,0.1l0,0
				c-0.6,0.2-1.2-0.2-1.4-0.7l0,0c-0.2-0.6,0.2-1.2,0.7-1.4l0,0c0.4-0.1,0.9-0.2,1.3-0.2l0,0c5.3,0.2,12,7.3,18.8,14.3l0,0
				c6.6,7.1,13.5,14.3,16,14.5l0,0c0.6,0.1,1.1,0.2,1.4,0.2l0,0c0,0,0.1,0,0.1,0l0,0c-0.1-1.6-2.7-7.7-2.6-19.6l0,0
				c0-2.8,0.1-6,0.5-9.6l0,0c0.2-1.7,0.2-3.2,0.2-4.6l0,0C102.8,9,97,6,91.5,5.9l0,0c-3.4,0-6.8,1.4-8,2.7l0,0
				c-4.7,4.6-12.7,8.1-12.8,8.2l0,0v0c-0.6,0.2-1.2,0-1.5-0.6l0,0c-0.3-0.6,0-1.2,0.6-1.5l0,0c0,0,7.9-3.6,12.1-7.7l0,0
				c1.9-1.8,5.6-3.3,9.6-3.4l0,0c3.2,0,6.7,1,9.3,4l0,0c2.6,2.9,4.3,7.5,4.3,14.4l0,0c0,1.5-0.1,3.1-0.2,4.8l0,0
				c-0.3,3.5-0.5,6.6-0.5,9.4l0,0c0,12.2,2.6,17.1,2.6,19.7l0,0c0,0.5-0.1,1.2-0.7,1.6l0,0c-0.5,0.4-1.1,0.5-1.6,0.5l0,0
				C104.2,58.1,103.7,58.1,103,58L103,58z"/>
		</g>
		<path class="st3" d="M70.3,15.8c0,0,8-3.6,12.4-8c4.5-4.4,23.7-8,21.1,19c-2.6,27,6.5,31.2-0.6,30.1C96,55.7,75.8,26,67.6,28.2"/>
		<g>
			<path class="st0" d="M103.8,55.4c0,0,2.4-13.5-1.9-21.8c-2.3-4.5-9-12.2-19.6-16.3c-0.4-4.4-3.7-6.7-3.7-3.9
				c0,0.8-0.4,1.7-0.9,2.5c-1-0.3-2.1-0.5-3.2-0.7c0,0,0,0,0,0c1.8-5.9-5.3-16.3-3.8-10.6c0.8,3.1-0.1,7.6-1.1,10.1
				c-0.6,0-1.2-0.1-1.7-0.1c0,0,0,0,0,0c0-6.4-9.2-13.8-6.6-10c2.5,3.7,0.5,10.3,0.5,10.3l0,0c-4.6,0.5-9.7,1.7-15.1,3.7
				c0,0-20,10.1-21.7,30.7C23.3,70,33.3,96.9,68.8,98c35.5,1.1,38.9-1.3,42.5-8.4c0,0,8.9,0.3,9.6-10.8
				C121.6,67.8,103.8,55.4,103.8,55.4z"/>
			<path d="M68.8,99.1c-33.6-0.9-45.1-25-45-45.2l0,0c0-1.6,0.1-3.1,0.2-4.6l0,0c1.9-21.3,22.3-31.5,22.5-31.6l0,0
				c5.2-2,10-3.2,14.5-3.7l0,0c0.2-0.9,0.5-2.5,0.5-4.2l0,0c0-1.6-0.3-3.3-1.1-4.4l0,0c-0.3-0.6-0.6-0.8-0.6-1.5l0,0
				c0-0.2,0.1-0.6,0.4-0.9l0,0c0.3-0.3,0.7-0.3,0.8-0.3l0,0c1.1,0.1,1.4,0.6,2.2,1.3l0,0c0.7,0.7,1.6,1.6,2.5,2.7l0,0
				c1.5,1.9,2.9,4.3,3.3,6.9l0,0c0.5-1.7,1-4,1-6.1l0,0c0-0.9-0.1-1.7-0.3-2.4l0,0c-0.2-0.6-0.2-1.1-0.2-1.5l0,0
				c0-0.3,0.1-1.5,1.3-1.6l0,0c1.2,0.2,1.3,0.8,1.9,1.4l0,0c0.5,0.7,1,1.6,1.5,2.6l0,0c1,2.1,1.8,4.7,1.8,7.3l0,0
				c0,0.4,0,0.8-0.1,1.3l0,0c0.4,0.1,0.9,0.2,1.3,0.3l0,0c0.2-0.4,0.3-0.9,0.3-1.2l0,0c0-1,0.5-2.3,1.8-2.3l0,0
				c2.1,0.3,3.4,2.4,3.9,5.5l0,0c10.6,4.3,17.2,11.9,19.6,16.5l0,0c2.2,4.2,2.7,9.5,2.7,13.8l0,0c0,3.6-0.4,6.7-0.6,8l0,0
				c3,2.2,16.8,12.6,17,23.2l0,0c0,0.2,0,0.5,0,0.7l0,0c-0.6,9.9-7.7,11.6-10,11.8l0,0c-1.5,2.8-3.3,5.2-7.3,6.5l0,0
				c-4.2,1.5-10.7,2.1-22.1,2.1l0,0C78.6,99.3,74.1,99.2,68.8,99.1L68.8,99.1z M63,15c-0.1,0.5-0.5,0.9-1,1l0,0
				c-4.5,0.5-9.5,1.6-14.7,3.6l0,0c0,0-4.8,2.4-9.9,7.4l0,0C32.2,32,27,39.5,26.1,49.4l0,0c-0.1,1.4-0.2,2.9-0.2,4.4l0,0
				c0.1,19.5,10.5,42,42.9,43l0,0c5.3,0.2,9.9,0.2,13.8,0.2l0,0c11.3,0,17.6-0.7,21.3-2l0,0c3.7-1.4,4.8-3.1,6.4-6l0,0
				c0.2-0.3,0.5-0.5,0.8-0.6l0,0c0,0,0.1,0,0.2,0l0,0c0.6-0.1,7.8,0,8.4-9.7l0,0c0-0.2,0-0.4,0-0.6l0,0c0-4.8-4-10.4-8.2-14.7l0,0
				c-4.2-4.3-8.4-7.2-8.4-7.2l0,0l0.6-0.9l1.1,0.2l-1.1-0.2l-0.6,0.9c-0.4-0.2-0.5-0.7-0.5-1.1l0,0c0,0,0.6-3.6,0.6-8.3l0,0
				c0-4.2-0.5-9.2-2.5-12.8l0,0c-2.2-4.2-8.7-11.8-19.1-15.7l0,0c-0.4-0.2-0.7-0.5-0.7-0.9l0,0c-0.1-1.8-0.9-3.2-1.4-3.8l0,0
				c-0.1,1-0.5,2-1,2.8l0,0c-0.3,0.4-0.7,0.6-1.2,0.5l0,0c-1-0.3-2-0.5-3.1-0.7l0,0c-0.3-0.1-0.6-0.3-0.8-0.6l0,0
				c-0.1-0.3-0.2-0.6-0.1-0.8l0,0c0.2-0.5,0.2-1.2,0.2-1.8l0,0c0-1.9-0.7-4.2-1.5-6l0,0c-0.1-0.1-0.1-0.3-0.2-0.4l0,0
				c0,0.2,0,0.4,0,0.6l0,0c0,2.8-0.7,5.8-1.4,7.8l0,0c-0.2,0.5-0.6,0.7-1.1,0.7l0,0c-0.6,0-1.1-0.1-1.7-0.1l0,0
				c-0.6,0-1.1-0.5-1.1-1.1l0,0v0c0.1-2.4-1.6-5.2-3.3-7.3l0,0c0.1,0.8,0.2,1.6,0.2,2.3l0,0c0,2.4-0.5,4.5-0.7,5.3l0,0
				C63,15,63,15,63,15L63,15z"/>
		</g>
		<path d="M68.8,99.1c-33.6-0.9-45.1-25-45-45.2l0,0c0-1.6,0.1-3.1,0.2-4.6l0,0c1.9-21.3,22.3-31.5,22.5-31.6l0,0
			c5.2-2,10-3.2,14.5-3.7l0,0c0.2-0.9,0.5-2.5,0.5-4.2l0,0c0-1.6-0.3-3.3-1.1-4.4l0,0c-0.3-0.6-0.6-0.8-0.6-1.5l0,0
			c0-0.2,0.1-0.6,0.4-0.9l0,0c0.3-0.3,0.7-0.3,0.8-0.3l0,0c1.1,0.1,1.4,0.6,2.2,1.3l0,0c0.7,0.7,1.6,1.6,2.5,2.7l0,0
			c1.5,1.9,2.9,4.3,3.3,6.9l0,0c0.5-1.7,1-4,1-6.1l0,0c0-0.9-0.1-1.7-0.3-2.4l0,0c-0.2-0.6-0.2-1.1-0.2-1.5l0,0
			c0-0.3,0.1-1.5,1.3-1.6l0,0c1.2,0.2,1.3,0.8,1.9,1.4l0,0c0.5,0.7,1,1.6,1.5,2.6l0,0c1,2.1,1.8,4.7,1.8,7.3l0,0
			c0,0.4,0,0.8-0.1,1.3l0,0c0.4,0.1,0.9,0.2,1.3,0.3l0,0c0.2-0.4,0.3-0.9,0.3-1.2l0,0c0-1,0.5-2.3,1.8-2.3l0,0
			c2.1,0.3,3.4,2.4,3.9,5.5l0,0c10.6,4.3,17.2,11.9,19.6,16.5l0,0c2.2,4.2,2.7,9.5,2.7,13.8l0,0c0,3.6-0.4,6.7-0.6,8l0,0
			c3,2.2,16.8,12.6,17,23.2l0,0c0,0.2,0,0.5,0,0.7l0,0c-0.6,9.9-7.7,11.6-10,11.8l0,0c-1.5,2.8-3.3,5.2-7.3,6.5l0,0
			c-4.2,1.5-10.7,2.1-22.1,2.1l0,0C78.6,99.3,74.1,99.2,68.8,99.1L68.8,99.1z M63,15c-0.1,0.5-0.5,0.9-1,1l0,0
			c-4.5,0.5-9.5,1.6-14.7,3.6l0,0c0,0-4.8,2.4-9.9,7.4l0,0C32.2,32,27,39.5,26.1,49.4l0,0c-0.1,1.4-0.2,2.9-0.2,4.4l0,0
			c0.1,19.5,10.5,42,42.9,43l0,0c5.3,0.2,9.9,0.2,13.8,0.2l0,0c11.3,0,17.6-0.7,21.3-2l0,0c3.7-1.4,4.8-3.1,6.4-6l0,0
			c0.2-0.3,0.5-0.5,0.8-0.6l0,0c0,0,0.1,0,0.2,0l0,0c0.6-0.1,7.8,0,8.4-9.7l0,0c0-0.2,0-0.4,0-0.6l0,0c0-4.8-4-10.4-8.2-14.7l0,0
			c-4.2-4.3-8.4-7.2-8.4-7.2l0,0l0.6-0.9l1.1,0.2l-1.1-0.2l-0.6,0.9c-0.4-0.2-0.5-0.7-0.5-1.1l0,0c0,0,0.6-3.6,0.6-8.3l0,0
			c0-4.2-0.5-9.2-2.5-12.8l0,0c-2.2-4.2-8.7-11.8-19.1-15.7l0,0c-0.4-0.2-0.7-0.5-0.7-0.9l0,0c-0.1-1.8-0.9-3.2-1.4-3.8l0,0
			c-0.1,1-0.5,2-1,2.8l0,0c-0.3,0.4-0.7,0.6-1.2,0.5l0,0c-1-0.3-2-0.5-3.1-0.7l0,0c-0.3-0.1-0.6-0.3-0.8-0.6l0,0
			c-0.1-0.3-0.2-0.6-0.1-0.8l0,0c0.2-0.5,0.2-1.2,0.2-1.8l0,0c0-1.9-0.7-4.2-1.5-6l0,0c-0.1-0.1-0.1-0.3-0.2-0.4l0,0
			c0,0.2,0,0.4,0,0.6l0,0c0,2.8-0.7,5.8-1.4,7.8l0,0c-0.2,0.5-0.6,0.7-1.1,0.7l0,0c-0.6,0-1.1-0.1-1.7-0.1l0,0
			c-0.6,0-1.1-0.5-1.1-1.1l0,0v0c0.1-2.4-1.6-5.2-3.3-7.3l0,0c0.1,0.8,0.2,1.6,0.2,2.3l0,0c0,2.4-0.5,4.5-0.7,5.3l0,0
			C63,15,63,15,63,15L63,15z"/>
		<path class="st4" d="M101.9,33.7c-2.1-4.1-7.8-10.6-16.7-14.9c0,0,0.1,0,0.1,0c-1-0.5-2-0.9-3-1.3c-0.4-4.4-3.7-6.7-3.7-3.9
			c0,0.8-0.4,1.7-0.9,2.5c-0.2-0.1-0.4-0.1-0.6-0.1c-0.1,0-0.2-0.1-0.4-0.1c0,0,0,0,0,0c-0.7-0.2-1.4-0.3-2.2-0.5c0,0,0,0,0,0
			c1.8-5.9-5.3-16.3-3.8-10.6c0.8,3.1-0.1,7.6-1.1,10.1c-0.6,0-1.2-0.1-1.7-0.1v0c0-6.4-9.2-13.8-6.6-10c2.5,3.7,0.5,10.3,0.5,10.3
			l0,0c-0.6,0.1-1.3,0.2-1.9,0.3c-0.3,0-0.7,0.1-1,0.1c0,0-0.1,0-0.1,0c0,0,0,0,0,0C55,16,51,17,46.8,18.7c0,0-20,10.1-21.7,30.7
			c-0.5,5.5-0.1,11.4,1.4,17.2C39.5,76.1,72.7,68,78,52.7c3.5-10-3.1-12-6.2-19.8c-1.1-2.7-3-11.8-3.2-14.7c0.3-0.8,0.5-1.6,0.4-2.6
			c1.3,1.6,2.6,3.5,3.1,5.6c-0.2-0.9-0.1-2-0.2-2.9c0.3,0.6,1.4,1.3,1.8,2.1c0.6-1.2,1.2-2.4,1.9-3.6c0,0,0.2,0.4,0.3,0.4
			c0,0,0-0.2,0-0.3c0.1,1.1,0.5,2.3,0.6,3.4c0-0.1,0.1-0.2,0.2-0.2c0.3,1.2,3.8,7.6,4.5,8.2c0.2-0.4-2.7-6.7-2.5-7.1
			c0.3-0.2,0.5,0.5,0.6,0.3c0.2-0.2,0.3-0.4,0.3-0.5c0.4,0.7,3.7,7.3,4,8c5.6,9.7-0.8,25.5,13.2,27c2.1,0.2,4.6-1.3,7-1.3
			C104.4,51.5,105.6,40.7,101.9,33.7z"/>
		<g>
			<path class="st0" d="M111.3,89.6c0,0-28.8,13.9-49.6-11.4"/>
			<path d="M60.8,78.8c-0.4-0.5-0.3-1.2,0.2-1.6l0,0c0.5-0.4,1.2-0.3,1.6,0.1l0,0c9.7,11.8,21.1,14.8,30.4,14.8l0,0
				c10.2,0,17.9-3.7,17.9-3.7l0,0c0.6-0.3,1.2,0,1.5,0.5l0,0c0.3,0.6,0,1.2-0.5,1.5l0,0c-0.1,0-8.1,3.9-18.9,3.9l0,0
				c0,0-0.1,0-0.1,0l0,0C83,94.5,70.9,91.1,60.8,78.8L60.8,78.8z"/>
		</g>
		<path class="st3" d="M101.3,64.4c-5.3,0-8,4.6-4.8,8.2c-1.2,4.7,0.4,7.7,5.4,8.1c-0.1,0.7-1,1.9-0.6,2.6c7.2,2,18.3,6.4,19.9-5.3
			c1.1-7.6-7.3-13.1-14.6-13.6"/>
		<path class="st5" d="M101.3,60.4c-0.8,0.5-0.8,1.5,0.1,1.7c0.3,0.8,0.8,1.1,1.6,0.7c0.1,0.1,0,0.4,0.2,0.5
			c1.3-0.4,3.3-0.8,2.5-2.7c-0.6-1.2-2.4-1.3-3.5-0.6"/>
		<path d="M115.1,63.8c0,0-18.8-3.1-17.2,6.3c1.6,9.4,8.3,14.1,16.2,14.1C121.9,84.1,136.8,62.5,115.1,63.8z"/>
		<path d="M68.8,99.1c-33.6-0.9-45.1-25-45-45.2l0,0c0-1.6,0.1-3.1,0.2-4.6l0,0c1.9-21.3,22.3-31.5,22.5-31.6l0,0
			c5.2-2,10-3.2,14.5-3.7l0,0c0.2-0.9,0.5-2.5,0.5-4.2l0,0c0-1.6-0.3-3.3-1.1-4.4l0,0c-0.3-0.6-0.6-0.8-0.6-1.5l0,0
			c0-0.2,0.1-0.6,0.4-0.9l0,0c0.3-0.3,0.7-0.3,0.8-0.3l0,0c1.1,0.1,1.4,0.6,2.2,1.3l0,0c0.7,0.7,1.6,1.6,2.5,2.7l0,0
			c1.5,1.9,2.9,4.3,3.3,6.9l0,0c0.5-1.7,1-4,1-6.1l0,0c0-0.9-0.1-1.7-0.3-2.4l0,0c-0.2-0.6-0.2-1.1-0.2-1.5l0,0
			c0-0.3,0.1-1.5,1.3-1.6l0,0c1.2,0.2,1.3,0.8,1.9,1.4l0,0c0.5,0.7,1,1.6,1.5,2.6l0,0c1,2.1,1.8,4.7,1.8,7.3l0,0
			c0,0.4,0,0.8-0.1,1.3l0,0c0.4,0.1,0.9,0.2,1.3,0.3l0,0c0.2-0.4,0.3-0.9,0.3-1.2l0,0c0-1,0.5-2.3,1.8-2.3l0,0
			c2.1,0.3,3.4,2.4,3.9,5.5l0,0c10.6,4.3,17.2,11.9,19.6,16.5l0,0c2.2,4.2,2.7,9.5,2.7,13.8l0,0c0,3.6-0.4,6.7-0.6,8l0,0
			c3,2.2,16.8,12.6,17,23.2l0,0c0,0.2,0,0.5,0,0.7l0,0c-0.6,9.9-7.7,11.6-10,11.8l0,0c-1.5,2.8-3.3,5.2-7.3,6.5l0,0
			c-4.2,1.5-10.7,2.1-22.1,2.1l0,0C78.6,99.3,74.1,99.2,68.8,99.1L68.8,99.1z M63,15c-0.1,0.5-0.5,0.9-1,1l0,0
			c-4.5,0.5-9.5,1.6-14.7,3.6l0,0c0,0-4.8,2.4-9.9,7.4l0,0C32.2,32,27,39.5,26.1,49.4l0,0c-0.1,1.4-0.2,2.9-0.2,4.4l0,0
			c0.1,19.5,10.5,42,42.9,43l0,0c5.3,0.2,9.9,0.2,13.8,0.2l0,0c11.3,0,17.6-0.7,21.3-2l0,0c3.7-1.4,4.8-3.1,6.4-6l0,0
			c0.2-0.3,0.5-0.5,0.8-0.6l0,0c0,0,0.1,0,0.2,0l0,0c0.6-0.1,7.8,0,8.4-9.7l0,0c0-0.2,0-0.4,0-0.6l0,0c0-4.8-4-10.4-8.2-14.7l0,0
			c-4.2-4.3-8.4-7.2-8.4-7.2l0,0l0.6-0.9l1.1,0.2l-1.1-0.2l-0.6,0.9c-0.4-0.2-0.5-0.7-0.5-1.1l0,0c0,0,0.6-3.6,0.6-8.3l0,0
			c0-4.2-0.5-9.2-2.5-12.8l0,0c-2.2-4.2-8.7-11.8-19.1-15.7l0,0c-0.4-0.2-0.7-0.5-0.7-0.9l0,0c-0.1-1.8-0.9-3.2-1.4-3.8l0,0
			c-0.1,1-0.5,2-1,2.8l0,0c-0.3,0.4-0.7,0.6-1.2,0.5l0,0c-1-0.3-2-0.5-3.1-0.7l0,0c-0.3-0.1-0.6-0.3-0.8-0.6l0,0
			c-0.1-0.3-0.2-0.6-0.1-0.8l0,0c0.2-0.5,0.2-1.2,0.2-1.8l0,0c0-1.9-0.7-4.2-1.5-6l0,0c-0.1-0.1-0.1-0.3-0.2-0.4l0,0
			c0,0.2,0,0.4,0,0.6l0,0c0,2.8-0.7,5.8-1.4,7.8l0,0c-0.2,0.5-0.6,0.7-1.1,0.7l0,0c-0.6,0-1.1-0.1-1.7-0.1l0,0
			c-0.6,0-1.1-0.5-1.1-1.1l0,0v0c0.1-2.4-1.6-5.2-3.3-7.3l0,0c0.1,0.8,0.2,1.6,0.2,2.3l0,0c0,2.4-0.5,4.5-0.7,5.3l0,0
			C63,15,63,15,63,15L63,15z"/>
		<path class="st0" d="M119.8,66.7c0,0-7-1.2-6.4,2.3c0.6,3.5,3.1,5.2,6,5.2C122.3,74.2,127.8,66.2,119.8,66.7z"/>
		<path class="st3" d="M78.4,98.1C41.2,97,30.7,68.9,32.5,47.4C34,30,48.1,19.7,53.4,16.5c-2.1,0.6-4.3,1.3-6.6,2.1
			c0,0-20,10.1-21.7,30.7C23.3,70,33.3,96.9,68.8,98c5.1,0.2,9.5,0.2,13.4,0.2C80.9,98.2,79.7,98.2,78.4,98.1z"/>
		<g>
			<path class="st4" d="M51.8,19.1c0,0-8-3.6-12.4-8c-4.5-4.4-23.7-8-21.1,19c2.6,27-6.5,31.2,0.6,30.1C26,59,46.3,29.3,54.4,31.5"
				/>
			<path d="M15.6,60.9c-0.5-0.4-0.7-1.1-0.7-1.6l0,0c0.1-2.6,2.6-7.6,2.7-19.7l0,0c0-2.8-0.1-5.9-0.5-9.4l0,0
				c-0.2-1.7-0.2-3.3-0.2-4.9l0,0c0-6.9,1.7-11.5,4.3-14.4l0,0c2.6-2.9,6.1-4,9.3-4l0,0c4,0,7.7,1.5,9.6,3.4l0,0
				c4.3,4.2,12.1,7.7,12.1,7.7l0,0c0.6,0.2,0.8,0.9,0.6,1.5l0,0c-0.3,0.6-0.9,0.8-1.5,0.6l0,0c0,0-8-3.6-12.8-8.2l0,0
				c-1.3-1.3-4.6-2.8-8-2.7l0,0c-5.5,0.1-11.3,3.1-11.4,16.2l0,0c0,1.4,0.1,3,0.2,4.6l0,0c0.3,3.6,0.5,6.8,0.5,9.6l0,0
				c0,11.9-2.6,18-2.7,19.6l0,0c0,0,0,0,0.1,0l0,0c0.3,0,0.8,0,1.4-0.1l0,0c2.5-0.2,9.4-7.4,16-14.5l0,0c6.8-7,13.4-14.1,18.8-14.3
				l0,0c0.4,0,0.8,0,1.3,0.2l0,0c0.6,0.2,0.9,0.8,0.7,1.4l0,0c-0.2,0.6-0.8,0.9-1.4,0.7l0,0c-0.2-0.1-0.4-0.1-0.6-0.1l0,0
				c-3.3-0.2-10.6,6.6-17.2,13.6l0,0c-6.8,7-12.9,14.2-17.3,15.1l0,0c-0.7,0.1-1.3,0.2-1.8,0.2l0,0C16.7,61.4,16.2,61.4,15.6,60.9
				L15.6,60.9z"/>
		</g>
		<path d="M104.2,45.8c0-3.2-2.5-5.9-5.7-6.3c-1-0.1-2,0.1-2.9,0.3c-2.6,0.9-4.4,3.2-4.4,6c0,3.5,2.9,6.3,6.5,6.3c0.2,0,0.3,0,0.5,0
			c0.7-0.1,1.4-0.3,2.1-0.5C102.6,50.6,104.2,48.4,104.2,45.8z"/>
		<ellipse class="st0" cx="98.9" cy="44.5" rx="3.7" ry="2.6"/>
		<path d="M73.5,45.8c0-3.8-3-7-6.8-7.4c-1.2-0.1-2.3,0.1-3.4,0.3c-3,1-5.2,3.8-5.2,7.1c0,4.1,3.4,7.5,7.7,7.5c0.2,0,0.4,0,0.6,0
			c0.9-0.1,1.7-0.3,2.5-0.6C71.6,51.4,73.5,48.8,73.5,45.8z"/>
		<ellipse class="st0" cx="67.2" cy="44.3" rx="4.4" ry="3"/>
	</g>
</g>
</svg>
