<?xml version="1.0" encoding="utf-8"?>
<!-- Generator: Adobe Illustrator 19.2.0, SVG Export Plug-In . SVG Version: 6.00 Build 0)  -->
<svg version="1.1" id="Layer_1" xmlns="http://www.w3.org/2000/svg" xmlns:xlink="http://www.w3.org/1999/xlink" x="0px" y="0px"
	 viewBox="0 0 152.5 185.6" style="enable-background:new 0 0 152.5 185.6;" xml:space="preserve">
<style type="text/css">
	.st0{fill:#FFFFFF;}
	.st1{opacity:0.2;}
	.st2{fill:#DBBEC0;}
	.st3{fill:#F5928D;}
	.st4{fill:#B96128;}
	.st5{opacity:0.7;fill:#F69F89;}
</style>
<g>
	<g>
		<path class="st0" d="M76.5,153.2L61,142.7c-48.3-7.1-56.3-38.2-58.4-36.6c-1.1,0.8-1.1,2.5-0.9,3.8c-0.2-0.1-0.4-0.3-0.6-0.4
			c0.2,2.9,1.4,6.6,3.4,9c2.3,8.2,12.7,15.3,18.8,22c-0.3,0.4-0.7,0.7-1,1.1c2,2.2,4.1,4.4,6.1,6.6c-0.6,0.2-1.2,0.7-1.7,0.9
			c3.7,2.9,9.4,1.1,13.5,2.6c2.6,1,6,2.6,8.1,4c-0.6,0.4-1.1,1-1.7,1.4c3.4,1.8,7.9-0.2,11.4,0.4c0,0.4-0.5,0.3-0.5,0.6
			c3.1-0.2,6.3-1,8.4-3.5C72.4,154.5,76.5,153.2,76.5,153.2z"/>
		<path d="M56.5,158.8c-0.1-0.1-0.2-0.3-0.2-0.4l0,0c0,0,0,0,0,0l0,0c-1.8,0-3.9,0.5-6.2,0.5l0,0c-1.4,0-2.8-0.2-4.1-0.9l0,0
			c-0.3-0.2-0.6-0.5-0.6-0.9l0,0c0-0.4,0.2-0.8,0.5-1l0,0c0.1-0.1,0.3-0.2,0.4-0.3l0,0c-2-1.1-4.6-2.4-6.6-3.1l0,0
			c-3.4-1.5-9.3,0.6-13.7-2.8l0,0c-0.3-0.3-0.5-0.7-0.4-1.1l0,0c0.1-0.4,0.3-0.7,0.7-0.9l0,0c0.1,0,0.2-0.1,0.3-0.1l0,0
			c-1.7-1.8-3.4-3.7-5.1-5.5l0,0c-0.4-0.4-0.4-1-0.1-1.4l0,0c0.1-0.2,0.3-0.3,0.4-0.5l0,0c-5.9-6.3-15.6-13-18.2-21.4l0,0
			c-2.1-2.6-3.3-6.4-3.5-9.4l0,0c0-0.4,0.2-0.8,0.5-1l0,0c0,0,0,0,0,0l0,0c0-1.1,0.3-2.5,1.4-3.4l0,0c0.3-0.2,0.6-0.3,0.9-0.3l0,0
			c1.4,0.2,1.5,1,2.2,1.8l0,0c0.6,0.9,1.3,2,2.2,3.5l0,0c1.9,2.9,4.6,6.7,8.7,10.8l0,0c8.2,8.1,21.9,17.2,45.3,20.6l0,0l0.5,0.2
			l15.4,10.5l-0.6,0.9l0.6-0.9c0.3,0.2,0.5,0.7,0.5,1.1l0,0c-0.1,0.4-0.4,0.8-0.7,0.9l0,0c-0.1,0-4,1.3-10.5,1.4l0,0
			c-2.4,2.5-5.8,3.3-8.9,3.5l0,0c0,0-0.1,0-0.1,0l0,0C57,159.2,56.7,159.1,56.5,158.8L56.5,158.8z M58.1,156.4
			c0.3,0.1,0.5,0.2,0.7,0.5l0,0c2.4-0.4,4.6-1.2,6.1-3l0,0c0.2-0.2,0.5-0.4,0.8-0.4l0,0c3.5,0,6.2-0.4,8-0.7l0,0l-13.1-9
			c-34.4-5.1-48.7-22.4-54.7-31.5l0,0c-1.4-2.1-2.5-3.8-3-4.7l0,0c-0.1,0.3-0.2,0.6-0.2,1l0,0c0,0.4,0,0.7,0.1,1.1l0,0
			c0.1,0.4-0.1,0.9-0.5,1.1l0,0c0.4,2.5,1.4,5.2,2.9,6.9l0,0l0.2,0.4c2.1,7.6,12.3,14.7,18.5,21.5l0,0c0.4,0.4,0.4,1.1,0,1.5l0,0
			c-0.1,0.1-0.2,0.2-0.3,0.4l0,0c1.8,1.9,3.6,3.9,5.4,5.8l0,0c0.2,0.3,0.4,0.6,0.3,1l0,0c-0.1,0.3-0.2,0.6-0.5,0.7l0,0
			c3.1,1.1,7.6,0.1,11.5,1.5l0,0c2.6,1,6,2.7,8.3,4.1l0,0c0.3,0.2,0.5,0.5,0.5,0.9l0,0c0,0.4-0.2,0.7-0.5,0.9l0,0c0,0-0.1,0-0.1,0.1
			l0,0c0.4,0.1,0.9,0.1,1.3,0.1l0,0c1.9,0,4-0.5,6.2-0.5l0,0C56.8,156.2,57.5,156.3,58.1,156.4L58.1,156.4z"/>
	</g>
	<g>
		<path class="st0" d="M120.4,122.4c0,0,3.9-8.5,17-19.4c13-10.9,7.5-19.3,2.1-21.7l-2.7-1.4c-5.1-3.1-15.4-3-17.7,13.6
			c-2.3,16.5-7.5,24.4-7.5,24.4"/>
		<path d="M119.9,123.5c-0.6-0.3-0.8-0.9-0.5-1.5l0,0c0.1-0.1,4.1-8.8,17.3-19.8l0,0c5.8-4.9,7.6-9,7.6-12.1l0,0
			c0-3.7-2.6-6.5-5.4-7.7l0,0l-2.8-1.4c-1.4-0.8-3.2-1.4-5-1.4l0,0c-4.3,0.1-9.3,2.8-11,14.2l0,0c-2.3,16.7-7.6,24.7-7.7,24.8l0,0
			c-0.3,0.5-1,0.6-1.5,0.3l0,0c-0.5-0.3-0.7-1-0.3-1.5l0,0c0,0,1.2-1.8,2.8-5.8l0,0c1.6-3.9,3.4-10,4.5-18.1l0,0
			c1.6-11.9,7.6-16.1,13.2-16.1l0,0c2.3,0,4.5,0.7,6.1,1.7l0,0l2.7,1.4c3.3,1.5,6.6,4.9,6.6,9.8l0,0c0,4-2.3,8.8-8.4,13.9l0,0
			c-6.5,5.4-10.6,10.2-13.2,13.6l0,0c-2.6,3.4-3.5,5.4-3.5,5.4l0,0c-0.2,0.4-0.6,0.6-1,0.6l0,0C120.2,123.6,120.1,123.5,119.9,123.5
			L119.9,123.5z"/>
	</g>
	<path class="st1" d="M120.4,122.4c0,0,3.9-8.5,17-19.4c13-10.9,7.5-19.3,2.1-21.7l-2.7-1.4c-5.1-3.1-15.4-3-17.7,13.6
		c-2.3,16.5-7.5,24.4-7.5,24.4"/>
	<g>
		<path class="st2" d="M135.5,93.8c-0.9,2.1-4,2.9-6.9,1.7c-2.8-1.2-4.4-3.8-3.5-5.9c1-2.1,4-2.9,6.9-1.7
			C134.9,89,136.5,91.7,135.5,93.8z"/>
		<path class="st2" d="M128.8,85.2c-0.4,0.9-1.5,1.2-2.5,0.8c-1-0.4-1.5-1.4-1.1-2.3c0.4-0.9,1.5-1.2,2.5-0.8
			C128.7,83.4,129.2,84.4,128.8,85.2z"/>
		<path class="st2" d="M133.9,85c-0.4,0.9-1.5,1.2-2.5,0.8c-1-0.4-1.5-1.4-1.1-2.3c0.4-0.9,1.5-1.2,2.5-0.8
			C133.8,83.1,134.3,84.1,133.9,85z"/>
		<path class="st2" d="M138.8,87c-0.4,0.9-1.5,1.2-2.5,0.8c-1-0.4-1.5-1.4-1.1-2.3c0.4-0.9,1.5-1.2,2.5-0.8
			C138.7,85.1,139.2,86.1,138.8,87z"/>
		<path class="st2" d="M140.3,92.8c-0.4,0.9-1.5,1.2-2.5,0.8c-1-0.4-1.5-1.4-1.1-2.3c0.4-0.9,1.5-1.2,2.5-0.8
			C140.2,90.9,140.7,91.9,140.3,92.8z"/>
	</g>
	<g>
		<g>
			<path class="st3" d="M135.5,93.8c-0.9,2.1-4,2.9-6.9,1.7c-2.8-1.2-4.4-3.8-3.5-5.9c1-2.1,4-2.9,6.9-1.7
				C134.9,89,136.5,91.7,135.5,93.8z"/>
			<path class="st3" d="M128.8,85.2c-0.4,0.9-1.5,1.2-2.5,0.8c-1-0.4-1.5-1.4-1.1-2.3c0.4-0.9,1.5-1.2,2.5-0.8
				C128.7,83.4,129.2,84.4,128.8,85.2z"/>
			<path class="st3" d="M133.9,85c-0.4,0.9-1.5,1.2-2.5,0.8c-1-0.4-1.5-1.4-1.1-2.3c0.4-0.9,1.5-1.2,2.5-0.8
				C133.8,83.1,134.3,84.1,133.9,85z"/>
			<path class="st3" d="M138.8,87c-0.4,0.9-1.5,1.2-2.5,0.8c-1-0.4-1.5-1.4-1.1-2.3c0.4-0.9,1.5-1.2,2.5-0.8
				C138.7,85.1,139.2,86.1,138.8,87z"/>
			<path class="st3" d="M140.3,92.8c-0.4,0.9-1.5,1.2-2.5,0.8c-1-0.4-1.5-1.4-1.1-2.3c0.4-0.9,1.5-1.2,2.5-0.8
				C140.2,90.9,140.7,91.9,140.3,92.8z"/>
		</g>
	</g>
	<g>
		<g>
			<path class="st0" d="M123,157c-8.5-12.7-17.5-9.3-21.1-7c-5.3,3.5-2.8,5.8-2.8,5.8l15.9,23.8c0,0,1.1,3.1,6.4-0.4
				C125,176.8,131.6,169.7,123,157z"/>
			<path d="M114.1,180l-15.8-23.5c-0.3-0.3-0.8-1-0.8-2.2l0,0c0-1.5,1-3.3,3.9-5.2l0,0c1.7-1.1,4.5-2.5,7.9-2.5l0,0
				c4.5,0,9.8,2.3,14.7,9.7l0,0L123,157l-0.9,0.6c-4.7-7-9.2-8.7-12.9-8.7l0,0c-2.8,0-5.2,1.1-6.6,2.1l0,0c-2.6,1.7-2.9,2.9-2.9,3.4
				l0,0c0,0.2,0.1,0.4,0.1,0.5l0,0c0.1,0.1,0.1,0.1,0.1,0.1l0,0l0.2,0.2l15.9,23.8l0.1,0.2c0,0,0,0.1,0.2,0.2l0,0
				c0.2,0.1,0.4,0.3,1,0.3l0,0c0.6,0,1.8-0.3,3.6-1.5l0,0c2.1-1.4,5.3-4.5,5.3-9.6l0,0c0-2.9-1-6.5-4-11l0,0l0.9-0.6l0.9-0.6
				c3.2,4.7,4.4,8.8,4.4,12.2l0,0c0,6.1-3.8,9.9-6.3,11.5l0,0c-2,1.3-3.6,1.9-4.8,1.9l0,0C115.1,181.9,114.2,180.5,114.1,180
				L114.1,180z"/>
		</g>
		<path class="st1" d="M102,150c-5.3,3.5-2.8,5.8-2.8,5.8l4.9,7.3c-0.4-0.9-0.5-2.7,3.2-5.2c3.1-2.1,10.6-5,18.2,3.3
			c-0.6-1.3-1.4-2.7-2.3-4.1C114.5,144.3,105.5,147.7,102,150z M115.1,179.6c0,0,0.1,0.3,0.4,0.6L115.1,179.6z"/>
		<path class="st1" d="M118.1,184.1c0,0,0.1,0.2,0.3,0.4L118.1,184.1z"/>
	</g>
	<g>
		<g>
			<path class="st0" d="M85.5,98.1c-12.6-3.8-20.6-9.5-20.6-9.5s-11.4,17.1-11.4,40.8s20.9,36.5,37,36.5c16.1,0,34.3-14.5,35.5-31.5
				c1.1-17-12.9-38-12.9-38S105.5,101,85.5,98.1z"/>
			<path d="M52.4,129.4c0-24.1,11.5-41.3,11.6-41.4l0,0c0.2-0.2,0.4-0.4,0.7-0.5l0,0c0.3-0.1,0.6,0,0.8,0.2l0,0
				c0,0,7.8,5.5,20.2,9.3l0,0c4.7,0.7,8.7,0.9,12.1,0.9l0,0c5.4,0,9.1-0.6,11.4-1.3l0,0c2.3-0.6,3.2-1.2,3.2-1.2l0,0
				c0.5-0.3,1.2-0.2,1.5,0.3l0,0c0,0.1,13.1,19.5,13.2,36.7l0,0c0,0.7,0,1.4-0.1,2l0,0c-1.3,17.7-19.8,32.5-36.6,32.5l0,0
				C73.8,167,52.4,153.9,52.4,129.4L52.4,129.4z M54.6,129.4c0,23,20.3,35.3,35.9,35.3l0,0c15.5,0.1,33.4-14.2,34.3-30.4l0,0
				c0-0.6,0.1-1.3,0.1-1.9l0,0c0-8-3.2-16.9-6.4-23.8l0,0c-2.4-5.2-4.9-9.2-5.9-10.8l0,0c-1.9,0.8-6.5,2.3-14.8,2.3l0,0
				c-3.5,0-7.6-0.3-12.4-1l0,0l0.2-1.1l-0.3,1.1c-10.2-3.1-17.4-7.3-19.9-9l0,0C63,94.1,54.6,109.3,54.6,129.4L54.6,129.4z"/>
		</g>
		<g>
			<path class="st0" d="M81.5,140.2c-8.1-16.4,3.9-42.1,3.9-42.1c-12.6-3.8-20.6-9.5-20.6-9.5s-11.4,17.1-11.4,40.8
				s20.9,36.5,37,36.5c13,0,27.4-9.5,33-22C115.8,160.6,89.7,156.6,81.5,140.2z"/>
			<path d="M52.4,129.4c0-24.1,11.5-41.3,11.6-41.4l0,0c0.2-0.2,0.4-0.4,0.7-0.5l0,0c0.3-0.1,0.6,0,0.8,0.2l0,0
				c0,0,7.8,5.5,20.3,9.3l0,0c0.3,0.1,0.6,0.3,0.7,0.6l0,0c0.1,0.3,0.1,0.6,0,0.9l0,0c0,0-6.7,14.2-6.6,28l0,0
				c0,4.6,0.7,9.2,2.7,13.1l0,0l-1,0.5l-1,0.5c-2.1-4.4-2.9-9.2-2.9-14.1l0,0c0-12,4.7-24.1,6.3-27.8l0,0c-9.6-3-16.3-7-18.7-8.6
				l0,0c-2.3,3.9-10.7,19.1-10.6,39.2l0,0c0,23,20.3,35.3,35.9,35.3l0,0c8.6,0,18-4.4,24.8-11.1l0,0c-3,1.4-6.3,2.1-9.7,2.1l0,0
				c-9.8,0-20.3-5.5-25-15.1l0,0l1-0.5l1-0.5c4.3,8.7,14,13.8,23,13.8l0,0c7.2,0,13.7-3.2,16.9-10.1l0,0c0.3-0.6,0.9-0.8,1.5-0.5
				l0,0c0.6,0.3,0.8,0.9,0.6,1.5l0,0c-5.9,13-20.5,22.7-34.1,22.7l0,0C73.8,167,52.4,153.9,52.4,129.4L52.4,129.4z"/>
		</g>
		<path class="st1" d="M118.5,150.3c0.5-0.1,0.9-0.2,1.4-0.3c1.4-1.9,2.6-4,3.6-6.1C122.3,146.5,120.6,148.7,118.5,150.3z
			 M61.5,125.6c0-14.9,4.5-27.2,7.9-34.3c-2.9-1.6-4.5-2.7-4.5-2.7s-11.4,17.1-11.4,40.8s20.9,36.5,37,36.5c6.1,0,12.5-2.1,18.1-5.5
			c-3.3,1.1-6.8,1.8-10.1,1.8C82.3,162.1,61.5,149.4,61.5,125.6z"/>
		<path class="st1" d="M85.5,98.1c0,0-12,25.6-3.9,42.1c8.1,16.4,34.2,20.4,42,3.7c0,0,0,0,0-0.1C74,164.8,85.5,98.1,85.5,98.1z"/>
	</g>
	<g>
		<g>
			<path class="st0" d="M121.7,168.8c0,0,1,6.6-6.2,11.4"/>
			<path d="M114.5,180.7c-0.3-0.5-0.2-1.2,0.3-1.5l0,0c5.3-3.6,5.8-8,5.8-9.7l0,0c0-0.4,0-0.6,0-0.6l0,0c-0.1-0.6,0.3-1.2,0.9-1.3
				l0,0c0.6-0.1,1.2,0.3,1.3,0.9l0,0c0,0,0.1,0.4,0.1,0.9l0,0c0,2.1-0.7,7.5-6.8,11.5l0,0c-0.2,0.1-0.4,0.2-0.6,0.2l0,0
				C115.1,181.2,114.7,181.1,114.5,180.7L114.5,180.7z"/>
		</g>
	</g>
	<g>
		<path class="st4" d="M81.2,148.3c-11.2-5.9-1.7-13.2-8-19.9c-2.8-3-4.5-3.3-5.6-7c-0.7-2.4,1.6-4.2-2.2-5.7
			c-3.3,3.1-6.6,1.7-10.4,3.8c-0.3,0.2-0.6,0.4-0.9,0.7c-0.4,3-0.6,6-0.6,9.3c0,12.3,5.6,21.6,13.3,27.8c3.4,2.2,7.2,4,11.2,5.4
			c1.8-0.1,3.5-0.2,5.2-0.2C101.9,162.4,88.1,151.9,81.2,148.3z"/>
		<path d="M77.6,163.6c-4.1-1.4-8-3.2-11.5-5.5l0,0c-7.9-6.3-13.7-16-13.7-28.6l0,0c0-3.3,0.2-6.4,0.6-9.4l0,0
			c0-0.3,0.2-0.6,0.4-0.8l0,0c0.3-0.2,0.6-0.5,1.1-0.7l0,0c4.5-2.4,7.5-1,10.2-3.7l0,0c0.3-0.3,0.8-0.4,1.2-0.2l0,0
			c2,0.7,3,2.1,2.9,3.5l0,0c0,0.9-0.2,1.6-0.2,2.2l0,0c0,0.3,0,0.5,0.1,0.8l0,0c1,3.4,2.3,3.4,5.4,6.6l0,0c2.2,2.3,2.7,4.8,2.7,7.1
			l0,0c0,1.8-0.3,3.5-0.3,5l0,0c0.1,2.8,0.6,5,5.2,7.5l0,0l0,0c4.5,2.5,11.7,7,12,11.7l0,0c0,1.5-1.1,2.8-2.8,3.5l0,0
			c-1.7,0.7-4.1,1-7.6,1.1l0,0c0,0-0.1,0-0.2,0l0,0v0c-1.7,0-3.4,0.1-5.1,0.2l0,0L77.6,163.6L77.6,163.6z M54.6,129.4
			c0,12,5.4,20.9,12.8,26.8l0,0c3.3,2.1,6.9,3.8,10.8,5.2l0,0c1.7-0.1,3.3-0.2,5-0.2l0,0c0,0,0.1,0,0.1,0l0,0c0,0,0.1,0,0.1,0l0,0
			c3.3,0,5.5-0.4,6.8-0.9l0,0c1.2-0.6,1.4-0.9,1.4-1.4l0,0c0.3-2.1-6.6-7.6-10.8-9.7l0,0l0.5-1l-0.5,1c-5.2-2.7-6.5-6.3-6.4-9.5l0,0
			c0-1.8,0.3-3.4,0.3-5l0,0c0-2-0.4-3.7-2.1-5.6l0,0c-2.5-2.7-4.7-3.3-5.9-7.5l0,0c-0.1-0.5-0.2-0.9-0.2-1.4l0,0
			c0-1,0.2-1.8,0.2-2.2l0,0c-0.1-0.4,0.1-0.6-1-1.1l0,0c-3.6,2.8-6.9,1.6-10.1,3.5l0,0c-0.1,0.1-0.3,0.2-0.4,0.3l0,0
			C54.8,123.5,54.6,126.4,54.6,129.4L54.6,129.4z"/>
	</g>
	<g>
		<g>
			<g>
				<path class="st0" d="M93.6,159.9c-11.4-10.2-19.3-4.7-22.2-1.5c-4.2,4.7-1.3,6.3-1.3,6.3l21.3,19c0,0,1.9,2.7,6.1-2
					C100.4,178.5,105,170.1,93.6,159.9z"/>
				<path d="M90.6,184.5l-21.2-18.9c-0.4-0.3-1.4-1.1-1.5-2.8l0,0c0-1.4,0.7-3,2.5-5.1l0,0c1.7-2,5.3-4.8,10.3-4.8l0,0
					c3.8,0,8.4,1.6,13.4,6.2l0,0l-0.7,0.8l-0.7,0.8c-4.8-4.3-8.8-5.6-12-5.6l0,0c-4.2,0-7.2,2.3-8.6,4l0,0c-1.7,1.9-2,3.1-2,3.6l0,0
					c0,0.4,0.1,0.6,0.2,0.8l0,0c0.1,0.1,0.2,0.2,0.2,0.2l0,0l0.2,0.1l21.3,19l0.2,0.2c0,0,0,0,0.1,0.1l0,0c0.1,0.1,0.3,0.2,0.7,0.2
					l0,0c0.5,0,1.7-0.3,3.6-2.4l0,0c1.3-1.5,3.1-4.3,3.1-7.8l0,0c0-3.4-1.5-7.6-7-12.5l0,0l0.7-0.8l0.7-0.8c5.8,5.1,7.7,10,7.7,14.1
					l0,0c0,4.3-2.1,7.5-3.6,9.3l0,0c-2.1,2.3-3.8,3.1-5.2,3.1l0,0C91.7,185.6,90.9,184.8,90.6,184.5L90.6,184.5z"/>
			</g>
			<path class="st1" d="M71.4,158.4c-4.2,4.7-1.3,6.3-1.3,6.3l4.3,3.8c-0.6-0.8-1.2-2.5,1.8-5.8c2.6-2.9,9.6-7.9,19.7-0.5
				c-0.7-0.7-1.4-1.5-2.3-2.3C82.1,149.7,74.2,155.2,71.4,158.4z M91.5,183.7c0,0,0.2,0.2,0.5,0.5L91.5,183.7z"/>
		</g>
		<g>
			<g>
				<path class="st0" d="M87,165.4c0,0,1.2,5.2-3.9,10.9"/>
				<path d="M82.4,177.1c-0.5-0.4-0.5-1.1-0.1-1.6l0,0c3.2-3.6,3.7-7,3.7-8.7l0,0c0-0.8-0.1-1.2-0.1-1.2l0,0
					c-0.1-0.6,0.2-1.2,0.8-1.3l0,0c0.6-0.1,1.2,0.2,1.3,0.8l0,0c0,0.1,0.1,0.7,0.1,1.7l0,0c0,2.1-0.6,6.1-4.3,10.2l0,0
					c-0.2,0.2-0.5,0.4-0.8,0.4l0,0C82.9,177.4,82.6,177.3,82.4,177.1L82.4,177.1z"/>
			</g>
			<g>
				<path class="st0" d="M94.7,171.1c0,0,2.6,6.1-3.2,12.6"/>
				<path d="M90.7,184.5c-0.5-0.4-0.5-1.1-0.1-1.6l0,0c2.9-3.2,3.5-6.2,3.5-8.4l0,0c0-1.9-0.5-3-0.5-3l0,0h0c-0.2-0.6,0-1.2,0.6-1.5
					l0,0c0.6-0.2,1.2,0,1.5,0.6l0,0c0,0.1,0.7,1.6,0.7,3.9l0,0c0,2.6-0.8,6.2-4,9.8l0,0c-0.2,0.2-0.5,0.4-0.8,0.4l0,0
					C91.2,184.8,90.9,184.7,90.7,184.5L90.7,184.5z"/>
			</g>
		</g>
	</g>
	<g>
		<g>
			<path class="st4" d="M76.6,21.8c0,0,5.5-6.8,7.6-12.7c2.1-5.9,17.6-17.8,27.3,7.5c9.8,25.3,19.8,25,12.9,27.1
				c-6.9,2.1-38.3-15.3-44.6-9.7"/>
			<path d="M83.8,34.1c-1.6,0-2.7,0.3-3.3,0.9l0,0c-0.5,0.4-1.2,0.4-1.6-0.1l0,0c-0.4-0.5-0.4-1.2,0.1-1.6l0,0
				c1.2-1.1,2.9-1.4,4.7-1.4l0,0c10.4,0.1,32.1,11.1,39.2,11l0,0c0.5,0,0.9-0.1,1.1-0.1l0,0c0.6-0.2,1-0.3,1.3-0.5l0,0
				c0.1,0,0.1,0,0.1-0.1l0,0c0,0,0-0.1-0.1-0.1l0,0c-0.2-0.3-0.5-0.6-0.9-1.1l0,0c-0.8-1-2-2.3-3.5-4.2l0,0
				c-2.9-3.8-6.8-9.9-10.6-19.7l0,0C106,5.4,100.5,2.2,96,2.2l0,0c-5.2-0.1-10,4.6-10.8,7.2l0,0c-2.2,6.2-7.7,13-7.7,13l0,0
				c-0.4,0.5-1.1,0.5-1.6,0.2l0,0c-0.5-0.4-0.6-1.1-0.2-1.6l0,0c0,0,5.4-6.7,7.4-12.4l0,0C84.5,5.1,89.6,0.1,96,0l0,0
				c5.7,0,11.9,4.2,16.5,16.2l0,0c3.7,9.6,7.5,15.5,10.3,19.1l0,0c2.8,3.9,4.7,4.8,5,7l0,0c-0.2,1.7-1.6,2-3.1,2.5l0,0
				c-0.6,0.2-1.1,0.2-1.8,0.2l0,0C114.7,45,93.2,34,83.8,34.1L83.8,34.1z"/>
		</g>
		<path class="st1" d="M76.6,21.8c0,0,5.5-6.8,7.6-12.7c2.1-5.9,17.6-17.8,27.3,7.5c9.8,25.3,19.8,25,12.9,27.1
			c-6.9,2.1-38.3-15.3-44.6-9.7"/>
		<g>
			<path class="st0" d="M124.4,42.2c0,0-3.9-13.1-11.5-18.6c-4.1-3-13.5-6.9-24.8-5.7c-2.4-3.8-6.3-4.3-5-1.9
				c0.4,0.7,0.5,1.7,0.4,2.6c-1,0.2-2.1,0.5-3.1,0.8c0,0,0,0,0,0c-1.1-6.1-12.1-12.2-8.2-7.8c2.1,2.4,3.3,6.8,3.6,9.5
				c-0.5,0.2-1.1,0.5-1.6,0.7c0,0,0,0,0,0c-2.9-5.8-14.3-8.2-10.4-6c3.9,2.2,5.1,9,5.1,9l0,0c-3.9,2.5-7.9,5.8-11.8,10.1
				c0,0-13.4,18-5.7,37.2c7.7,19.2,28.7,38.8,60.9,23.9c32.2-15,34.2-18.6,34.2-26.6c0,0,8.1-3.7,3.7-13.9
				C145.8,45.3,124.4,42.2,124.4,42.2z"/>
			<path d="M50.2,72.5c-1.8-4.4-2.5-8.8-2.5-12.9l0,0c0-14.3,8.2-25.3,8.4-25.4l0,0c3.7-4.1,7.5-7.3,11.3-9.8l0,0
				c-0.1-0.6-0.4-1.6-0.8-2.7l0,0c-0.7-1.9-1.9-3.9-3.5-4.7l0,0c-0.6-0.5-1.1-0.3-1.4-1.6l0,0c0-0.7,0.6-1.1,0.8-1.1l0,0
				c0.3-0.1,0.5-0.1,0.6-0.1l0,0c2.1,0.1,8.3,2.1,11.3,6.4l0,0c-0.4-2.5-1.6-6.2-3.2-8l0,0c-0.6-0.8-1-1.1-1.1-2l0,0
				c0-0.3,0.2-0.8,0.5-1l0,0C71,9,71.3,9,71.5,9l0,0c1.5,0.1,3.2,1.4,5.3,3.2l0,0c1.7,1.6,3.4,3.6,4.2,5.8l0,0
				c0.4-0.1,0.8-0.2,1.3-0.3l0,0c0-0.5-0.1-0.9-0.3-1.2l0,0c-0.2-0.4-0.4-0.8-0.4-1.3l0,0c0-0.5,0.2-1,0.6-1.4l0,0
				c0.4-0.3,0.9-0.4,1.3-0.4l0,0c1.6,0.1,3.5,1.2,5,3.3l0,0c1.2-0.1,2.3-0.1,3.5-0.1l0,0c9.8,0,17.6,3.4,21.5,6.1l0,0
				c7,5.1,10.8,15.8,11.7,18.5l0,0c3.7,0.7,21.4,3.8,25.9,13.8l0,0c1,2.3,1.4,4.3,1.4,6l0,0c0,5.3-3.5,8.1-5,9l0,0
				c0,3.8-0.9,7.2-5.4,10.8l0,0c-4.7,3.9-13.3,8.6-29.4,16.1l0,0c-8.1,3.8-15.6,5.4-22.3,5.4l0,0C69.7,102.3,56.1,87.2,50.2,72.5
				L50.2,72.5z M69.7,24.4c0.2,0.5,0,1.1-0.4,1.4l0,0c-3.8,2.5-7.7,5.7-11.5,9.8l0,0c0,0-1.9,2.6-3.9,7l0,0
				c-2,4.3-3.9,10.4-3.9,17.1l0,0c0,3.9,0.6,7.9,2.3,12.1l0,0c5.7,14.2,18.7,28.5,38,28.4l0,0c6.4,0,13.5-1.5,21.4-5.2l0,0
				c16.1-7.5,24.6-12.1,28.9-15.8l0,0c4.3-3.7,4.6-5.9,4.6-9.8l0,0c0-0.4,0.3-0.8,0.6-1l0,0c0,0,1.1-0.5,2.2-1.7l0,0
				c1.1-1.2,2.2-3,2.2-5.6l0,0c0-1.4-0.3-3.1-1.2-5.2l0,0c-1.9-4.5-8-7.8-13.8-9.8l0,0c-5.8-2-11-2.8-11-2.8l0,0l0.2-1.1l1.1-0.3
				l-1.1,0.3l-0.2,1.1c-0.4-0.1-0.8-0.4-0.9-0.8l0,0c0,0-1-3.2-2.8-7.1l0,0c-1.9-3.9-4.7-8.4-8.2-10.9l0,0
				c-3.4-2.5-10.9-5.7-20.2-5.7l0,0c-1.3,0-2.6,0.1-3.9,0.2l0,0c-0.4,0-0.8-0.2-1.1-0.5l0,0c-0.9-1.5-2.2-2.4-3-2.7l0,0
				c0.3,0.7,0.4,1.5,0.4,2.2l0,0c0,0.3,0,0.5,0,0.8l0,0c0,0.5-0.4,0.9-0.9,1l0,0c-1,0.2-2,0.5-3,0.8l0,0c-0.3,0.1-0.7,0-1-0.2l0,0
				c-0.3-0.2-0.4-0.5-0.4-0.8l0,0c-0.4-2.3-2.8-4.9-4.9-6.6l0,0c1.4,2.6,2.2,5.8,2.4,8.1l0,0c0,0.5-0.2,0.9-0.7,1.1l0,0
				c-0.5,0.2-1,0.5-1.6,0.7l0,0c-0.4,0.2-0.8,0.1-1.1-0.1l0,0l0,0L73,22.3c-1-2.2-3.8-4-6.2-5l0,0C68.8,19.9,69.5,23.3,69.7,24.4
				L69.7,24.4C69.7,24.3,69.7,24.3,69.7,24.4L69.7,24.4z M63.7,14.6L63.7,14.6C63.7,14.6,63.7,14.6,63.7,14.6L63.7,14.6z"/>
		</g>
		<path d="M50.2,72.5c-1.8-4.4-2.5-8.8-2.5-12.9l0,0c0-14.3,8.2-25.3,8.4-25.4l0,0c3.7-4.1,7.5-7.3,11.3-9.8l0,0
			c-0.1-0.6-0.4-1.6-0.8-2.7l0,0c-0.7-1.9-1.9-3.9-3.5-4.7l0,0c-0.6-0.5-1.1-0.3-1.4-1.6l0,0c0-0.7,0.6-1.1,0.8-1.1l0,0
			c0.3-0.1,0.5-0.1,0.6-0.1l0,0c2.1,0.1,8.3,2.1,11.3,6.4l0,0c-0.4-2.5-1.6-6.2-3.2-8l0,0c-0.6-0.8-1-1.1-1.1-2l0,0
			c0-0.3,0.2-0.8,0.5-1l0,0C71,9,71.3,9,71.5,9l0,0c1.5,0.1,3.2,1.4,5.3,3.2l0,0c1.7,1.6,3.4,3.6,4.2,5.8l0,0
			c0.4-0.1,0.8-0.2,1.3-0.3l0,0c0-0.5-0.1-0.9-0.3-1.2l0,0c-0.2-0.4-0.4-0.8-0.4-1.3l0,0c0-0.5,0.2-1,0.6-1.4l0,0
			c0.4-0.3,0.9-0.4,1.3-0.4l0,0c1.6,0.1,3.5,1.2,5,3.3l0,0c1.2-0.1,2.3-0.1,3.5-0.1l0,0c9.8,0,17.6,3.4,21.5,6.1l0,0
			c7,5.1,10.8,15.8,11.7,18.5l0,0c3.7,0.7,21.4,3.8,25.9,13.8l0,0c1,2.3,1.4,4.3,1.4,6l0,0c0,5.3-3.5,8.1-5,9l0,0
			c0,3.8-0.9,7.2-5.4,10.8l0,0c-4.7,3.9-13.3,8.6-29.4,16.1l0,0c-8.1,3.8-15.6,5.4-22.3,5.4l0,0C69.7,102.3,56.1,87.2,50.2,72.5
			L50.2,72.5z M69.7,24.4c0.2,0.5,0,1.1-0.4,1.4l0,0c-3.8,2.5-7.7,5.7-11.5,9.8l0,0c0,0-1.9,2.6-3.9,7l0,0c-2,4.3-3.9,10.4-3.9,17.1
			l0,0c0,3.9,0.6,7.9,2.3,12.1l0,0c5.7,14.2,18.7,28.5,38,28.4l0,0c6.4,0,13.5-1.5,21.4-5.2l0,0c16.1-7.5,24.6-12.1,28.9-15.8l0,0
			c4.3-3.7,4.6-5.9,4.6-9.8l0,0c0-0.4,0.3-0.8,0.6-1l0,0c0,0,1.1-0.5,2.2-1.7l0,0c1.1-1.2,2.2-3,2.2-5.6l0,0c0-1.4-0.3-3.1-1.2-5.2
			l0,0c-1.9-4.5-8-7.8-13.8-9.8l0,0c-5.8-2-11-2.8-11-2.8l0,0l0.2-1.1l1.1-0.3l-1.1,0.3l-0.2,1.1c-0.4-0.1-0.8-0.4-0.9-0.8l0,0
			c0,0-1-3.2-2.8-7.1l0,0c-1.9-3.9-4.7-8.4-8.2-10.9l0,0c-3.4-2.5-10.9-5.7-20.2-5.7l0,0c-1.3,0-2.6,0.1-3.9,0.2l0,0
			c-0.4,0-0.8-0.2-1.1-0.5l0,0c-0.9-1.5-2.2-2.4-3-2.7l0,0c0.3,0.7,0.4,1.5,0.4,2.2l0,0c0,0.3,0,0.5,0,0.8l0,0c0,0.5-0.4,0.9-0.9,1
			l0,0c-1,0.2-2,0.5-3,0.8l0,0c-0.3,0.1-0.7,0-1-0.2l0,0c-0.3-0.2-0.4-0.5-0.4-0.8l0,0c-0.4-2.3-2.8-4.9-4.9-6.6l0,0
			c1.4,2.6,2.2,5.8,2.4,8.1l0,0c0,0.5-0.2,0.9-0.7,1.1l0,0c-0.5,0.2-1,0.5-1.6,0.7l0,0c-0.4,0.2-0.8,0.1-1.1-0.1l0,0l0,0L73,22.3
			c-1-2.2-3.8-4-6.2-5l0,0C68.8,19.9,69.5,23.3,69.7,24.4L69.7,24.4C69.7,24.3,69.7,24.3,69.7,24.4L69.7,24.4z M63.7,14.6L63.7,14.6
			C63.7,14.6,63.7,14.6,63.7,14.6L63.7,14.6z"/>
		<path class="st4" d="M112.9,23.6c-3.7-2.7-11.7-6-21.6-5.8c0,0,0-0.1,0.1-0.1c-1.1,0-2.2,0-3.3,0.2c-2.4-3.8-6.3-4.3-5-1.9
			c0.4,0.7,0.5,1.7,0.4,2.6c-0.2,0-0.4,0.1-0.6,0.2c-0.1,0-0.2,0-0.4,0.1c0,0,0,0,0,0c-0.7,0.2-1.4,0.3-2.2,0.6c0,0,0,0,0,0
			c-1.1-6.1-12.1-12.2-8.2-7.8c2.1,2.4,3.3,6.8,3.6,9.5c-0.5,0.2-1.1,0.5-1.6,0.7l0,0c-2.9-5.8-14.3-8.2-10.4-6c3.9,2.2,5.1,9,5.1,9
			l0,0c-0.5,0.3-1.1,0.7-1.6,1.1c-0.3,0.2-0.6,0.4-0.9,0.6c0,0-0.1,0-0.1,0.1c0,0,0,0,0,0c-3.1,2.3-6.2,5-9.3,8.4
			c0,0-13.4,18-5.7,37.2c2,5.1,5,10.2,8.9,14.8c16.1,2.7,42-19.4,39.9-35.5c-1.4-10.5-8.2-9.3-14.4-14.9c-2.2-1.9-8-9.2-9.4-11.7
			c-0.1-0.8-0.3-1.7-0.8-2.5c1.9,0.8,3.9,2,5.3,3.6c-0.6-0.7-0.9-1.7-1.5-2.6c0.6,0.4,1.8,0.6,2.5,1.1c0-1.3,0-2.7,0.1-4.1
			c0.1,0,0.4,0.2,0.4,0.2c0,0-0.1-0.2-0.1-0.3c0.6,1,1.5,1.8,2.1,2.7c0-0.1,0-0.2,0-0.3c0.8,0.9,6.8,5.1,7.7,5.3
			c0.1-0.4-5.4-4.8-5.4-5.2c0.2-0.3,0.7,0.2,0.7,0c0.1-0.2,0.1-0.4,0-0.6c0.6,0.5,6.6,4.9,7.2,5.3c9.3,6.2,10.8,23.2,23.9,18.2
			c1.9-0.7,3.5-3.2,5.6-4.3C123.1,38.4,119.3,28.2,112.9,23.6z"/>
		<g>
			<path class="st0" d="M146.4,69.4c0,0-19.5,25.3-49.5,12"/>
			<path d="M96.4,82.4c-0.6-0.2-0.8-0.9-0.6-1.5l0,0c0.2-0.6,0.9-0.8,1.5-0.6l0,0c6.1,2.7,11.7,3.8,16.8,3.8l0,0
				c9.7,0,17.5-3.9,23-7.7l0,0c5.4-3.9,8.4-7.7,8.4-7.7l0,0c0.4-0.5,1.1-0.6,1.6-0.2l0,0c0.5,0.4,0.6,1.1,0.2,1.6l0,0
				c-0.1,0.1-12.5,16.3-33.1,16.3l0,0C108.7,86.4,102.8,85.2,96.4,82.4L96.4,82.4z"/>
		</g>
		<path class="st1" d="M126.2,51.3c-4.7,2.4-5.1,7.7-0.6,9.5c1,4.7,3.8,6.7,8.4,4.8c0.2,0.7-0.1,2.1,0.7,2.6
			c7.3-1.5,19.2-2.5,15.4-13.7c-2.4-7.3-12.4-8.4-19.2-5.6"/>
		<path class="st5" d="M124.4,47.7c-0.5,0.8,0,1.6,0.8,1.5c0.6,0.6,1.2,0.6,1.7-0.1c0.1,0.1,0.2,0.3,0.4,0.3c0.9-0.9,2.6-2.2,1-3.5
			c-1.1-0.9-2.7-0.1-3.4,1"/>
		<path d="M138.3,44.6c0,0-18.2,5.6-12.6,13.3c5.6,7.7,13.8,8.9,20.8,5.3C153.4,59.8,157,33.7,138.3,44.6z"/>
		<path d="M50.2,72.5c-1.8-4.4-2.5-8.8-2.5-12.9l0,0c0-14.3,8.2-25.3,8.4-25.4l0,0c3.7-4.1,7.5-7.3,11.3-9.8l0,0
			c-0.1-0.6-0.4-1.6-0.8-2.7l0,0c-0.7-1.9-1.9-3.9-3.5-4.7l0,0c-0.6-0.5-1.1-0.3-1.4-1.6l0,0c0-0.7,0.6-1.1,0.8-1.1l0,0
			c0.3-0.1,0.5-0.1,0.6-0.1l0,0c2.1,0.1,8.3,2.1,11.3,6.4l0,0c-0.4-2.5-1.6-6.2-3.2-8l0,0c-0.6-0.8-1-1.1-1.1-2l0,0
			c0-0.3,0.2-0.8,0.5-1l0,0C71,9,71.3,9,71.5,9l0,0c1.5,0.1,3.2,1.4,5.3,3.2l0,0c1.7,1.6,3.4,3.6,4.2,5.8l0,0
			c0.4-0.1,0.8-0.2,1.3-0.3l0,0c0-0.5-0.1-0.9-0.3-1.2l0,0c-0.2-0.4-0.4-0.8-0.4-1.3l0,0c0-0.5,0.2-1,0.6-1.4l0,0
			c0.4-0.3,0.9-0.4,1.3-0.4l0,0c1.6,0.1,3.5,1.2,5,3.3l0,0c1.2-0.1,2.3-0.1,3.5-0.1l0,0c9.8,0,17.6,3.4,21.5,6.1l0,0
			c7,5.1,10.8,15.8,11.7,18.5l0,0c3.7,0.7,21.4,3.8,25.9,13.8l0,0c1,2.3,1.4,4.3,1.4,6l0,0c0,5.3-3.5,8.1-5,9l0,0
			c0,3.8-0.9,7.2-5.4,10.8l0,0c-4.7,3.9-13.3,8.6-29.4,16.1l0,0c-8.1,3.8-15.6,5.4-22.3,5.4l0,0C69.7,102.3,56.1,87.2,50.2,72.5
			L50.2,72.5z M69.7,24.4c0.2,0.5,0,1.1-0.4,1.4l0,0c-3.8,2.5-7.7,5.7-11.5,9.8l0,0c0,0-1.9,2.6-3.9,7l0,0c-2,4.3-3.9,10.4-3.9,17.1
			l0,0c0,3.9,0.6,7.9,2.3,12.1l0,0c5.7,14.2,18.7,28.5,38,28.4l0,0c6.4,0,13.5-1.5,21.4-5.2l0,0c16.1-7.5,24.6-12.1,28.9-15.8l0,0
			c4.3-3.7,4.6-5.9,4.6-9.8l0,0c0-0.4,0.3-0.8,0.6-1l0,0c0,0,1.1-0.5,2.2-1.7l0,0c1.1-1.2,2.2-3,2.2-5.6l0,0c0-1.4-0.3-3.1-1.2-5.2
			l0,0c-1.9-4.5-8-7.8-13.8-9.8l0,0c-5.8-2-11-2.8-11-2.8l0,0l0.2-1.1l1.1-0.3l-1.1,0.3l-0.2,1.1c-0.4-0.1-0.8-0.4-0.9-0.8l0,0
			c0,0-1-3.2-2.8-7.1l0,0c-1.9-3.9-4.7-8.4-8.2-10.9l0,0c-3.4-2.5-10.9-5.7-20.2-5.7l0,0c-1.3,0-2.6,0.1-3.9,0.2l0,0
			c-0.4,0-0.8-0.2-1.1-0.5l0,0c-0.9-1.5-2.2-2.4-3-2.7l0,0c0.3,0.7,0.4,1.5,0.4,2.2l0,0c0,0.3,0,0.5,0,0.8l0,0c0,0.5-0.4,0.9-0.9,1
			l0,0c-1,0.2-2,0.5-3,0.8l0,0c-0.3,0.1-0.7,0-1-0.2l0,0c-0.3-0.2-0.4-0.5-0.4-0.8l0,0c-0.4-2.3-2.8-4.9-4.9-6.6l0,0
			c1.4,2.6,2.2,5.8,2.4,8.1l0,0c0,0.5-0.2,0.9-0.7,1.1l0,0c-0.5,0.2-1,0.5-1.6,0.7l0,0c-0.4,0.2-0.8,0.1-1.1-0.1l0,0l0,0L73,22.3
			c-1-2.2-3.8-4-6.2-5l0,0C68.8,19.9,69.5,23.3,69.7,24.4L69.7,24.4C69.7,24.3,69.7,24.3,69.7,24.4L69.7,24.4z M63.7,14.6L63.7,14.6
			C63.7,14.6,63.7,14.6,63.7,14.6L63.7,14.6z"/>
		<path class="st0" d="M143.7,45.1c0,0-6.8,2.1-4.7,4.9c2.1,2.9,5.1,3.3,7.7,2C149.3,50.7,150.6,41.1,143.7,45.1z"/>
		<path class="st1" d="M120.8,91.7C87,107.5,65.1,87,57.1,67c-6.5-16.3,1.5-31.7,4.8-37c-1.7,1.5-3.3,3.1-5,4.9
			c0,0-13.4,18-5.7,37.2c7.7,19.2,28.7,38.8,60.9,23.9c4.6-2.1,8.6-4,12-5.8C123.1,90.7,122,91.2,120.8,91.7z"/>
		<g>
			<path class="st4" d="M61.6,33c0,0-8.7,0.3-14.7-1.5c-6-1.9-24.8,3.5-10.3,26.4c14.4,23,8.2,30.8,14,26.6
				c5.9-4.3,10.6-39.9,18.9-41.5"/>
			<path d="M46.3,84.2c-0.3-1.2-0.6-2.8-1.2-5.1l0,0c-1.2-4.5-3.6-11.3-9.5-20.7l0,0c-3.9-6.2-5.5-11.3-5.5-15.4l0,0
				c0-9.6,8.7-13.1,14.1-13.1l0,0c1.1,0,2.1,0.1,3,0.4l0,0c4.1,1.3,9.9,1.5,12.7,1.5l0,0c1,0,1.6,0,1.6,0l0,0v0
				c0.6,0,1.1,0.5,1.1,1.1l0,0c0,0.6-0.5,1.1-1.1,1.1l0,0c0,0-0.7,0-1.7,0l0,0c-2.9,0-8.8-0.2-13.4-1.6l0,0
				c-0.6-0.2-1.4-0.3-2.3-0.3l0,0c-4.8,0.1-11.9,2.9-11.9,10.9l0,0c0,3.5,1.4,8.2,5.2,14.2l0,0c5.3,8.4,7.9,14.9,9.2,19.5l0,0
				c1.2,4.1,1.6,6.8,1.9,7.6l0,0c0,0,0.1,0,0.1-0.1l0,0c0.3-0.1,0.6-0.4,1.1-0.7l0,0c2.3-1.4,5.3-11.6,8.1-21.2l0,0
				c3.1-9.7,5.9-19.1,11.2-20.6l0,0c0.6-0.1,1.2,0.3,1.3,0.9l0,0c0.1,0.6-0.3,1.2-0.9,1.3l0,0c-2.9,0.2-6.8,9.4-9.5,19l0,0
				c-3.1,9.7-5.4,19.5-9,22.3l0,0c-1.1,0.7-1.7,1.2-2.8,1.3l0,0C46.9,86.6,46.5,85.3,46.3,84.2L46.3,84.2z"/>
		</g>
	</g>
	<g>
		<g>
			<path class="st0" d="M70.9,116.2c0,0,6.1-7.1,10.5-23.5c4.5-16.4,14.4-14.9,18.9-11l2.4,1.9c4.9,3.4,9.1,12.7-4.9,21.7
				c-14.1,9-19,17-19,17"/>
			<path d="M78.2,123.2c-0.5-0.3-0.7-1-0.4-1.5l0,0c0.1-0.1,5.1-8.2,19.4-17.3l0,0c7-4.5,9.1-8.8,9.1-12.3l0,0c0-3.3-2-6.1-4.2-7.6
				l0,0l-2.5-1.9c-1.5-1.3-3.7-2.3-6-2.3l0,0c-3.8,0-8.3,2.6-11.1,12.7l0,0c-4.5,16.6-10.7,23.9-10.8,24l0,0
				c-0.4,0.5-1.1,0.5-1.6,0.1l0,0c-0.5-0.4-0.5-1.1-0.1-1.6l0,0c0,0,1.4-1.7,3.5-5.4l0,0c2-3.8,4.6-9.6,6.9-17.7l0,0
				C83.1,81.8,88.5,78,93.6,78l0,0c2.9,0,5.6,1.2,7.4,2.8l0,0l2.4,1.8c2.7,1.8,5.1,5.2,5.1,9.4l0,0c0,4.4-2.8,9.5-10.1,14.2l0,0
				c-7,4.5-11.6,8.6-14.6,11.7l0,0c-2.9,3.1-4.1,4.9-4.1,4.9l0,0c-0.2,0.3-0.6,0.5-0.9,0.5l0,0C78.6,123.4,78.4,123.4,78.2,123.2
				L78.2,123.2z"/>
		</g>
		<path class="st1" d="M91.9,84.2l2.8,2.2c5.6,3.9,10.4,14.6-5.7,24.9c-5.2,3.3-7.1,8.2-10.3,11.1l0,0c0,0,4.9-8,19-17
			c14.1-9,9.9-18.4,4.9-21.7l-2.4-1.9c-3-2.6-8.4-4.2-13,0C89.1,82.2,90.7,83.1,91.9,84.2z"/>
	</g>
	<g>
		<path d="M87.7,62.6c0.3,0.1-0.1-0.7-0.1-0.7l0,0c-5.4-11.5,2.9-10,8.1-8.3v0c0,0,0.4,0.1,0.5,0c0.1-0.1-0.3-0.4-0.4-0.5
			c-18.1-9.4-12.5,2.5-8.4,9.1C87.4,62.5,87.5,62.6,87.7,62.6z"/>
		<path d="M87.7,63.8c0,0-0.1,0-0.3,0l0,0v0c-0.6-0.2-0.8-0.5-1-0.7l0,0c-1.9-3.2-4.3-7.4-4.3-10.6l0,0c0-0.9,0.2-1.9,0.9-2.6l0,0
			c0.7-0.7,1.7-1,2.9-1l0,0c2.3,0,5.5,1.1,10.5,3.7l0,0c0.1,0.1,0.2,0.2,0.4,0.3l0,0c0.1,0.2,0.4,0.1,0.6,1.1l0,0
			c0,0.2,0,0.5-0.4,0.9l0,0c-0.5,0.4-0.7,0.3-0.9,0.3l0,0c-0.2,0-0.4,0-0.5-0.1l0,0c-0.1,0-0.1,0-0.2,0l0,0
			c-1.8-0.6-3.9-1.2-5.5-1.2l0,0c-2,0.2-2.7,0.4-2.8,2.3l0,0c0,1.2,0.4,3,1.7,5.6l0,0c0,0,0,0.1,0.1,0.1l0,0
			c0.1,0.1,0.2,0.4,0.2,0.9l0,0c0,0.1,0,0.3-0.2,0.7l0,0C88.5,63.5,88.1,63.8,87.7,63.8L87.7,63.8C87.7,63.8,87.7,63.8,87.7,63.8
			L87.7,63.8z M85.9,50.9c-1.5,0.2-1.4,0.3-1.6,1.4l0,0c0,0.7,0.2,1.6,0.5,2.6l0,0c0.2-1.1,0.7-2,1.5-2.5l0,0
			c0.7-0.5,1.6-0.8,2.4-0.9l0,0C87.5,51.1,86.6,50.9,85.9,50.9L85.9,50.9C85.9,50.9,85.9,50.9,85.9,50.9L85.9,50.9z"/>
	</g>
	<g>
		<path d="M114.6,41.7c0.1,0.1,0.2,0.2,0.3,0.3c0.3,0.1,0-0.7,0-0.7l0,0c-3-10,1.8-10,6.3-8.3c-0.7-0.9-1.4-1.7-2.1-2.4
			C108.6,24.9,111.9,35.3,114.6,41.7z"/>
		<path d="M114.9,43.1c-0.2,0-0.3,0-0.5-0.1l0,0c-0.5-0.2-0.7-0.6-0.8-0.8l0,0l0.7-0.4h-0.1l-0.7,0.3c-1.3-3.1-2.8-7-2.8-10.1l0,0
			c0-1,0.2-2,0.7-2.9l0,0c0.6-0.8,1.7-1.3,2.8-1.3l0,0c1.4,0,3.1,0.6,5.3,1.8l0,0l0.3,0.2c0.8,0.8,1.5,1.6,2.2,2.5l0,0
			c0.3,0.4,0.3,0.9,0,1.3l0,0c-0.3,0.4-0.8,0.6-1.3,0.4l0,0c-1.2-0.5-2.5-0.8-3.4-0.8l0,0c-1.5,0.2-2.1,0.3-2.3,2.9l0,0
			c0,1.1,0.3,2.7,0.9,4.8l0,0c0,0.1,0,0.1,0,0.2l0,0c0,0.1,0.1,0.3,0.1,0.6l0,0c0,0.1,0,0.3-0.1,0.5l0,0
			C115.9,42.6,115.4,43.1,114.9,43.1L114.9,43.1C114.9,43.1,114.9,43.1,114.9,43.1L114.9,43.1z M114.3,30c-1.1,0.1-1.2,0.3-1.3,2
			l0,0c0,0.6,0.1,1.2,0.2,1.9l0,0c0.2-0.6,0.5-1.2,1-1.6l0,0c0.9-0.9,2.1-1.2,3.2-1.2l0,0c0.1,0,0.1,0,0.2,0l0,0
			C116.1,30.3,115,30,114.3,30L114.3,30C114.3,30,114.3,30,114.3,30L114.3,30z"/>
	</g>
</g>
</svg>
