<?xml version="1.0" encoding="utf-8"?>
<!-- Generator: Adobe Illustrator 19.2.0, SVG Export Plug-In . SVG Version: 6.00 Build 0)  -->
<svg version="1.1" id="Layer_1" xmlns="http://www.w3.org/2000/svg" xmlns:xlink="http://www.w3.org/1999/xlink" x="0px" y="0px"
	 viewBox="0 0 1280 200" style="enable-background:new 0 0 1280 200;" xml:space="preserve">
<style type="text/css">
	.st0{fill:url(#SVGID_1_);}
	.st1{display:none;fill:url(#SVGID_2_);}
</style>
<linearGradient id="SVGID_1_" gradientUnits="userSpaceOnUse" x1="648.86" y1="119.9068" x2="648.86" y2="-1.0631" gradientTransform="matrix(1 0 0 -1 0 200)">
	<stop  offset="0" style="stop-color:#78B33C"/>
	<stop  offset="1" style="stop-color:#2E421D"/>
</linearGradient>
<path class="st0" d="M0,200c31.1,0,78.3-87.1,236.9-115.7s354.9,68.6,403.1,67.1s142.6-70,238.3-60S1080.3,200,1280,200
	S-31.1,200,0,200z"/>
<linearGradient id="SVGID_2_" gradientUnits="userSpaceOnUse" x1="639.9286" y1="99.1153" x2="639.9286" y2="-0.8847" gradientTransform="matrix(1 0 0 -1 0 200)">
	<stop  offset="0" style="stop-color:#84C442"/>
	<stop  offset="1" style="stop-color:#344A22"/>
</linearGradient>
<path class="st1" d="M-0.5,200c24.5,0,47.3-62,93-71s98.1,31.8,138.1,40.3s287.6-57.9,379-56.5s184.3,65.7,270,61.4
	C965.4,170,994,100,1096.9,100s147.7,100,183.1,100S-25,200-0.5,200z"/>
</svg>
