<?xml version="1.0" encoding="utf-8"?>
<!-- Generator: Adobe Illustrator 19.2.0, SVG Export Plug-In . SVG Version: 6.00 Build 0)  -->
<svg version="1.1" id="Layer_1" xmlns="http://www.w3.org/2000/svg" xmlns:xlink="http://www.w3.org/1999/xlink" x="0px" y="0px"
	 viewBox="0 0 1280 200" style="enable-background:new 0 0 1280 200;" xml:space="preserve">
<style type="text/css">
	.st0{display:none;fill:url(#SVGID_1_);}
	.st1{fill:url(#SVGID_2_);}
</style>
<linearGradient id="SVGID_1_" gradientUnits="userSpaceOnUse" x1="648.86" y1="119.9068" x2="648.86" y2="-1.0631" gradientTransform="matrix(1 0 0 -1 0 200)">
	<stop  offset="0" style="stop-color:#84C442"/>
	<stop  offset="1" style="stop-color:#344A22"/>
</linearGradient>
<path class="st0" d="M0,200c31.1,0,78.3-87.1,236.9-115.7s354.9,68.6,403.1,67.1s142.6-70,238.3-60S1080.3,200,1280,200
	S-31.1,200,0,200z"/>
<linearGradient id="SVGID_2_" gradientUnits="userSpaceOnUse" x1="639.9286" y1="175.4616" x2="639.9286" y2="-1.566" gradientTransform="matrix(1 0 0 -1 0 200)">
	<stop  offset="0" style="stop-color:#6DA43C"/>
	<stop  offset="1" style="stop-color:#1E3010"/>
</linearGradient>
<path class="st1" d="M-0.5,200C24,200,22,92,132,79s131,56.3,171,70S487.6,20.7,579,23c91.4,2.3,214.9,142.6,300.6,135.8
	C965.4,152,994,40,1096.9,40s147.7,160,183.1,160S-25,200-0.5,200z"/>
</svg>
