<?xml version="1.0" encoding="utf-8"?>
<!-- Generator: Adobe Illustrator 19.2.0, SVG Export Plug-In . SVG Version: 6.00 Build 0)  -->
<svg version="1.1" id="Layer_1" xmlns="http://www.w3.org/2000/svg" xmlns:xlink="http://www.w3.org/1999/xlink" x="0px" y="0px"
	 viewBox="0 0 1280 488" style="enable-background:new 0 0 1280 488;" xml:space="preserve">
<style type="text/css">
	.st0{display:none;fill:url(#SVGID_1_);}
	.st1{fill:url(#SVGID_2_);}
	.st2{fill:#568D00;}
	.st3{fill:#806942;}
	.st4{fill:#669A00;}
	.st5{fill:#82A10D;}
	.st6{fill:#548000;}
	.st7{fill:#568500;}
</style>
<linearGradient id="SVGID_1_" gradientUnits="userSpaceOnUse" x1="648.86" y1="368.0932" x2="648.86" y2="489.0631">
	<stop  offset="0" style="stop-color:#84C442"/>
	<stop  offset="1" style="stop-color:#344A22"/>
</linearGradient>
<path class="st0" d="M0,488c31.1,0,78.3-87.1,236.9-115.7c158.6-28.6,354.9,68.6,403.1,67.1s142.6-70,238.3-60S1080.3,488,1280,488
	S-31.1,488,0,488z"/>
<linearGradient id="SVGID_2_" gradientUnits="userSpaceOnUse" x1="639.9286" y1="312.5384" x2="639.9286" y2="489.566">
	<stop  offset="0" style="stop-color:#6DA43C"/>
	<stop  offset="1" style="stop-color:#1E3010"/>
</linearGradient>
<path class="st1" d="M-0.5,488C24,488,22,380,132,367s131,56.3,171,70s184.6-128.3,276-126s214.9,142.6,300.6,135.8
	C965.4,440,994,328,1096.9,328s147.7,160,183.1,160S-25,488-0.5,488z"/>
<g transform="translate(-145.43 -191.81)">
	<g>
		<path class="st2" d="M790.8,341.5c-21-16.6-49.9-12.5-64.7,9.1c-14.8,21.6-10.5,50,9.6,63.4c20.1,13.4,49,9.3,64.7-9.1
			C816.1,386.5,811.8,358.1,790.8,341.5"/>
		<path class="st2" d="M743.8,379.4c-12-9.3-28.5-7-37,5.2c-8.5,12.2-6,28.2,5.4,35.8c11.5,7.5,28,5.2,37-5.2
			C758.2,404.8,755.7,388.7,743.8,379.4"/>
		<path class="st2" d="M807.6,344.5c-9.8-7.6-23.3-5.7-30.2,4.3c-6.9,10-4.9,23.1,4.4,29.3c9.4,6.2,22.9,4.3,30.2-4.3
			C819.4,365.2,817.4,352.1,807.6,344.5"/>
		<path class="st2" d="M767.8,321.2c-7.7-6-18.4-4.5-23.8,3.4c-5.5,7.9-3.9,18.2,3.5,23.1c7.4,4.9,18.1,3.4,23.8-3.4
			C777,337.6,775.5,327.2,767.8,321.2"/>
		<path class="st2" d="M725.8,375.2c-5.6-4.4-13.5-3.3-17.4,2.5c-4,5.8-2.8,13.3,2.6,16.9c5.4,3.6,13.2,2.5,17.4-2.5
			C732.6,387.2,731.4,379.6,725.8,375.2"/>
		<path class="st2" d="M826.5,362.4c-8.4-6.5-19.9-4.9-25.8,3.6c-5.9,8.5-4.2,19.7,3.8,25c8,5.3,19.6,3.6,25.8-3.6
			C836.5,380.1,834.8,368.9,826.5,362.4"/>
		<path class="st2" d="M808.3,383.9c-10.8-8.5-25.9-6.3-33.5,4.7c-7.7,11.1-5.5,25.6,4.9,32.5c10.4,6.8,25.4,4.7,33.5-4.7
			C821.3,406.8,819.1,392.3,808.3,383.9"/>
		<path class="st2" d="M828.4,393.1c-4.8-3.7-11.4-2.8-14.8,2.1c-3.4,4.9-2.4,11.3,2.2,14.3c4.6,3,11.2,2.1,14.8-2.1
			C834.2,403.3,833.2,396.9,828.4,393.1"/>
	</g>
	<path class="st2" d="M779.3,283.9c-28.9-30.6-75.2-31.1-103.4-1.1c-28.3,30-28.3,75,0,100.5c28.3,25.5,74.6,26,103.4,1.1
		C808.2,359.5,808.2,314.5,779.3,283.9"/>
	<path class="st3" d="M736.1,346.2h-22.1l1,94.9l-7.5,78.2h35.2l-6.2-79.6L736.1,346.2L736.1,346.2z"/>
	<g>
		<path class="st2" d="M805.3,271.6c-12.3-13-32.1-13.2-44.1-0.5c-12.1,12.8-12.1,31.9,0,42.8c12.1,10.8,31.8,11.1,44.1,0.5
			C817.7,303.7,817.7,284.6,805.3,271.6"/>
		<path class="st2" d="M773.5,330.3c-12.3-13-32.1-13.2-44.1-0.5c-12.1,12.8-12.1,31.9,0,42.8c12.1,10.8,31.8,11.1,44.1,0.5
			C785.8,362.5,785.8,343.3,773.5,330.3"/>
		<path class="st2" d="M779.9,245.8c-8.5-9-22.1-9.1-30.4-0.3c-8.3,8.8-8.3,22,0,29.4c8.3,7.5,21.9,7.6,30.4,0.3
			C788.3,267.9,788.3,254.7,779.9,245.8"/>
		<path class="st2" d="M666.6,264.4c-6.5-6.9-16.9-7-23.3-0.2c-6.4,6.7-6.4,16.8,0,22.6c6.4,5.7,16.8,5.8,23.3,0.2
			C673.1,281.4,673.1,271.3,666.6,264.4"/>
		<path class="st2" d="M821,298.6c-4-4.2-10.4-4.3-14.3-0.2c-3.9,4.1-3.9,10.4,0,13.9c3.9,3.5,10.3,3.6,14.3,0.2
			C825,309.1,825,302.8,821,298.6"/>
		<path class="st2" d="M631,380.7c-4.5-4.7-11.7-4.8-16.1-0.2c-4.4,4.6-4.4,11.6,0,15.6c4.4,3.9,11.6,4,16.1,0.2
			C635.5,392.4,635.5,385.5,631,380.7"/>
		<path class="st2" d="M813.3,311.9c-7-7.4-18.1-7.5-25-0.3c-6.8,7.2-6.8,18,0,24.2c6.8,6.1,18,6.3,25,0.3
			C820.3,330.1,820.3,319.2,813.3,311.9"/>
		<path class="st2" d="M706.4,245.5c-8.6-9.1-22.4-9.2-30.8-0.3c-8.4,8.9-8.4,22.3,0,29.9c8.4,7.6,22.2,7.7,30.8,0.3
			C715,267.9,715,254.6,706.4,245.5"/>
		<path class="st2" d="M653.6,309.2c-7.8-8.3-20.4-8.4-28-0.3c-7.7,8.1-7.7,20.3,0,27.2c7.7,6.9,20.2,7,28,0.3
			C661.4,329.6,661.4,317.5,653.6,309.2"/>
		<path class="st2" d="M649.3,342.6c-10.7-11.3-27.8-11.5-38.2-0.4c-10.4,11.1-10.4,27.6,0,37c10.4,9.4,27.5,9.6,38.2,0.4
			C659.9,370.5,659.9,353.9,649.3,342.6"/>
		<path class="st2" d="M801.9,248.5c-5.9-6.3-15.4-6.4-21.2-0.2c-5.8,6.1-5.8,15.4,0,20.6c5.8,5.2,15.3,5.3,21.2,0.2
			C807.8,264,807.8,254.8,801.9,248.5"/>
		<path class="st2" d="M675.8,374.1c-12.2-12.9-31.8-13.1-43.8-0.5c-12,12.7-12,31.6,0,42.4c11.9,10.8,31.5,11,43.8,0.5
			C688,406,688,387,675.8,374.1"/>
		<path class="st2" d="M785.2,281.4c4,4.2,10.5,4.3,14.4,0.2c3.9-4.2,3.9-10.4,0-14c-3.9-3.5-10.4-3.6-14.4-0.2
			C781.2,270.9,781.2,277.2,785.2,281.4"/>
		<path class="st2" d="M759.1,226.4c-15.9-17.1-41.5-17.4-57.1-0.6c-15.6,16.7-15.6,41.9,0,56.1c15.6,14.2,41.2,14.5,57.1,0.6
			C775,268.6,775,243.5,759.1,226.4"/>
		<path class="st2" d="M698.2,282.7c-14.3-15.3-37.2-15.6-51.2-0.6c-14,15-14,37.5,0,50.3c14,12.8,36.9,13,51.2,0.6
			C712.5,320.5,712.5,298,698.2,282.7"/>
		<path class="st2" d="M723.9,332.5c-20.9-22.4-54.5-22.8-74.9-0.8c-20.5,22-20.5,54.9,0,73.6c20.5,18.7,54,19,74.9,0.8
			C744.8,387.8,744.8,354.9,723.9,332.5"/>
	</g>
	<g>
		<path class="st3" d="M766.8,521.3l-33.2-16.1l-16,15.1L766.8,521.3L766.8,521.3z"/>
		<path class="st3" d="M675.8,522.7l37.1-16.1l3.7,14.2L675.8,522.7L675.8,522.7z"/>
		<path class="st3" d="M721.9,528.8l-13.6-15.1l24.6,3.6L721.9,528.8L721.9,528.8z"/>
	</g>
	<g>
		<path class="st4" d="M779.4,293.5c-2.3-2.2-6.2-7.6-8.6-9c-2.8-1.7-6.5-0.8-8.2,2.1c-1.7,2.8-0.8,6.5,2.1,8.2
			C768,296.7,776.4,294.9,779.4,293.5"/>
		<path class="st4" d="M786.3,274.1c-3.9-1.2-11.6-5.3-15.1-5.6c-4.2-0.3-8,2.9-8.4,7.1c-0.3,4.2,2.9,8,7.1,8.4
			C774.9,284.4,783.6,277.5,786.3,274.1"/>
		<path class="st4" d="M769.5,255.1c-3.8,1.5-12.4,3-15.4,4.9c-3.6,2.3-4.6,7.2-2.2,10.7c2.3,3.6,7.2,4.6,10.7,2.2
			C766.9,270.3,769.5,259.4,769.5,255.1"/>
		<path class="st4" d="M751.2,245c-2.1,3.5-8,10-9.1,13.3c-1.4,4,0.8,8.5,4.8,9.9c4,1.4,8.5-0.8,9.9-4.8
			C758.4,258.6,753.9,248.4,751.2,245"/>
		<path class="st4" d="M727.4,250.5c3.2,1.2,10.5,2.4,13,4c3,1.9,3.9,6,2,9c-1.9,3-6,3.9-9,2C729.7,263.2,727.5,254.1,727.4,250.5"
			/>
		<path class="st4" d="M721.1,278.2c3-1,8.9-4.2,11.6-4.5c3.3-0.3,6.2,2.1,6.6,5.4c0.3,3.3-2.1,6.2-5.4,6.6
			C730,286,723.2,280.8,721.1,278.2"/>
	</g>
	<g>
		<path class="st5" d="M729.4,263.7c2.7,1.6,9.1,3.7,11.1,5.6c2.4,2.2,2.6,6,0.5,8.4c-2.2,2.4-6,2.6-8.4,0.5
			C729.6,275.5,728.9,267,729.4,263.7"/>
		<path class="st5" d="M769.4,264.5c-0.7,4-0.4,12.7-1.7,16c-1.6,4-6.1,5.9-10.1,4.4c-4-1.6-5.9-6.1-4.4-10.1
			C755.1,270.1,765.2,265.3,769.4,264.5"/>
		<path class="st5" d="M751.5,266.4c1.3,3.9,5.5,11.5,5.9,15c0.5,4.2-2.7,8.1-6.9,8.5c-4.2,0.5-8.1-2.7-8.5-6.9
			C741.4,278,748.1,269.2,751.5,266.4"/>
	</g>
	<g>
		<path class="st4" d="M768.6,252.8c2,1.1,6.6,2.6,8.1,3.9c1.8,1.6,2,4.3,0.4,6.1c-1.6,1.8-4.3,2-6.1,0.4
			C768.8,261.4,768.2,255.2,768.6,252.8"/>
		<path class="st4" d="M780.4,243.7c1.7,2.4,6.2,6.9,7.2,9.2c1.2,2.9-0.2,6.2-3,7.4c-2.9,1.2-6.2-0.2-7.4-3
			C775.8,253.9,778.7,246.3,780.4,243.7"/>
		<path class="st4" d="M797.3,251.1c-0.2,3,0.7,9.2,0,11.7c-0.8,3-3.9,4.8-6.9,3.9c-3-0.8-4.8-3.9-3.9-6.9
			C787.4,256.2,794.3,252,797.3,251.1"/>
		<path class="st4" d="M808.4,261.5c-2,2.2-5.1,7.7-7.2,9.3c-2.5,1.9-6,1.3-7.9-1.1c-1.9-2.5-1.3-6,1.1-7.9
			C797.4,259.5,805.4,260.4,808.4,261.5"/>
		<path class="st4" d="M809.9,279.2c-1.6-2-4-6.7-5.7-8.1c-2-1.7-5-1.4-6.7,0.6c-1.7,2-1.4,5,0.6,6.7
			C800.6,280.4,807.4,280,809.9,279.2"/>
		<path class="st4" d="M792.1,289.7c0-2.3,0.9-7.1,0.5-9.1c-0.5-2.3-2.8-3.9-5.2-3.4c-2.3,0.5-3.9,2.8-3.4,5.2
			C784.7,285.3,789.9,288.9,792.1,289.7"/>
	</g>
	<g>
		<path class="st5" d="M800.3,280.8c-1.7-1.5-4.6-5.5-6.3-6.5c-2.1-1.2-4.7-0.5-5.9,1.6c-1.2,2.1-0.5,4.7,1.6,5.9
			C792.1,283.3,798.2,281.9,800.3,280.8"/>
		<path class="st5" d="M790.9,253.2c-2.7,1.4-8.7,3.1-10.7,4.8c-2.4,2-2.8,5.5-0.8,7.9c2,2.4,5.5,2.7,7.9,0.8
			C790.1,264.4,791.2,256.3,790.9,253.2"/>
		<path class="st5" d="M793.5,266.1c-3,0-9.2-1.3-11.7-0.8c-3,0.6-5,3.6-4.4,6.7c0.6,3,3.6,5,6.7,4.4
			C787.7,275.6,792.4,269,793.5,266.1"/>
	</g>
	<g>
		<path class="st4" d="M707,275.6c-3.1-0.4-9.5-2.5-12.2-2.2c-3.3,0.3-5.7,3.2-5.4,6.5c0.3,3.3,3.2,5.7,6.5,5.4
			C699.7,285,705.4,278.6,707,275.6"/>
		<path class="st4" d="M701.1,255.9c-3.9,1.3-12.5,2.6-15.5,4.4c-3.6,2.2-4.8,7-2.6,10.7c2.2,3.6,7,4.8,10.7,2.6
			C698,271,701,260.2,701.1,255.9"/>
		<path class="st4" d="M676.5,250.4c-2.2,3.4-8.3,9.7-9.6,13c-1.5,4,0.5,8.5,4.5,10c4,1.5,8.5-0.5,10-4.5
			C683.2,264.2,679,253.9,676.5,250.4"/>
		<path class="st4" d="M655.7,253c0.3,4.1-0.6,12.7,0.4,16.1c1.2,4.1,5.6,6.4,9.7,5.2c4.1-1.2,6.4-5.6,5.2-9.7
			C669.5,259.7,659.8,254.2,655.7,253"/>
		<path class="st4" d="M639.7,271.4c3.3-0.9,9.9-4.2,12.9-4.4c3.6-0.2,6.7,2.6,6.9,6.1c0.2,3.6-2.6,6.7-6.1,6.9
			C649,280.3,641.8,274.3,639.7,271.4"/>
		<path class="st4" d="M650.7,297.5c1.9-2.6,4.7-8.7,6.8-10.5c2.5-2.2,6.3-2,8.5,0.5c2.2,2.5,2,6.3-0.5,8.5
			C662.6,298.6,654,298.4,650.7,297.5"/>
	</g>
	<g>
		<path class="st5" d="M649,280.9c3.1-0.3,9.6-2.3,12.3-2c3.3,0.3,5.7,3.3,5.3,6.6c-0.3,3.3-3.3,5.7-6.6,5.3
			C656.1,290.4,650.5,283.9,649,280.9"/>
		<path class="st5" d="M681.8,258c1.8,3.7,7.2,10.6,8,14c1.1,4.1-1.5,8.4-5.6,9.4c-4.1,1.1-8.4-1.5-9.4-5.6
			C673.6,271,678.9,261.2,681.8,258"/>
		<path class="st5" d="M668.5,270.1c3.3,2.4,11.2,6,13.6,8.7c2.9,3.2,2.6,8.1-0.6,11c-3.2,2.8-8.1,2.6-11-0.6
			C667.2,285.4,667.4,274.3,668.5,270.1"/>
	</g>
	<g>
		<path class="st4" d="M773.2,254.9c-2.7-1.6-7.7-6-10.3-6.9c-3.1-1-6.5,0.7-7.6,3.8c-1,3.1,0.7,6.5,3.8,7.6
			C762.8,260.6,770.6,257,773.2,254.9"/>
		<path class="st4" d="M765.3,241.2c-3.9-1.2-11.6-5.4-15.1-5.7c-4.2-0.4-8.1,2.8-8.5,7c-0.4,4.2,2.8,8.1,7,8.5
			C753.8,251.4,762.6,244.6,765.3,241.2"/>
		<path class="st4" d="M750.3,212.7c-3.4,2.3-11.5,5.6-13.9,8.2c-3,3-2.9,8,0.1,11c3,3,8,2.9,11-0.1
			C751,228,751.2,216.9,750.3,212.7"/>
		<path class="st4" d="M730.2,206.8c-1.3,3.9-5.6,11.5-6,15c-0.5,4.2,2.6,8.1,6.8,8.6c4.2,0.5,8.1-2.6,8.6-6.8
			C740.2,218.4,733.5,209.5,730.2,206.8"/>
		<path class="st4" d="M708.2,217.3c3.4,0.5,10.7,0.1,13.5,1.1c3.4,1.2,5.1,5,3.9,8.4c-1.2,3.4-5,5.1-8.4,3.9
			C713.2,229.2,709,220.8,708.2,217.3"/>
		<path class="st4" d="M708,245.7c2.7-1.6,7.8-6.1,10.4-6.9c3.1-1,6.6,0.7,7.6,3.8c1,3.1-0.7,6.6-3.8,7.6
			C718.4,251.4,710.6,247.8,708,245.7"/>
		<path class="st4" d="M699.8,225.6c2.4,0.8,7.9,1.3,9.8,2.4c2.3,1.3,3.2,4.3,1.9,6.6c-1.3,2.3-4.3,3.2-6.6,1.9
			C702.1,234.9,700,228.2,699.8,225.6"/>
		<path class="st4" d="M763,225.6c-2.6,3.2-6.6,10.9-9.3,13.2c-3.3,2.7-8.2,2.2-10.9-1.1c-2.7-3.3-2.2-8.2,1.1-10.9
			C747.8,223.5,758.9,224.3,763,225.6"/>
		<path class="st4" d="M785.6,241c-3.2,1.3-9.3,5.2-12.2,5.6c-3.5,0.6-6.9-1.8-7.4-5.3c-0.6-3.5,1.8-6.9,5.3-7.4
			C775.5,233.2,783.2,238.3,785.6,241"/>
	</g>
	<g>
		<path class="st6" d="M817.1,338.7c-2,2.4-5.3,8.3-7.5,9.9c-2.6,2-6.4,1.5-8.4-1.1c-2-2.6-1.5-6.4,1.1-8.4
			C805.5,336.7,814,337.6,817.1,338.7"/>
		<path class="st6" d="M814.2,354.2c-3.3,2.5-9.1,8.9-12.3,10.4c-3.9,1.8-8.5,0.1-10.3-3.8c-1.8-3.9-0.1-8.5,3.8-10.3
			C800,348.4,810.5,351.9,814.2,354.2"/>
		<path class="st6" d="M809.4,386.1c-4-1-12.7-1.5-15.8-3.1c-3.8-1.9-5.4-6.6-3.5-10.4c1.9-3.8,6.6-5.4,10.4-3.5
			C805.1,371.4,808.9,381.9,809.4,386.1"/>
		<path class="st6" d="M792.4,398.3c-2.5-3.2-9.1-9-10.6-12.2c-1.8-3.8-0.2-8.5,3.6-10.3c3.8-1.8,8.5-0.2,10.3,3.6
			C798,384,794.6,394.6,792.4,398.3"/>
		<path class="st6" d="M768.1,395.6c3.1-1.6,10.1-3.6,12.4-5.5c2.8-2.3,3.2-6.4,0.9-9.2c-2.3-2.8-6.4-3.2-9.2-0.9
			C769,382.7,767.8,392,768.1,395.6"/>
		<path class="st6" d="M758.6,368.9c3.1,0.6,9.3,3.2,12.1,3.1c3.3,0,6-2.8,5.9-6.1c0-3.3-2.8-6-6.1-5.9
			C766.6,360,760.4,366,758.6,368.9"/>
		<path class="st6" d="M757.5,390.6c2.1-1.5,7-3.9,8.4-5.5c1.8-2,1.6-5.1-0.4-6.8c-2-1.8-5.1-1.6-6.8,0.4
			C756.6,381,756.8,388,757.5,390.6"/>
		<path class="st6" d="M817.1,369.7c-3.5-2.2-9.8-8.1-13.2-9.3c-4-1.5-8.5,0.6-9.9,4.6c-1.5,4,0.6,8.5,4.6,9.9
			C803.4,376.7,813.7,372.3,817.1,369.7"/>
		<path class="st6" d="M833.5,347.7c-3.4-0.1-10.5-1.8-13.4-1.3c-3.5,0.6-5.9,4-5.3,7.5c0.6,3.5,4,5.9,7.5,5.3
			C826.5,358.4,832.1,351,833.5,347.7"/>
		<path class="st6" d="M765.8,334.5c-2.5,1-7.3,4.1-9.6,4.5c-2.8,0.5-5.4-1.4-5.9-4.2c-0.5-2.8,1.4-5.4,4.2-5.9
			C757.8,328.4,763.9,332.4,765.8,334.5"/>
		<path class="st6" d="M757.4,345.1c-3.5,0.5-10.5,3.1-13.5,2.9c-3.6-0.2-6.5-3.4-6.3-7c0.2-3.6,3.4-6.5,7-6.3
			C749,335,755.6,341.9,757.4,345.1"/>
		<path class="st6" d="M741.1,367.4c-2.6-2.4-9-6.2-10.7-8.7c-2.1-3-1.4-7.1,1.5-9.3c3-2.1,7.1-1.4,9.3,1.5
			C743.7,354.5,742.4,363.9,741.1,367.4"/>
		<path class="st6" d="M723.3,369.8c-0.6-3.4-3.3-10.4-3.1-13.4c0.1-3.6,3.3-6.5,6.9-6.4c3.6,0.1,6.5,3.3,6.4,6.9
			C733.3,361.2,726.5,367.9,723.3,369.8"/>
		<path class="st6" d="M706.1,358c2.9,0,9.1,1.3,11.6,0.8c3-0.6,5-3.6,4.4-6.6c-0.6-3-3.6-5-6.6-4.4
			C711.8,348.6,707.2,355.2,706.1,358"/>
		<path class="st6" d="M709.5,334c2.1,1.7,5.8,6.1,7.9,7.2c2.5,1.3,5.6,0.3,6.9-2.2c1.3-2.5,0.3-5.6-2.2-6.9
			C719.1,330.5,712,332.6,709.5,334"/>
		<path class="st6" d="M700,350c2.2-0.3,6.8-0.1,8.6-0.8c2.1-0.8,3.2-3.2,2.4-5.3c-0.8-2.1-3.2-3.2-5.3-2.4
			C703.1,342.4,700.5,347.7,700,350"/>
		<path class="st6" d="M753.4,358c-1.8-3-4.2-10.1-6.2-12.3c-2.4-2.7-6.7-2.9-9.4-0.5c-2.7,2.4-2.9,6.7-0.5,9.4
			C740.3,357.8,749.8,358.6,753.4,358"/>
		<path class="st6" d="M774.6,347.9c-2.5-1.5-7.2-5.6-9.6-6.3c-2.9-0.9-6,0.7-7,3.5c-0.9,2.9,0.7,6,3.5,7
			C765,353.2,772.2,349.8,774.6,347.9"/>
		<path class="st6" d="M816,393.1c-2.9,1.3-8.3,5.2-11,5.8c-3.2,0.7-6.4-1.4-7.1-4.6c-0.7-3.2,1.4-6.4,4.6-7.1
			C806.3,386.4,813.6,390.8,816,393.1"/>
		<path class="st6" d="M806.7,405.9c-4,0.8-12.1,4.2-15.6,4.1c-4.3,0-7.7-3.6-7.7-7.8c0-4.3,3.6-7.7,7.8-7.7
			C796.4,394.6,804.4,402.3,806.7,405.9"/>
		<path class="st6" d="M788.8,432.8c-3.2-2.6-10.8-6.8-13-9.6c-2.6-3.3-2.1-8.3,1.3-10.9c3.3-2.6,8.3-2,10.9,1.3
			C791.1,417.6,790.2,428.7,788.8,432.8"/>
		<path class="st6" d="M768.2,436.5c-0.9-4-4.4-12-4.4-15.5c0-4.3,3.5-7.8,7.7-7.8c4.3,0,7.8,3.5,7.8,7.7
			C779.4,426,771.8,434.1,768.2,436.5"/>
		<path class="st6" d="M747.4,423.8c3.4-0.1,10.7,1,13.6,0.3c3.5-0.9,5.6-4.4,4.7-7.9c-0.9-3.5-4.4-5.6-7.9-4.7
			C753.7,412.5,748.6,420.3,747.4,423.8"/>
		<path class="st6" d="M750.2,395.5c2.5,1.9,7.1,6.9,9.6,8c3,1.4,6.6,0,7.9-3c1.4-3,0-6.6-3-7.9C761.2,390.9,753,393.7,750.2,395.5"
			/>
		<path class="st6" d="M739.9,414.7c2.5-0.5,8-0.5,10-1.4c2.4-1.1,3.6-3.9,2.5-6.4c-1.1-2.4-3.9-3.6-6.4-2.5
			C743.1,405.7,740.4,412,739.9,414.7"/>
		<path class="st6" d="M802.8,421.2c-2.2-3.4-5.4-11.5-7.9-14.1c-3-3-8-3-11,0c-3,3-3,7.9,0,11C787.4,421.7,798.5,422.1,802.8,421.2
			"/>
		<path class="st6" d="M826.9,408.3c-3-1.6-8.7-6.1-11.5-6.9c-3.4-0.9-7,1.1-7.9,4.5c-0.9,3.4,1.1,7,4.5,7.9
			C816,415,824.2,410.7,826.9,408.3"/>
		<path class="st6" d="M614.6,351.4c2,2.5,5,8.4,7.1,10.2c2.5,2.1,6.3,1.7,8.4-0.8c2.1-2.5,1.7-6.3-0.8-8.4
			C626.3,349.8,617.8,350.4,614.6,351.4"/>
		<path class="st6" d="M617,367c3.2,2.6,8.8,9.2,12,10.8c3.8,1.9,8.5,0.3,10.4-3.5c1.9-3.8,0.3-8.5-3.5-10.4
			C631.4,361.7,620.7,364.8,617,367"/>
		<path class="st6" d="M620.7,399.1c4-0.9,12.7-1.1,15.9-2.6c3.9-1.8,5.6-6.4,3.8-10.3c-1.8-3.9-6.4-5.6-10.3-3.8
			C625.5,384.5,621.3,394.8,620.7,399.1"/>
		<path class="st6" d="M637.3,411.8c2.6-3.2,9.4-8.7,11-11.8c2-3.8,0.5-8.5-3.3-10.5c-3.8-2-8.5-0.5-10.5,3.3
			C632.2,397.3,635.2,408,637.3,411.8"/>
		<path class="st6" d="M661.7,409.9c-3-1.7-10-3.9-12.2-5.9c-2.7-2.4-3-6.5-0.6-9.2c2.4-2.7,6.5-3,9.2-0.6
			C661.2,397,662.2,406.3,661.7,409.9"/>
		<path class="st6" d="M672.1,383.5c-3.1,0.5-9.5,2.9-12.2,2.7c-3.3-0.2-5.9-3-5.7-6.3c0.2-3.3,3-5.9,6.3-5.7
			C664.4,374.4,670.4,380.6,672.1,383.5"/>
		<path class="st6" d="M672.5,405.2c-2-1.6-6.8-4.1-8.3-5.8c-1.7-2-1.4-5.1,0.7-6.8c2.1-1.7,5.1-1.4,6.8,0.7
			C673.7,395.7,673.3,402.7,672.5,405.2"/>
		<path class="st6" d="M613.6,382.4c3.5-2.1,10.1-7.8,13.5-8.9c4-1.3,8.5,0.9,9.8,5c1.3,4-0.9,8.5-5,9.8
			C627,389.8,616.9,385.1,613.6,382.4"/>
		<path class="st6" d="M598,359.9c3.4,0,10.5-1.5,13.4-0.9c3.5,0.7,5.7,4.2,5,7.6c-0.7,3.5-4.2,5.7-7.6,5
			C604.6,370.8,599.3,363.2,598,359.9"/>
		<path class="st6" d="M719.3,374.4c-2.1,0.4-6.4,2.2-8.3,2.2c-2.3,0-4.1-1.9-4.1-4.1c0-2.3,1.9-4.1,4.1-4.1
			C713.8,368.4,718,372.5,719.3,374.4"/>
		<path class="st6" d="M711.1,381.6c-2.8-0.1-8.7,1-11.1,0.4c-2.8-0.7-4.6-3.6-4-6.4c0.7-2.8,3.6-4.6,6.4-4
			C705.9,372.4,710.1,378.8,711.1,381.6"/>
		<path class="st6" d="M695.1,396.9c-1.7-2.2-6.2-6.2-7.3-8.4c-1.3-2.6-0.1-5.8,2.5-7.1c2.6-1.3,5.8-0.1,7.1,2.5
			C698.9,387.1,696.6,394.3,695.1,396.9"/>
		<path class="st6" d="M680.7,396.3c0-2.8-1.1-8.7-0.6-11.1c0.6-2.9,3.5-4.7,6.3-4.1c2.9,0.6,4.7,3.5,4.1,6.3
			C689.8,390.9,683.4,395.2,680.7,396.3"/>
		<path class="st6" d="M668.7,384.6c2.3,0.4,7,2.3,9,2.3c2.5-0.1,4.4-2.1,4.4-4.6c-0.1-2.5-2.1-4.4-4.6-4.4
			C674.5,377.9,670,382.5,668.7,384.6"/>
		<path class="st6" d="M674.8,366.1c1.4,1.6,3.7,5.7,5.2,6.8c1.8,1.4,4.4,1,5.8-0.8c1.4-1.8,1-4.4-0.8-5.8
			C682.8,364.6,676.9,365.3,674.8,366.1"/>
		<path class="st6" d="M665,377.4c1.8,0,5.4,0.9,6.9,0.6c1.8-0.3,3-2.1,2.7-3.9c-0.3-1.8-2.1-3-3.9-2.7
			C668.5,371.8,665.7,375.6,665,377.4"/>
		<path class="st6" d="M706.2,391.2c-1-2.6-1.9-8.6-3.2-10.6c-1.6-2.5-4.9-3.2-7.4-1.7c-2.5,1.6-3.2,4.9-1.7,7.3
			C695.8,389.2,703.2,391.2,706.2,391.2"/>
		<path class="st6" d="M724.3,386.2c-1.8-1.5-4.9-5.4-6.7-6.4c-2.1-1.1-4.9-0.3-6,1.8c-1.1,2.1-0.3,4.9,1.8,6
			C716,389,722.1,387.4,724.3,386.2"/>
		<path class="st6" d="M680.8,363.2c-2.3-1.2-7.7-2.9-9.5-4.4c-2.1-1.8-2.4-5-0.6-7.1c1.8-2.1,5-2.4,7.1-0.6
			C680.3,353.2,681.1,360.4,680.8,363.2"/>
		<path class="st6" d="M667.5,363.5c-2.6-2.2-8.9-5.9-10.7-8.3c-2.1-2.9-1.6-7,1.3-9.1c2.9-2.1,7-1.6,9.1,1.3
			C669.7,350.8,668.7,360.1,667.5,363.5"/>
		<path class="st6" d="M640.5,365.3c0.1-3.4-1-10.7-0.3-13.5c0.9-3.5,4.5-5.6,7.9-4.7c3.5,0.9,5.6,4.5,4.7,7.9
			C651.7,359.1,643.9,364.1,640.5,365.3"/>
		<path class="st6" d="M627.4,353.5c2.2-2.6,5.8-9,8.1-10.9c2.8-2.2,6.9-1.7,9.1,1.1c2.2,2.8,1.7,6.9-1.1,9.1
			C640.2,355.6,630.9,354.7,627.4,353.5"/>
		<path class="st6" d="M625.3,333.1c1.8,2.2,4.8,7.6,6.7,9.2c2.4,1.9,5.8,1.5,7.7-0.9c1.9-2.4,1.5-5.8-0.9-7.7
			C636,331.5,628.2,332.2,625.3,333.1"/>
		<path class="st6" d="M645.6,320.6c0,2.7-0.9,8.2-0.4,10.5c0.6,2.7,3.4,4.4,6.1,3.8c2.7-0.6,4.4-3.4,3.8-6.1
			C654.2,325.5,648.2,321.5,645.6,320.6"/>
		<path class="st6" d="M627.5,323.5c1.6,1.4,4.4,5,6,5.9c1.9,1.1,4.4,0.4,5.5-1.6c1.1-1.9,0.4-4.4-1.6-5.5
			C635.2,321.1,629.5,322.5,627.5,323.5"/>
		<path class="st6" d="M655.3,368.7c1.2-3.2,4.9-9.5,5.3-12.5c0.5-3.5-2-6.8-5.6-7.3c-3.5-0.5-6.8,2-7.3,5.6
			C647.1,358.7,652.6,366.3,655.3,368.7"/>
		<path class="st6" d="M676.2,378.2c-0.5-2.8-0.4-8.9-1.3-11.2c-1.1-2.8-4.3-4.1-7.1-3c-2.8,1.1-4.1,4.3-3,7.1
			C666.2,374.4,673.3,377.6,676.2,378.2"/>
	</g>
	<g>
		<path class="st7" d="M677.2,303c1.9,1.2,5.3,4.4,7.1,5.1c2.2,0.8,4.6-0.3,5.4-2.5c0.8-2.2-0.3-4.6-2.5-5.4
			C684.6,299.2,679.1,301.6,677.2,303"/>
		<path class="st7" d="M682.4,312.8c2.7,1,8,4.1,10.5,4.4c3,0.4,5.7-1.7,6.1-4.7c0.4-3-1.7-5.7-4.7-6.1
			C690.7,305.9,684.4,310.5,682.4,312.8"/>
		<path class="st7" d="M692.3,333.3c2.5-1.5,8.2-3.7,10-5.4c2.2-2.1,2.2-5.6,0.2-7.7c-2.1-2.2-5.6-2.2-7.7-0.2
			C692.1,322.5,691.7,330.3,692.3,333.3"/>
		<path class="st7" d="M706.3,337.9c1-2.7,4.2-7.9,4.6-10.4c0.4-3-1.7-5.8-4.6-6.2c-3-0.4-5.8,1.7-6.2,4.6
			C699.5,329.5,704,335.9,706.3,337.9"/>
		<path class="st7" d="M722,331c-2.4-0.4-7.5-0.3-9.5-1.1c-2.3-0.9-3.5-3.6-2.5-6c0.9-2.3,3.6-3.5,6-2.5
			C718.8,322.5,721.5,328.5,722,331"/>
		<path class="st7" d="M722.8,311c-2,1.1-5.6,4.1-7.5,4.6c-2.2,0.7-4.6-0.6-5.3-2.9c-0.7-2.2,0.6-4.6,2.9-5.3
			C715.6,306.8,721,309.5,722.8,311"/>
		<path class="st7" d="M728.1,325.4c-1.7-0.6-5.5-1.1-6.8-1.9c-1.6-1-2.1-3.1-1.1-4.7c1-1.6,3.1-2.1,4.7-1.1
			C726.8,318.8,728.1,323.5,728.1,325.4"/>
		<path class="st7" d="M683.7,323.9c1.9-2.2,4.9-7.5,6.9-9c2.4-1.8,5.8-1.3,7.7,1c1.8,2.4,1.3,5.8-1,7.7
			C694.3,325.7,686.5,324.9,683.7,323.9"/>
		<path class="st7" d="M668.1,312.5c2.3-0.8,6.7-3.4,8.7-3.7c2.5-0.3,4.8,1.4,5.1,3.9c0.3,2.5-1.4,4.8-3.9,5.1
			C675,318.2,669.7,314.4,668.1,312.5"/>
		<path class="st7" d="M801.3,294.1c-2.6,1.8-7.2,6.7-9.7,7.8c-3,1.3-6.6-0.1-7.9-3.1c-1.3-3,0.1-6.6,3.1-7.9
			C790.5,289.4,798.6,292.2,801.3,294.1"/>
		<path class="st7" d="M794.7,308.4c-3.8,1.6-11,6.4-14.5,7.1c-4.2,0.8-8.3-2-9.1-6.2c-0.8-4.2,2-8.3,6.2-9.1
			C782.4,299.3,791.8,305.3,794.7,308.4"/>
		<path class="st7" d="M782.4,338.3c-3.6-1.9-11.9-4.5-14.6-6.8c-3.2-2.8-3.6-7.7-0.9-10.9c2.8-3.2,7.7-3.6,10.9-0.9
			C781.7,322.9,782.9,334,782.4,338.3"/>
		<path class="st7" d="M762.9,345.9c-1.6-3.7-6.6-10.9-7.3-14.4c-0.9-4.2,1.9-8.3,6-9.2c4.2-0.9,8.3,1.9,9.2,6
			C771.8,333.4,766,342.9,762.9,345.9"/>
		<path class="st7" d="M740,337.5c3.4-0.8,10.7-1.1,13.4-2.3c3.2-1.5,4.6-5.4,3.1-8.7c-1.5-3.2-5.4-4.6-8.7-3.1
			C744,325.2,740.5,333.9,740,337.5"/>
		<path class="st7" d="M737.3,309.2c2.9,1.4,8.3,5.3,11,6c3.2,0.7,6.5-1.3,7.2-4.5c0.7-3.2-1.3-6.5-4.5-7.2
			C747.2,302.6,739.7,306.9,737.3,309.2"/>
		<path class="st7" d="M730.9,330c2.4-1,7.7-2,9.5-3.3c2.2-1.5,2.8-4.6,1.2-6.7c-1.5-2.2-4.6-2.8-6.7-1.2
			C732.3,320.5,730.9,327.3,730.9,330"/>
		<path class="st7" d="M793.8,324.2c-2.8-3-7.6-10.3-10.5-12.2c-3.5-2.4-8.4-1.4-10.8,2.1c-2.4,3.5-1.4,8.4,2.1,10.8
			C778.9,327.6,789.9,325.9,793.8,324.2"/>
		<path class="st7" d="M815,306.8c-3.3-1-9.7-4.3-12.7-4.5c-3.5-0.3-6.7,2.4-6.9,6c-0.3,3.5,2.4,6.7,6,6.9
			C805.6,315.5,812.8,309.7,815,306.8"/>
	</g>
	<g>
		<path class="st4" d="M684.4,257.3c1.7-1.6,4.5-5.5,6.2-6.5c2-1.2,4.7-0.6,6,1.5c1.2,2,0.6,4.7-1.5,6
			C692.7,259.7,686.6,258.4,684.4,257.3"/>
		<path class="st4" d="M679.4,243.2c2.8-0.9,8.4-3.8,11-4c3.1-0.3,5.8,2.1,6.1,5.2c0.3,3.1-2.1,5.8-5.2,6.1
			C687.7,250.7,681.4,245.7,679.4,243.2"/>
		<path class="st4" d="M691.6,229.4c2.8,1.1,9,2.2,11.2,3.6c2.6,1.7,3.3,5.2,1.6,7.8c-1.7,2.6-5.2,3.3-7.8,1.6
			C693.5,240.4,691.6,232.6,691.6,229.4"/>
		<path class="st4" d="M704.9,222.1c1.5,2.5,5.8,7.2,6.6,9.7c1,2.9-0.6,6.2-3.5,7.2c-2.9,1-6.2-0.6-7.2-3.5
			C699.7,231.9,703,224.6,704.9,222.1"/>
		<path class="st4" d="M722.2,226.1c-2.3,0.9-7.6,1.8-9.4,2.9c-2.2,1.4-2.8,4.4-1.4,6.6c1.4,2.2,4.4,2.8,6.6,1.4
			C720.5,235.3,722.2,228.7,722.2,226.1"/>
		<path class="st4" d="M726.9,246.2c-2.2-0.7-6.5-3.1-8.5-3.3c-2.4-0.2-4.5,1.5-4.8,3.9c-0.2,2.4,1.5,4.5,3.9,4.8
			C720.4,251.9,725.3,248.1,726.9,246.2"/>
	</g>
	<g>
		<path class="st5" d="M720.8,235.7c-2,1.1-6.6,2.7-8.1,4c-1.8,1.6-1.9,4.4-0.3,6.1c1.6,1.8,4.4,1.9,6.1,0.3
			C720.7,244.3,721.2,238.1,720.8,235.7"/>
		<path class="st5" d="M691.7,236.2c0.5,2.9,0.3,9.3,1.2,11.7c1.1,2.9,4.4,4.3,7.3,3.2c2.9-1.1,4.3-4.4,3.2-7.3
			C702.1,240.3,694.8,236.9,691.7,236.2"/>
		<path class="st5" d="M704.7,237.6c-0.9,2.8-4,8.4-4.3,10.9c-0.3,3.1,1.9,5.9,5,6.2c3.1,0.3,5.9-1.9,6.2-5
			C712,246.1,707.2,239.6,704.7,237.6"/>
	</g>
</g>
</svg>
